{"glyphs":{"0":{"ha":1410,"x_min":85,"x_max":1324,"o":"m 1324 517 q 943 3 1324 111 q 692 -30 827 -30 q 448 2 557 -31 q 258 95 339 35 q 132 247 178 155 q 85 456 85 339 q 127 672 85 572 q 248 847 168 772 q 455 963 328 922 q 723 1004 582 1004 q 1234 795 1088 1004 q 1324 517 1324 665 m 627 264 q 635 253 627 264 q 670 232 644 243 q 736 221 696 221 q 808 239 776 221 q 886 342 867 271 q 905 474 905 413 q 903 565 905 535 q 890 633 900 595 q 866 697 881 670 q 822 742 850 724 q 752 761 794 761 q 677 743 711 761 q 595 643 616 712 q 574 513 574 574 q 576 425 574 452 q 583 365 578 397 q 600 309 589 332 q 627 264 610 285 z "},"1":{"ha":877,"x_min":90,"x_max":758,"o":"m 225 -17 q 258 321 229 -1 q 296 713 288 642 l 113 682 l 90 886 l 743 975 q 743 974 743 975 q 749 968 749 974 l 749 966 q 758 951 758 965 q 725 414 758 728 q 684 -5 692 99 l 281 -17 l 225 -17 z "},"2":{"ha":1140,"x_min":117,"x_max":1039,"o":"m 117 12 q 138 56 117 27 q 344 335 158 84 q 543 619 530 585 q 550 653 550 637 q 420 717 550 717 q 205 690 332 717 l 202 690 q 195 698 193 690 l 249 956 q 403 987 290 969 q 606 1004 516 1004 q 750 998 694 1004 q 956 923 876 982 q 1039 746 1035 863 l 1039 736 q 903 393 1039 591 q 785 236 854 321 l 984 242 q 1015 234 1015 242 l 1015 233 q 988 126 1012 220 q 956 -5 964 32 l 149 -9 q 117 12 117 -9 z "},"3":{"ha":1110,"x_min":163,"x_max":1053,"o":"m 1053 292 q 925 62 1053 154 q 553 -31 797 -31 q 340 -11 446 -31 q 170 39 235 9 l 172 275 q 402 241 303 241 q 474 268 448 241 q 500 331 500 295 q 476 391 500 366 q 407 416 452 416 l 258 416 l 279 612 l 375 612 q 460 638 431 612 q 489 702 489 665 q 463 766 489 739 q 393 794 437 794 q 163 760 298 794 l 163 964 q 512 1004 370 1004 q 740 990 654 1004 q 892 945 825 975 q 996 866 959 916 q 1034 750 1034 816 q 857 530 1034 625 q 1053 292 1053 457 z "},"4":{"ha":1326,"x_min":54,"x_max":1285,"o":"m 490 385 l 640 385 l 687 700 l 490 385 m 1120 394 l 1242 397 q 1276 389 1267 397 q 1285 377 1285 380 q 1271 277 1285 374 q 1256 171 1257 179 q 1249 160 1256 163 q 1196 157 1241 157 l 1105 157 l 1094 -3 l 596 -8 l 616 153 l 92 153 q 64 160 74 153 q 54 175 54 167 q 57 189 54 184 l 642 977 l 1126 979 q 1149 974 1142 979 q 1156 961 1156 968 q 1120 394 1155 955 z "},"5":{"ha":1054,"x_min":109,"x_max":977,"o":"m 641 745 l 532 746 l 532 660 q 827 602 747 635 q 942 515 907 568 q 977 390 977 463 q 962 266 977 317 q 852 106 932 164 q 405 -22 706 -2 q 109 -31 273 -31 l 111 252 q 152 254 111 252 q 253 262 194 256 q 372 281 313 269 q 474 320 432 293 q 515 385 515 347 q 454 448 515 427 q 156 477 364 476 l 153 508 l 180 976 l 945 979 l 941 838 q 641 745 937 745 z "},"6":{"ha":1362,"x_min":90,"x_max":1286,"o":"m 696 183 q 823 365 823 183 q 795 485 823 445 q 703 525 768 525 q 575 336 575 525 q 696 183 575 183 m 563 1059 q 797 1009 602 1050 q 1011 959 992 968 q 970 910 1003 949 q 883 807 937 870 q 785 680 829 743 q 830 682 803 682 l 876 682 q 1057 654 975 682 q 1185 581 1137 625 q 1286 374 1286 488 q 1126 76 1286 182 q 654 -31 966 -31 q 237 91 391 -30 q 125 230 161 151 q 90 377 90 308 q 119 512 90 446 q 216 658 148 578 l 563 1059 z "},"7":{"ha":1149,"x_min":157,"x_max":1146,"o":"m 907 980 l 1146 974 q 689 -5 946 561 l 191 -1 q 231 88 191 1 q 378 416 271 174 l 504 701 l 213 699 q 157 705 156 699 l 203 976 q 499 979 343 977 q 749 981 654 981 q 907 980 844 981 z "},"8":{"ha":1423,"x_min":134,"x_max":1323,"o":"m 863 733 q 863 756 863 733 q 830 805 863 779 q 754 831 798 831 q 681 805 711 831 q 650 732 650 779 q 683 662 650 686 q 758 637 715 637 q 832 663 802 637 q 863 733 863 688 m 761 199 q 791 199 761 199 q 852 235 821 199 q 883 319 883 271 q 853 403 883 368 q 765 439 823 439 q 671 401 707 439 q 635 315 635 364 q 668 233 635 267 q 761 199 702 199 m 737 1004 q 1203 902 1095 1004 q 1259 777 1259 848 q 1132 569 1259 647 q 1273 458 1222 522 q 1323 305 1323 395 q 1162 49 1323 129 q 726 -31 1002 -31 q 168 160 283 -31 q 134 275 134 217 q 230 477 134 410 q 376 554 287 518 q 242 734 242 618 q 460 970 242 906 q 737 1004 581 1005 z "},"9":{"ha":1373,"x_min":102,"x_max":1299,"o":"m 692 791 q 565 609 565 791 q 593 489 565 529 q 686 449 621 449 q 813 637 813 449 q 692 791 813 791 m 825 -85 q 591 -35 786 -76 q 377 15 396 5 q 418 64 385 24 q 505 167 452 104 q 603 294 559 231 q 486 286 542 286 q 359 307 430 286 q 168 428 233 342 q 102 600 102 513 q 262 898 102 792 q 734 1004 422 1004 q 1152 883 998 1004 q 1263 744 1228 823 q 1299 597 1299 666 q 1270 462 1299 528 q 1172 316 1240 395 l 825 -85 z "},"\r":{"ha":400,"x_min":0,"x_max":0,"o":""}," ":{"ha":326,"x_min":0,"x_max":0,"o":""},"!":{"ha":800,"x_min":161,"x_max":758,"o":"m 187 262 l 515 256 q 490 -1 507 163 q 161 -2 484 -2 l 187 262 m 239 1108 l 758 1111 l 478 387 l 250 387 l 216 1086 q 239 1108 217 1108 z "},"\"":{"ha":813,"x_min":58,"x_max":763,"o":"m 647 490 l 500 489 q 484 547 486 490 q 469 941 478 744 l 463 982 l 763 983 l 762 963 l 671 531 q 659 494 665 499 q 647 490 655 490 m 238 490 l 92 489 q 76 547 77 490 q 60 941 70 744 l 58 982 l 370 983 l 368 963 l 258 512 q 248 492 254 494 q 238 490 243 490 z "},"#":{"ha":1360,"x_min":42,"x_max":1321,"o":"m 595 478 l 758 478 l 774 569 l 610 569 l 595 478 m 64 485 l 250 485 l 261 568 l 67 570 l 87 744 l 291 742 l 326 975 l 669 978 l 638 739 l 802 737 l 837 974 l 1187 981 l 1150 738 l 1321 738 l 1297 571 l 1122 571 l 1107 483 l 1295 483 l 1273 302 l 1076 302 l 1036 -1 l 694 5 l 732 306 l 565 307 l 516 2 l 182 8 l 224 309 l 42 309 l 64 485 z "},"$":{"ha":1080,"x_min":83,"x_max":1024,"o":"m 698 -103 l 554 -110 l 567 81 l 456 58 l 441 -106 q 294 -109 333 -109 l 305 37 q 83 18 197 18 l 112 221 q 247 241 214 227 q 292 272 280 254 q 304 315 304 289 q 283 380 304 342 q 237 458 262 418 q 191 554 212 498 q 170 650 170 609 q 209 783 170 725 q 369 885 248 842 l 381 1051 l 539 1065 l 525 920 l 646 933 l 665 1073 l 822 1080 l 807 939 q 996 926 906 939 l 1024 722 q 987 728 1023 722 q 907 733 952 733 q 782 665 782 733 q 859 555 783 616 q 921 501 890 529 q 975 430 953 473 q 998 336 998 387 q 922 204 998 262 q 718 109 846 146 l 698 -103 z "},"%":{"ha":1851,"x_min":64,"x_max":1823,"o":"m 1480 -33 q 1400 -33 1480 -33 q 1228 51 1320 -33 q 1136 256 1136 134 q 1223 465 1136 378 q 1333 532 1265 507 q 1484 557 1400 557 q 1634 532 1568 557 q 1740 466 1699 507 q 1823 260 1823 381 q 1731 53 1822 140 q 1480 -33 1639 -33 m 1367 255 q 1482 121 1367 121 q 1571 159 1541 121 q 1600 257 1600 197 q 1572 356 1600 318 q 1485 393 1543 393 q 1396 355 1426 393 q 1367 255 1367 317 m 574 100 l 1088 1038 l 1378 920 l 825 -1 q 737 35 816 -1 q 574 100 658 71 m 411 382 q 329 382 411 382 q 156 470 248 382 q 64 684 64 557 q 154 903 64 810 q 419 995 244 995 q 569 969 503 995 q 675 901 635 944 q 759 688 759 814 q 667 472 759 563 q 411 382 575 382 m 538 688 q 538 720 538 688 q 507 791 538 751 q 414 831 476 831 q 321 791 353 831 q 290 685 290 751 q 411 547 290 547 q 507 586 475 547 q 538 688 538 625 z "},"&":{"ha":1334,"x_min":166,"x_max":1358,"o":"m 643 817 q 626 817 643 817 q 584 795 609 817 q 559 739 559 774 q 580 673 559 703 q 633 625 600 644 q 700 677 675 644 q 725 744 725 711 q 701 798 725 778 q 643 817 676 817 m 500 277 q 625 189 500 189 q 738 227 685 189 l 556 366 q 500 277 500 323 m 391 526 q 269 743 269 614 q 363 924 269 848 q 481 982 410 960 q 640 1004 553 1004 q 888 932 795 1004 q 981 757 981 860 q 936 612 981 684 q 802 484 891 541 l 961 381 q 1047 457 1010 417 q 1117 534 1084 497 q 1152 572 1149 570 l 1358 425 l 1173 239 l 1282 159 l 1243 119 q 1093 -43 1118 -9 l 942 62 q 784 -3 888 25 q 578 -31 680 -31 q 275 46 385 -31 q 166 235 166 123 q 223 392 166 315 q 391 526 281 469 z "},"'":{"ha":425,"x_min":117,"x_max":427,"o":"m 296 490 l 150 488 q 136 532 136 488 l 117 949 q 122 974 117 967 q 138 981 126 981 l 412 983 q 427 966 427 983 l 316 511 q 307 492 312 494 q 296 490 301 490 z "},"(":{"ha":646,"x_min":62,"x_max":594,"o":"m 555 90 l 555 -119 q 305 -46 434 -119 q 133 126 204 11 q 62 424 62 241 q 244 910 62 743 q 594 1040 376 1032 l 593 831 q 504 752 544 821 q 444 587 465 684 q 423 383 423 491 q 455 189 423 275 q 555 90 488 103 z "},")":{"ha":648,"x_min":99,"x_max":616,"o":"m 106 -122 q 99 -15 99 -102 q 106 99 99 72 q 212 164 168 107 q 295 467 295 271 q 273 617 295 538 q 207 759 250 696 q 112 828 163 821 q 121 960 112 920 q 133 1018 130 1000 q 139 1040 137 1036 q 535 803 401 1032 q 616 482 616 664 q 536 149 616 300 q 292 -85 446 -20 q 106 -122 206 -122 z "},"*":{"ha":987,"x_min":49,"x_max":939,"o":"m 283 528 q 49 695 49 688 q 81 751 49 702 q 122 813 114 800 q 178 876 159 876 q 373 736 196 876 l 407 981 q 410 990 407 983 q 548 991 444 991 q 655 992 652 991 q 666 970 669 992 l 634 747 q 705 807 669 777 q 770 861 741 838 q 805 884 799 884 q 811 883 810 884 l 813 883 q 815 884 814 884 q 878 797 817 884 q 939 706 939 710 l 939 705 q 905 672 939 698 q 703 528 872 647 l 927 344 q 923 337 927 343 q 913 313 919 330 q 816 180 884 272 q 794 170 808 170 l 601 297 q 586 225 598 283 q 570 138 573 168 q 566 104 568 108 q 557 101 565 101 q 562 94 562 100 q 546 83 562 83 l 349 93 q 326 118 326 93 q 328 172 326 144 q 334 236 330 200 q 340 291 338 271 q 264 244 329 284 q 186 203 200 203 q 158 219 172 203 q 112 270 145 234 q 74 313 78 306 q 65 336 69 330 q 61 344 61 343 l 283 528 z "},"+":{"ha":728,"x_min":47,"x_max":710,"o":"m 467 81 l 248 81 l 260 305 l 47 305 q 71 511 48 333 l 284 511 l 296 739 l 513 739 l 500 513 l 710 513 q 700 386 708 471 l 692 308 l 479 308 l 467 81 z "},",":{"ha":442,"x_min":71,"x_max":387,"o":"m 114 -224 q 71 -220 87 -224 l 81 -116 q 181 -9 163 -105 l 87 -9 l 109 235 l 387 235 l 372 12 q 241 -191 363 -125 q 114 -224 178 -224 z "},"-":{"ha":855,"x_min":54,"x_max":799,"o":"m 96 602 q 799 621 223 606 l 799 597 q 789 484 799 581 q 774 365 780 388 q 158 357 354 357 l 54 357 l 96 602 z "},".":{"ha":494,"x_min":106,"x_max":378,"o":"m 378 236 l 378 38 l 376 -14 l 107 -14 q 106 80 106 12 l 106 238 l 336 238 l 378 236 z "},"/":{"ha":888,"x_min":28,"x_max":860,"o":"m 813 998 l 265 -123 l 28 -71 q 633 1146 440 777 l 860 1098 l 836 1050 l 813 998 z "},":":{"ha":556,"x_min":135,"x_max":436,"o":"m 436 281 l 432 3 q 177 -1 317 -1 l 136 -1 l 135 48 l 135 279 l 436 281 m 436 754 l 432 475 q 177 472 317 472 l 136 472 l 135 521 l 135 751 l 436 754 z "},";":{"ha":575,"x_min":116,"x_max":436,"o":"m 136 262 l 390 262 q 423 260 408 262 q 425 182 425 237 l 425 20 q 345 -164 425 -76 q 116 -279 265 -253 l 116 -178 q 222 -110 173 -161 q 282 -24 271 -59 l 134 -24 l 136 262 m 436 754 l 432 475 q 177 472 317 472 l 136 472 l 135 521 l 135 751 l 436 754 z "},"<":{"ha":730,"x_min":79,"x_max":703,"o":"m 87 516 q 368 628 153 548 q 613 719 583 707 q 655 730 643 730 q 668 722 667 730 q 694 502 680 565 q 686 486 694 487 l 388 376 q 539 300 404 368 q 688 224 674 232 q 703 213 703 216 q 701 204 703 210 q 616 -7 667 143 q 600 -20 612 -20 q 574 -12 588 -20 l 99 265 q 92 286 92 272 q 85 437 92 373 q 79 502 79 501 l 79 503 q 87 516 80 516 z "},"=":{"ha":664,"x_min":65,"x_max":602,"o":"m 301 174 q 66 174 301 174 l 71 388 l 400 388 l 591 391 l 593 176 q 301 174 507 174 m 159 519 l 65 519 l 77 729 l 287 729 l 602 731 l 594 525 q 159 519 280 519 z "},">":{"ha":713,"x_min":90,"x_max":714,"o":"m 714 503 q 714 500 714 503 q 700 286 701 373 q 691 264 700 270 l 218 -12 q 190 -20 199 -20 q 175 -5 180 -20 q 144 79 170 9 q 91 204 119 149 q 90 214 90 210 q 104 225 90 218 q 404 376 342 345 l 106 486 q 98 502 98 487 q 124 722 112 565 q 137 730 125 730 q 179 719 149 730 q 424 628 210 707 q 705 516 639 548 q 714 503 713 516 z "},"?":{"ha":1038,"x_min":155,"x_max":992,"o":"m 685 -31 l 439 -33 l 441 186 l 684 187 l 685 -31 m 186 587 q 155 690 155 633 q 232 881 155 810 q 408 979 309 953 q 599 1005 507 1005 q 884 921 776 1005 q 992 688 992 836 q 926 501 992 589 q 740 353 859 413 q 473 273 621 292 l 399 416 q 660 673 660 526 q 632 745 660 718 q 557 772 604 772 q 480 752 511 772 q 449 699 449 732 q 455 666 449 684 q 460 647 460 648 l 186 587 z "},"@":{"ha":1323,"x_min":90,"x_max":1243,"o":"m 954 159 q 747 295 783 159 q 683 212 727 242 q 600 182 638 182 q 457 239 516 182 q 399 400 399 296 l 399 415 q 483 635 405 549 q 668 722 562 722 q 730 704 700 722 q 772 658 760 686 l 798 716 l 946 709 l 901 382 q 901 340 901 378 q 921 280 901 303 q 971 258 942 258 q 1057 320 1020 258 q 1095 509 1095 382 q 1000 776 1095 681 q 732 871 905 871 q 538 832 627 871 q 389 728 449 793 q 263 395 263 590 q 323 197 263 285 q 490 59 383 109 q 732 9 597 9 l 693 -111 q 463 -80 566 -111 q 176 121 277 -24 q 90 401 90 246 q 125 604 90 508 q 365 894 191 783 q 752 1004 538 1004 q 1007 943 896 1004 q 1181 769 1119 882 q 1243 509 1243 656 q 1208 333 1243 412 q 1105 206 1173 253 q 954 159 1038 159 m 719 334 l 750 568 q 713 588 739 578 q 668 598 686 598 q 581 542 616 598 q 545 429 545 486 q 638 309 545 309 q 678 316 652 309 q 719 334 703 323 z "},"A":{"ha":1544,"x_min":48,"x_max":1495,"o":"m 831 366 q 734 692 758 604 q 659 477 696 573 q 616 366 622 380 l 831 366 m 515 117 l 464 -10 q 395 -15 429 -15 q 48 0 361 -15 q 482 970 126 163 q 673 978 525 971 q 931 984 821 984 q 1082 970 1041 984 q 1438 139 1086 957 l 1495 6 q 1056 -20 1064 -20 q 968 -16 1047 -20 q 916 112 937 39 q 515 117 872 117 z "},"B":{"ha":1604,"x_min":138,"x_max":1516,"o":"m 661 425 l 644 191 q 891 211 797 191 q 1023 256 985 232 q 1061 312 1061 281 q 963 402 1061 379 q 661 425 865 425 m 758 582 q 1023 692 1023 582 q 748 787 1021 787 q 688 783 724 787 q 673 582 680 712 l 758 582 m 1266 556 q 1516 313 1516 516 q 1056 1 1516 61 q 766 -17 917 -16 q 418 -12 616 -17 q 161 -3 220 -7 q 138 24 138 3 l 138 29 q 180 693 151 286 l 201 984 q 852 991 388 991 q 1309 930 1143 991 q 1474 749 1474 869 q 1412 634 1474 691 q 1266 556 1350 576 z "},"C":{"ha":1181,"x_min":90,"x_max":1042,"o":"m 90 477 q 279 847 90 716 q 911 1004 505 1004 q 1042 998 981 1004 l 1042 676 q 849 688 953 688 q 679 639 746 688 q 612 481 612 589 q 856 254 612 254 q 1042 277 918 254 l 1042 -20 q 853 -31 949 -31 q 172 208 355 -31 q 90 477 90 314 z "},"D":{"ha":1573,"x_min":104,"x_max":1484,"o":"m 648 722 l 625 244 q 876 275 804 246 q 1010 487 1010 327 q 943 673 1010 619 q 795 727 875 727 q 648 722 743 727 m 104 -15 q 143 365 117 65 q 181 956 170 664 q 873 991 603 991 q 1369 834 1208 991 q 1484 531 1484 722 q 1320 121 1484 244 q 993 11 1208 37 q 391 -15 779 -15 l 104 -15 z "},"E":{"ha":1389,"x_min":119,"x_max":1333,"o":"m 1326 -6 l 894 -6 l 119 -1 l 130 238 q 165 975 165 956 q 271 978 246 978 l 958 978 q 1327 981 1186 978 l 1299 725 q 646 710 1135 710 q 641 655 644 694 q 637 597 639 616 q 910 600 833 600 l 1059 596 q 1050 493 1059 566 q 1030 380 1041 420 q 861 377 1019 377 l 629 377 l 621 245 l 1333 237 q 1330 54 1333 109 q 1326 -6 1326 -1 z "},"F":{"ha":1297,"x_min":120,"x_max":1323,"o":"m 614 0 q 120 -4 614 0 q 124 111 121 33 q 129 220 128 189 l 142 976 l 799 976 l 1232 983 q 1323 975 1291 983 q 1317 914 1323 957 q 1308 850 1310 871 l 1295 735 q 1190 726 1243 728 q 644 720 1190 726 q 637 566 640 673 q 1021 569 974 569 q 1107 561 1068 569 q 1077 359 1107 513 q 873 349 984 349 l 627 347 l 614 0 z "},"G":{"ha":1491,"x_min":85,"x_max":1370,"o":"m 1278 663 q 953 705 1107 705 q 637 571 704 705 q 616 478 616 530 q 677 304 616 364 q 841 245 737 245 q 953 272 908 245 q 1019 340 998 299 l 858 340 l 867 536 q 1113 533 872 535 q 1370 527 1354 530 l 1370 0 l 1242 -7 l 1222 132 q 1025 14 1163 59 q 768 -31 886 -31 q 550 -12 649 -31 q 366 46 451 6 q 218 143 280 85 q 121 283 156 200 q 85 476 85 367 q 130 678 85 585 q 251 831 175 771 q 899 1004 467 1004 q 1091 992 971 1004 q 1278 962 1211 979 l 1278 663 z "},"H":{"ha":1642,"x_min":153,"x_max":1517,"o":"m 1030 977 l 1106 975 l 1517 986 l 1493 486 l 1478 1 l 991 -7 q 1001 293 991 111 l 639 293 l 621 1 l 153 -12 q 159 273 153 105 l 174 655 q 182 815 174 676 q 191 979 191 954 q 657 985 297 985 l 670 985 l 644 640 l 1009 640 l 1030 977 z "},"I":{"ha":802,"x_min":166,"x_max":674,"o":"m 553 981 l 671 983 q 674 947 674 966 l 671 856 l 652 7 l 523 3 q 168 0 523 3 q 166 50 166 20 q 189 972 166 50 q 553 981 339 981 z "},"J":{"ha":924,"x_min":65,"x_max":820,"o":"m 276 467 l 276 977 q 550 981 374 981 q 820 985 727 981 l 817 579 q 745 204 805 339 q 666 81 712 132 q 202 -87 536 -60 q 65 160 143 3 q 227 252 177 179 q 276 467 276 326 z "},"K":{"ha":1581,"x_min":122,"x_max":1555,"o":"m 1461 846 l 1461 848 q 1463 846 1461 848 l 1461 846 m 582 983 l 648 983 q 656 867 656 932 q 650 715 656 802 q 644 604 645 627 l 926 960 l 970 1011 q 1461 847 1206 926 l 1461 842 q 1263 640 1379 755 q 1110 486 1147 524 l 1555 137 l 1179 -18 l 1107 -55 l 989 41 q 789 217 901 115 q 637 361 677 319 l 626 52 l 626 4 q 126 -7 273 -7 q 122 86 122 52 q 136 535 122 86 q 150 888 150 840 q 154 968 150 937 q 342 978 184 972 q 582 983 499 983 z "},"L":{"ha":1313,"x_min":114,"x_max":1273,"o":"m 1240 -4 l 286 -4 q 114 0 173 -4 l 117 165 l 122 387 q 134 649 123 406 q 150 973 144 893 q 404 985 252 985 q 654 983 555 985 l 639 644 q 622 244 637 577 l 1145 256 q 1273 249 1223 256 q 1262 136 1273 205 l 1240 -4 z "},"M":{"ha":1822,"x_min":91,"x_max":1737,"o":"m 1737 2 l 1315 -6 q 1284 351 1289 252 l 1278 458 l 997 14 q 798 16 823 14 q 597 431 663 284 l 547 -3 q 350 -5 479 -5 q 91 3 220 -5 l 100 117 q 149 975 111 229 l 153 975 q 660 981 452 975 l 684 929 l 903 528 l 1170 986 l 1667 987 q 1710 393 1672 916 l 1732 85 l 1737 2 z "},"N":{"ha":1606,"x_min":101,"x_max":1508,"o":"m 127 970 l 730 983 q 863 834 737 975 q 1099 569 989 693 l 1099 867 q 1103 977 1100 944 l 1507 981 l 1508 650 q 1506 309 1508 527 l 1503 155 l 1505 42 q 1406 30 1491 39 q 1039 -31 1320 21 l 534 422 q 524 16 524 52 l 524 8 q 337 1 490 7 q 101 -6 184 -6 q 104 116 104 43 q 116 405 104 189 q 127 730 127 621 l 127 970 z "},"O":{"ha":1740,"x_min":85,"x_max":1654,"o":"m 870 245 q 1053 309 989 245 q 1116 500 1116 374 q 1052 675 1116 627 q 874 723 987 723 q 695 660 761 723 q 629 478 629 597 q 870 245 629 245 m 85 467 q 295 865 85 726 q 877 1004 505 1004 q 1451 876 1249 1004 q 1654 511 1654 747 q 1439 112 1654 255 q 852 -31 1224 -31 q 282 102 479 -31 q 85 467 85 235 z "},"P":{"ha":1533,"x_min":155,"x_max":1476,"o":"m 886 299 l 637 303 l 623 6 q 243 -6 321 -6 q 155 -3 165 -6 q 159 69 157 21 l 161 183 q 180 975 164 278 q 903 996 533 996 q 1298 924 1160 996 q 1476 637 1477 830 q 886 299 1476 299 m 992 642 q 948 718 992 705 q 828 730 905 730 q 655 720 752 730 q 646 535 646 614 q 788 531 656 531 q 992 642 992 531 z "},"Q":{"ha":1706,"x_min":86,"x_max":1653,"o":"m 871 245 q 873 246 871 245 q 873 245 873 246 q 876 245 873 245 q 1088 403 1043 245 q 1099 493 1100 445 q 1044 669 1099 614 q 871 724 989 724 q 684 662 754 724 q 613 479 613 600 q 683 301 613 358 q 871 245 753 245 m 1099 -246 q 1022 -131 1093 -246 q 948 -13 951 -16 q 743 -30 837 -30 q 179 180 353 -30 q 86 467 86 292 q 293 867 86 730 q 864 1004 500 1004 q 1297 937 1095 1004 q 1615 694 1534 857 q 1649 587 1645 635 q 1653 513 1653 539 q 1168 29 1653 127 l 1293 -147 l 1099 -246 z "},"R":{"ha":1626,"x_min":175,"x_max":1554,"o":"m 1002 647 q 838 726 1002 726 q 682 722 785 726 l 670 530 q 761 539 699 534 q 876 552 824 545 q 965 582 928 560 q 1002 647 1002 603 m 1025 -58 q 925 142 1000 -12 q 826 355 851 295 l 660 343 l 646 6 q 642 0 646 1 q 334 -7 435 -3 l 175 -12 q 189 438 175 87 l 193 550 l 213 973 q 221 974 214 972 q 643 990 338 990 q 1027 989 948 990 q 1183 974 1106 986 q 1484 714 1484 926 q 1412 527 1484 595 q 1242 427 1339 459 q 1408 209 1285 377 q 1554 13 1531 41 l 1025 -58 z "},"S":{"ha":1463,"x_min":111,"x_max":1369,"o":"m 1100 15 q 1057 3 1100 15 q 914 -20 1014 -9 q 685 -31 814 -31 q 401 -7 555 -31 q 112 61 248 16 q 178 315 115 73 q 183 320 178 320 q 370 275 305 290 q 740 237 543 237 q 848 275 848 237 q 837 299 848 292 q 799 310 826 306 q 711 323 772 314 q 619 338 651 332 q 530 353 587 343 q 442 372 472 363 q 365 393 412 380 q 292 420 317 406 q 232 452 266 433 q 180 493 198 471 q 144 542 161 515 q 111 663 111 591 q 283 927 111 850 q 795 1004 456 1004 q 1080 975 935 1004 q 1293 913 1225 946 q 1226 681 1255 769 q 993 725 1145 703 q 722 747 840 747 q 604 709 604 747 q 634 677 604 688 q 778 648 664 667 q 932 623 892 629 q 1308 475 1225 572 q 1369 319 1369 402 q 1336 176 1369 235 q 1245 79 1303 117 q 1100 15 1187 40 z "},"T":{"ha":1337,"x_min":67,"x_max":1303,"o":"m 877 3 q 413 -10 877 3 l 427 454 q 437 713 433 622 l 67 713 q 77 834 68 741 q 94 975 86 927 q 967 983 722 983 q 1303 981 1213 983 q 1255 713 1282 800 l 901 713 l 897 566 q 876 38 876 73 q 877 3 876 3 z "},"U":{"ha":1651,"x_min":97,"x_max":1571,"o":"m 808 -31 q 415 7 555 -31 q 97 401 97 91 l 101 667 q 105 829 103 728 q 115 973 108 929 l 443 975 l 652 979 q 651 924 651 960 q 650 871 651 888 l 629 414 q 681 288 629 332 q 823 243 734 243 q 968 305 912 243 q 1028 481 1024 368 l 1046 966 q 1571 976 1223 971 q 1558 625 1571 847 q 1537 370 1546 403 q 1373 120 1493 209 q 1106 0 1252 31 q 808 -31 960 -31 z "},"V":{"ha":1378,"x_min":47,"x_max":1379,"o":"m 1201 1002 l 1379 1003 q 1174 569 1379 999 q 937 76 968 138 l 901 -5 q 714 -14 870 -9 q 484 -18 559 -18 q 253 508 424 115 q 77 914 81 902 l 47 989 l 378 1004 l 553 1004 l 740 482 l 903 997 l 1201 1002 z "},"W":{"ha":2052,"x_min":65,"x_max":2037,"o":"m 1234 -12 l 1060 456 l 954 110 l 916 -5 q 460 -12 793 -12 l 121 813 l 65 983 l 395 993 l 572 997 l 730 482 l 881 983 l 1253 989 l 1431 516 l 1583 984 l 2037 989 l 1649 2 q 1460 -7 1613 -2 q 1234 -12 1307 -12 z "},"X":{"ha":1533,"x_min":84,"x_max":1503,"o":"m 1503 916 q 1082 496 1101 514 q 1490 117 1209 383 l 1209 -16 l 1090 -60 l 788 203 l 526 -62 l 111 83 l 214 199 q 492 492 317 317 l 84 901 q 123 914 88 902 q 536 1012 317 979 l 786 766 l 1010 1002 l 1503 916 z "},"Y":{"ha":1379,"x_min":38,"x_max":1388,"o":"m 906 979 q 1153 981 918 981 q 1388 978 1388 981 q 1383 966 1388 975 l 1373 949 l 948 380 l 930 5 l 836 1 l 452 -7 q 445 348 445 39 l 38 977 l 537 989 l 722 713 l 906 979 z "},"Z":{"ha":1345,"x_min":109,"x_max":1278,"o":"m 1233 2 l 937 0 l 245 0 q 109 3 159 0 l 109 40 l 596 675 q 113 686 204 680 l 150 979 q 425 983 258 983 q 858 980 592 983 q 1257 977 1124 977 q 1067 668 1227 919 q 808 285 907 418 l 1013 285 l 1175 289 q 1278 288 1247 289 q 1259 151 1278 267 q 1233 2 1240 35 z "},"[":{"ha":966,"x_min":109,"x_max":922,"o":"m 606 -116 q 113 -106 309 -116 q 109 -15 109 -76 q 116 252 109 45 q 125 564 123 458 l 135 1084 l 260 1086 l 922 1086 l 915 838 l 635 831 q 627 665 634 798 q 618 455 619 532 l 611 136 l 687 136 q 876 134 814 136 q 871 -115 876 6 l 606 -116 z "},"\\":{"ha":930,"x_min":67,"x_max":899,"o":"m 423 1108 q 851 44 509 876 l 899 -81 l 557 -114 q 530 -52 543 -87 q 513 -7 517 -16 l 162 844 q 116 951 138 902 l 67 1077 l 423 1108 z "},"]":{"ha":966,"x_min":87,"x_max":891,"o":"m 201 -113 l 88 -112 l 87 20 l 90 133 l 370 145 q 378 488 370 233 q 389 840 387 743 l 123 842 l 123 1088 l 886 1088 q 891 976 891 1051 q 883 692 891 901 q 873 404 876 484 l 861 -109 l 201 -113 z "},"^":{"ha":832,"x_min":43,"x_max":787,"o":"m 511 62 q 429 358 476 178 l 272 60 q 175 85 267 60 q 43 119 83 111 q 188 392 79 184 q 336 659 296 600 l 592 651 l 770 145 l 787 92 l 511 62 z "},"_":{"ha":808,"x_min":64,"x_max":742,"o":"m 433 197 l 742 199 l 734 -9 l 64 -7 l 75 197 q 433 197 75 197 z "},"`":{"ha":450,"x_min":17,"x_max":404,"o":"m 17 1058 q 252 1133 252 1133 l 254 1133 l 404 848 l 300 811 l 17 1058 z "},"a":{"ha":1226,"x_min":81,"x_max":1133,"o":"m 835 131 q 710 18 792 62 q 529 -25 628 -25 q 356 -4 430 -25 q 219 57 282 16 q 119 167 157 98 q 81 328 81 236 q 115 497 81 420 q 208 624 149 575 q 498 726 327 726 q 692 696 617 726 q 825 589 768 666 l 827 733 l 1133 707 l 1131 16 l 876 -3 l 835 131 m 517 447 q 498 424 517 447 q 478 337 478 401 q 517 228 478 274 q 627 181 555 181 q 739 222 699 181 q 779 335 779 263 q 739 450 779 407 q 628 492 699 492 q 517 447 557 492 z "},"b":{"ha":1295,"x_min":97,"x_max":1219,"o":"m 517 975 l 515 909 q 510 769 515 880 q 503 640 504 658 q 635 702 559 678 q 784 726 711 726 q 1135 589 1007 726 q 1219 358 1219 497 q 1181 210 1219 281 q 1079 87 1143 138 q 929 5 1016 36 q 739 -25 843 -25 q 533 15 634 -25 q 372 129 432 55 l 372 132 q 335 71 369 123 q 297 16 301 18 q 222 2 292 14 q 132 -9 151 -9 q 97 4 113 -9 l 133 861 l 133 951 q 425 983 367 983 q 517 975 483 983 m 649 172 q 687 172 649 172 q 770 224 725 172 q 814 344 814 275 q 771 462 814 413 q 651 511 728 511 q 562 486 600 511 q 490 341 490 437 q 531 222 490 273 q 649 172 572 172 z "},"c":{"ha":1111,"x_min":81,"x_max":1009,"o":"m 807 487 q 503 353 503 487 q 564 242 503 281 q 742 203 625 203 q 972 222 860 203 l 977 9 q 696 -25 848 -25 q 441 -2 544 -25 q 279 50 338 22 q 176 117 221 79 q 81 334 80 198 q 114 486 81 418 q 327 668 175 610 q 662 726 479 726 q 1009 685 845 726 l 992 467 q 807 487 888 487 z "},"d":{"ha":1287,"x_min":81,"x_max":1188,"o":"m 823 639 q 836 966 827 823 q 1009 974 857 967 q 1186 980 1162 980 l 1188 980 l 1188 26 q 1149 17 1181 22 l 1072 4 q 1000 -10 1027 -3 q 911 149 924 124 q 665 -12 814 20 q 499 -25 601 -25 q 297 19 397 -25 q 139 144 197 62 q 81 315 81 225 q 281 659 81 551 q 556 726 406 726 q 701 702 630 726 q 823 639 772 677 m 640 172 q 678 172 640 172 q 761 224 716 172 q 806 344 806 275 q 763 462 806 413 q 642 511 720 511 q 553 486 591 511 q 481 341 481 437 q 522 222 481 273 q 640 172 564 172 z "},"e":{"ha":1109,"x_min":77,"x_max":1010,"o":"m 711 425 q 681 515 710 488 q 597 541 652 541 q 508 508 542 541 q 466 426 474 475 l 711 425 m 977 56 q 827 0 935 24 q 617 -24 719 -24 q 446 -15 516 -24 q 306 19 375 -5 q 188 82 237 44 q 108 182 138 121 q 77 329 77 243 q 109 487 77 415 q 189 603 140 559 q 588 726 327 726 q 824 678 712 726 q 983 532 936 629 q 1010 410 1010 477 l 1002 298 l 452 301 q 531 204 469 239 q 703 169 594 169 q 953 228 811 169 l 989 228 l 977 56 z "},"f":{"ha":945,"x_min":71,"x_max":956,"o":"m 625 507 q 606 84 606 110 l 604 -3 l 261 -5 q 199 -3 230 -5 l 197 57 q 218 505 199 172 l 123 505 q 71 509 83 505 q 85 665 73 580 l 227 665 q 544 1008 239 938 q 743 1030 637 1030 q 956 1016 849 1030 q 948 798 956 908 q 840 806 891 806 q 748 796 789 806 q 682 766 706 786 q 646 723 658 745 q 625 665 634 700 l 791 665 q 916 659 865 665 q 903 507 916 591 l 625 507 z "},"g":{"ha":1289,"x_min":81,"x_max":1196,"o":"m 220 -323 l 256 -114 l 288 -114 q 474 -148 395 -148 q 600 -138 554 -148 q 774 50 764 -101 q 529 -7 670 -7 q 270 50 387 -7 q 106 210 153 106 q 81 333 80 267 q 141 530 81 439 q 308 673 202 621 q 538 726 413 726 q 827 640 701 726 l 833 710 l 1196 682 l 1158 13 q 1116 -122 1155 -59 q 877 -307 1045 -239 q 528 -376 709 -376 q 220 -323 347 -376 m 640 515 q 601 515 640 515 q 519 462 563 515 q 475 339 475 408 q 513 223 475 271 q 608 176 551 176 q 752 227 711 176 q 794 348 794 279 q 755 466 794 416 q 640 515 716 515 z "},"h":{"ha":1310,"x_min":89,"x_max":1229,"o":"m 434 997 l 513 1002 q 520 939 520 979 q 507 635 520 898 q 854 726 688 726 q 1125 637 1021 726 q 1229 412 1229 549 l 1217 1 l 808 -3 l 822 353 q 672 480 822 480 q 529 388 564 480 q 500 168 500 313 l 500 7 q 427 1 462 2 l 92 -1 q 89 65 89 29 l 121 970 q 434 997 178 972 z "},"i":{"ha":640,"x_min":106,"x_max":574,"o":"m 500 1 q 106 3 210 -3 q 119 332 106 43 q 139 685 132 621 q 400 696 304 696 q 528 694 496 696 l 500 1 m 414 1088 q 535 1049 496 1088 q 574 956 574 1010 q 530 867 574 901 q 326 812 460 812 q 161 845 193 812 q 130 929 130 878 q 167 1018 129 981 q 414 1088 239 1088 z "},"j":{"ha":737,"x_min":-43,"x_max":696,"o":"m -43 -298 l -19 -81 q 65 -83 33 -83 q 185 -45 138 -83 q 239 125 233 -7 q 258 678 252 366 q 564 696 493 696 q 654 694 635 696 l 635 70 q 509 -220 624 -137 q 181 -304 393 -304 q -43 -298 58 -304 m 696 956 q 662 875 696 909 q 471 812 598 812 q 298 845 345 812 q 252 960 252 878 q 308 1048 252 1007 q 500 1089 364 1089 q 696 956 696 1089 z "},"k":{"ha":1199,"x_min":88,"x_max":1181,"o":"m 784 -19 q 658 131 751 7 q 545 279 566 255 l 487 232 l 477 69 l 475 -1 l 88 -7 l 132 986 q 526 1004 469 1005 l 514 753 q 500 481 502 538 l 696 664 l 1084 671 q 1166 669 1114 671 l 1106 615 l 939 455 q 853 380 880 406 q 1000 217 907 323 q 1109 94 1093 111 q 1148 53 1126 77 q 1181 18 1171 29 l 784 -19 z "},"l":{"ha":605,"x_min":99,"x_max":533,"o":"m 132 975 l 533 994 q 511 445 522 768 q 495 -1 500 121 l 99 -12 l 119 629 q 132 975 132 937 z "},"m":{"ha":1914,"x_min":89,"x_max":1833,"o":"m 1417 338 q 1301 508 1417 508 q 1212 476 1238 508 q 1160 219 1160 414 l 1160 6 l 755 -6 l 755 49 l 762 359 q 733 487 762 452 q 639 522 705 522 q 543 476 572 522 q 502 232 501 414 l 503 -6 l 89 -7 l 93 63 q 105 452 100 236 q 111 670 111 669 l 331 698 l 404 558 q 772 726 517 726 q 955 690 884 726 q 1080 577 1025 655 q 1444 726 1200 726 q 1731 628 1630 726 q 1833 366 1833 530 l 1821 -1 l 1417 -7 l 1417 338 z "},"n":{"ha":1305,"x_min":89,"x_max":1225,"o":"m 775 434 q 685 481 736 481 q 518 368 553 481 q 497 205 497 299 l 494 0 l 89 -7 q 108 650 90 65 l 335 698 l 408 558 q 574 686 467 646 q 802 726 681 726 q 1076 660 966 726 q 1225 366 1225 570 q 1221 221 1225 339 q 1213 -2 1216 102 l 809 -5 l 813 318 q 775 434 813 388 z "},"o":{"ha":1221,"x_min":77,"x_max":1144,"o":"m 613 160 q 735 214 694 160 q 777 348 777 267 q 733 476 777 429 q 610 524 688 524 q 493 469 532 524 q 453 339 453 414 q 613 160 453 160 m 77 334 q 648 726 77 726 q 1001 629 861 726 q 1106 513 1069 583 q 1144 366 1144 444 q 1007 68 1144 161 q 602 -25 869 -25 q 77 334 77 -25 z "},"p":{"ha":1301,"x_min":90,"x_max":1225,"o":"m 651 172 q 690 172 651 172 q 772 224 728 172 q 817 344 817 275 q 774 462 817 413 q 654 511 731 511 q 564 486 602 511 q 492 341 492 437 q 534 222 492 273 q 651 172 575 172 m 471 -211 q 99 -239 188 -239 l 92 -239 q 90 -157 90 -160 l 124 674 q 179 690 138 684 l 336 714 l 410 579 q 811 726 530 726 q 1022 681 927 726 q 1171 557 1117 636 q 1225 384 1225 477 q 1187 214 1225 291 q 1085 86 1149 138 q 936 4 1021 34 q 766 -25 852 -25 q 481 49 597 -25 l 481 44 q 476 -52 481 43 q 471 -211 471 -146 z "},"q":{"ha":1297,"x_min":81,"x_max":1211,"o":"m 623 163 q 804 224 727 163 q 810 474 808 296 q 645 515 737 515 q 527 456 575 515 q 479 322 479 397 q 517 205 479 246 q 623 163 554 163 m 797 50 q 502 -25 672 -25 q 209 65 332 -25 q 115 176 149 109 q 81 313 81 243 q 274 642 81 517 q 611 726 403 726 q 1072 616 819 726 l 1131 675 l 1168 669 q 1211 662 1186 665 q 1193 303 1204 604 q 1175 -120 1181 3 l 1175 -200 q 1123 -204 1158 -202 q 1074 -208 1088 -207 l 904 -235 l 794 -240 q 790 -147 790 -221 q 797 50 790 -73 z "},"r":{"ha":857,"x_min":98,"x_max":834,"o":"m 169 -6 l 102 -7 q 98 38 98 24 q 123 650 98 38 l 311 690 l 389 554 q 648 720 518 720 q 759 699 701 720 q 834 652 816 677 l 763 456 q 616 487 688 487 q 498 446 544 487 q 492 442 495 444 l 491 440 l 463 8 l 169 -6 z "},"s":{"ha":1061,"x_min":85,"x_max":981,"o":"m 130 227 q 481 182 344 182 q 619 202 619 182 q 589 233 619 223 q 423 266 559 243 q 231 311 287 289 q 85 478 85 366 q 160 631 85 576 q 581 726 290 726 q 924 683 755 726 l 892 493 q 735 516 846 505 q 539 528 624 528 q 455 505 455 528 q 472 484 455 490 q 589 465 490 477 q 730 443 688 452 q 946 333 891 410 q 981 226 981 284 q 969 134 981 168 q 834 15 941 56 q 507 -25 726 -25 q 269 -10 393 -25 q 85 39 146 5 l 130 227 z "},"t":{"ha":1041,"x_min":60,"x_max":964,"o":"m 947 30 q 784 -10 882 4 q 602 -24 687 -24 q 441 -5 517 -24 q 202 284 202 56 q 202 292 202 288 l 202 300 q 206 409 204 319 q 210 507 208 498 l 140 507 q 60 513 81 507 l 102 668 l 226 668 q 240 829 235 739 q 248 941 245 918 q 644 964 498 964 q 652 964 648 964 q 653 943 653 954 l 640 666 l 904 666 q 964 658 936 666 l 928 513 q 854 507 907 507 l 627 507 l 621 309 q 653 218 621 244 q 747 193 685 193 q 923 225 809 193 q 949 233 945 232 q 951 139 951 213 q 947 30 951 65 z "},"u":{"ha":1301,"x_min":80,"x_max":1201,"o":"m 488 344 q 634 166 488 166 q 753 218 713 165 q 792 296 783 258 q 814 574 814 391 l 814 683 q 1200 692 899 686 q 1201 637 1201 656 l 1167 20 l 954 -12 q 888 129 909 78 q 719 14 821 53 q 506 -25 617 -25 q 145 96 262 -24 q 80 276 80 163 q 87 516 80 389 q 96 674 95 643 q 222 680 119 676 q 372 686 326 683 l 505 694 q 488 344 488 381 z "},"v":{"ha":1134,"x_min":64,"x_max":1110,"o":"m 307 61 q 64 675 154 471 q 434 690 414 690 q 454 690 453 690 l 472 629 q 577 274 534 420 q 743 689 709 618 q 864 690 774 690 q 1110 684 954 690 l 1057 586 l 753 0 q 385 -7 547 -7 l 334 -6 l 307 61 z "},"w":{"ha":1597,"x_min":78,"x_max":1542,"o":"m 1406 348 q 1366 243 1406 348 q 1316 110 1327 138 q 1293 50 1305 81 q 1273 -1 1280 18 q 972 -7 1064 -7 q 856 -8 880 -7 q 793 311 843 61 l 714 9 q 369 -3 481 -3 l 294 -3 q 78 675 153 463 q 159 677 112 675 q 240 679 205 678 q 310 681 275 680 l 378 684 q 453 686 422 684 l 528 263 l 618 605 l 639 688 l 857 690 q 994 686 927 690 q 1087 267 1014 589 l 1190 686 l 1282 693 l 1542 694 q 1406 348 1484 557 z "},"x":{"ha":1267,"x_min":66,"x_max":1210,"o":"m 1210 -1 l 810 -9 q 726 -13 775 -9 q 677 39 712 -3 q 610 125 642 80 q 519 25 593 106 l 496 1 q 443 -1 466 -1 q 79 12 443 -1 q 102 37 82 16 q 136 71 122 58 l 420 324 q 66 663 184 564 l 568 708 l 590 675 q 671 561 655 585 l 756 655 l 783 690 q 872 690 812 690 l 1184 684 q 983 508 1091 615 q 848 374 876 400 l 1210 -1 z "},"y":{"ha":1158,"x_min":48,"x_max":1135,"o":"m 451 -98 l 394 5 q 201 379 337 107 q 48 678 64 651 l 444 695 l 635 254 q 706 469 648 288 q 783 694 765 649 q 829 696 808 696 q 1135 685 829 696 q 932 213 1063 514 q 780 -127 800 -90 q 663 -297 729 -227 q 267 -450 519 -450 l 150 -260 q 271 -229 191 -260 q 451 -98 425 -168 z "},"z":{"ha":978,"x_min":83,"x_max":911,"o":"m 675 253 l 887 258 l 892 254 l 800 0 l 213 0 q 106 3 176 3 l 389 506 l 83 498 q 137 626 100 545 q 182 728 174 707 l 911 718 l 911 712 q 675 253 842 573 z "},"{":{"ha":760,"x_min":111,"x_max":727,"o":"m 439 516 q 587 325 587 469 q 615 97 587 134 q 705 60 644 60 l 699 -75 q 530 -96 608 -96 q 305 -24 385 -96 q 225 189 225 49 l 225 204 q 214 331 225 295 q 111 401 191 401 l 111 604 q 213 661 189 604 q 234 767 230 702 q 243 869 239 831 q 300 1005 252 950 q 474 1060 349 1060 q 596 1058 491 1060 q 705 1055 701 1056 l 727 883 q 589 813 617 883 q 567 701 572 773 q 552 596 561 629 q 515 542 543 564 q 439 516 488 519 z "},"|":{"ha":404,"x_min":82,"x_max":415,"o":"m 82 -62 q 182 1039 170 857 l 415 1028 l 313 -74 l 82 -66 l 82 -62 z "},"}":{"ha":760,"x_min":78,"x_max":694,"o":"m 106 1050 q 214 1056 117 1053 q 360 1060 311 1060 q 573 903 552 1060 q 580 786 580 854 l 580 770 q 591 644 580 680 q 694 573 614 573 l 694 371 q 594 312 621 370 q 566 209 578 277 q 543 102 553 140 q 453 -36 521 20 q 237 -92 386 -92 q 100 -81 176 -92 l 78 92 q 211 161 189 92 q 223 230 221 192 q 227 307 225 268 q 238 380 229 347 q 279 439 248 414 q 366 472 311 465 q 251 526 284 483 q 218 647 218 570 q 217 753 218 724 q 193 875 214 848 q 100 915 161 916 l 106 1050 z "},"~":{"ha":858,"x_min":77,"x_max":766,"o":"m 563 514 q 607 573 607 514 l 766 568 q 686 388 766 454 q 595 353 644 353 q 488 376 546 353 q 377 422 431 399 q 291 446 323 446 q 236 386 236 446 l 77 381 q 132 545 77 480 q 266 610 186 610 q 436 565 346 610 q 541 517 527 520 q 563 514 555 514 z "}," ":{"ha":326,"x_min":0,"x_max":0,"o":""},"¡":{"ha":800,"x_min":120,"x_max":718,"o":"m 691 481 l 363 488 q 388 745 371 581 q 718 746 395 746 l 691 481 m 640 -364 l 120 -367 l 400 357 l 628 357 l 662 -342 q 640 -364 661 -364 z "},"¢":{"ha":1094,"x_min":81,"x_max":1009,"o":"m 632 -164 l 734 -166 l 743 -24 q 977 9 868 -20 l 972 222 q 757 203 867 205 l 774 487 q 839 487 790 487 q 992 467 888 487 l 1009 685 q 789 720 903 711 l 797 844 l 690 844 l 684 726 q 662 726 673 726 q 327 667 479 726 q 114 486 175 609 q 81 334 81 418 q 176 117 80 198 q 640 -24 330 -14 l 632 -164 m 654 210 q 564 243 600 220 q 503 353 503 282 q 669 479 503 451 l 654 210 z "},"£":{"ha":1295,"x_min":73,"x_max":1204,"o":"m 1078 229 l 1202 229 l 1188 -18 l 1115 -18 q 275 -17 281 -18 q 175 3 206 -17 q 144 48 144 23 q 157 96 144 74 q 234 258 210 183 q 266 421 258 334 l 141 421 l 73 422 l 83 578 l 273 578 l 283 707 q 358 868 290 798 q 534 975 426 939 q 771 1011 642 1011 q 1204 903 998 1011 l 1182 711 q 952 761 1053 761 q 795 716 852 761 q 739 583 739 672 l 739 576 l 981 575 l 992 488 l 999 420 l 722 421 q 720 388 721 414 q 716 332 720 361 q 660 225 709 267 q 1078 229 907 229 z "},"¤":{"ha":866,"x_min":111,"x_max":865,"o":"m 579 393 q 602 408 579 393 q 646 468 625 423 q 667 576 667 512 q 618 697 667 641 q 481 753 570 753 q 341 692 393 753 q 289 552 289 631 q 337 418 289 473 q 471 363 385 363 q 579 393 534 363 m 311 264 l 231 165 l 113 268 l 191 358 q 124 553 124 446 q 197 749 124 661 l 111 846 l 239 945 l 327 846 q 486 880 399 880 q 646 843 572 880 l 744 952 l 865 850 l 767 737 q 829 558 829 667 q 768 376 829 449 l 856 297 l 762 182 l 653 277 q 475 229 578 229 q 311 264 372 229 z "},"¥":{"ha":1459,"x_min":113,"x_max":1411,"o":"m 998 202 l 1187 202 l 1185 64 l 990 66 l 985 -16 q 924 -17 985 -17 q 498 -26 863 -17 l 498 70 l 302 70 l 283 73 l 286 202 l 498 202 l 500 279 l 287 279 l 292 419 l 456 419 l 113 971 l 115 986 l 429 985 q 582 982 553 984 l 777 648 l 985 983 l 1410 983 l 1411 954 l 1048 427 l 1198 427 l 1190 281 l 1001 281 l 998 202 z "},"¦":{"ha":492,"x_min":87,"x_max":363,"o":"m 87 -10 l 104 415 l 104 453 l 342 453 l 329 -9 l 303 -10 l 87 -10 m 108 606 l 125 1031 l 125 1069 l 363 1069 l 349 608 l 323 606 l 108 606 z "},"§":{"ha":1000,"x_min":43,"x_max":980,"o":"m 557 812 q 441 766 442 812 q 464 731 441 747 q 534 708 486 715 q 611 696 581 701 q 687 684 642 692 q 756 671 732 676 q 814 656 780 665 q 865 639 848 648 q 905 619 883 631 q 939 594 928 607 q 965 559 949 581 q 980 479 980 537 q 943 384 980 420 q 810 328 905 347 q 876 285 850 316 q 924 142 924 229 q 773 -61 924 1 q 420 -112 650 -112 q 43 -46 191 -112 l 92 155 q 471 96 323 96 q 619 143 619 96 q 511 199 620 184 q 216 266 293 231 q 159 300 184 281 q 101 423 102 344 q 124 511 101 469 q 190 573 146 552 q 129 649 154 599 q 103 761 103 700 q 138 872 103 822 q 235 949 172 921 q 547 1004 355 1004 q 946 957 739 1004 l 911 779 q 743 801 861 790 q 557 812 625 812 m 405 515 q 401 511 405 515 q 386 492 396 507 q 376 469 376 478 q 383 454 376 460 q 491 427 406 437 q 595 413 576 416 l 598 413 q 629 428 613 413 q 646 458 646 442 q 617 484 646 473 q 533 503 589 494 l 416 523 q 405 515 414 523 z "},"¨":{"ha":806,"x_min":60,"x_max":747,"o":"m 747 827 l 489 827 l 494 1069 l 747 1069 l 747 827 m 63 826 q 60 831 60 826 l 69 1069 l 322 1070 l 319 827 l 63 826 z "},"©":{"ha":1405,"x_min":107,"x_max":1295,"o":"m 904 759 l 922 610 l 905 610 q 892 618 901 614 q 874 628 882 623 q 858 636 865 633 q 841 643 851 639 q 740 661 801 661 q 640 609 678 661 q 602 475 602 557 q 654 349 602 393 q 771 305 707 305 q 886 334 836 305 l 897 334 q 903 231 903 243 q 902 218 903 218 q 727 167 822 167 q 510 244 605 167 q 401 492 401 333 q 438 637 401 564 q 550 758 475 711 q 733 808 626 804 q 904 759 840 811 m 667 73 q 910 125 801 73 q 1084 274 1020 177 q 1148 487 1148 370 q 1095 693 1148 604 q 948 834 1042 783 q 729 886 853 886 q 498 836 606 886 q 325 693 390 787 q 260 481 260 600 q 370 195 260 313 q 499 106 422 139 q 667 73 576 73 m 751 1013 q 964 974 861 1013 q 1139 867 1067 935 q 1254 707 1212 800 q 1295 512 1295 613 q 1263 326 1295 411 q 1037 63 1202 163 q 651 -37 873 -37 q 205 180 363 -37 q 107 495 107 313 q 232 810 107 676 q 751 1013 422 1013 z "},"ª":{"ha":884,"x_min":91,"x_max":772,"o":"m 214 429 q 91 664 91 503 q 171 907 92 824 q 362 991 251 991 q 487 968 439 991 q 573 885 536 945 l 574 1002 l 772 982 l 771 420 l 606 404 l 579 513 q 499 421 552 456 q 365 387 446 387 q 214 429 284 387 m 349 670 q 349 641 349 670 q 376 582 349 612 q 447 553 403 553 q 517 586 492 553 q 543 679 543 620 q 517 772 543 737 q 446 806 491 806 q 375 767 401 806 q 349 670 349 728 z "},"«":{"ha":1378,"x_min":73,"x_max":1161,"o":"m 648 559 q 873 663 696 586 q 1112 767 1050 739 q 1139 772 1133 772 q 1146 762 1145 772 l 1161 545 q 1154 530 1161 531 l 898 421 q 1154 266 900 420 q 1159 257 1158 262 l 1078 41 q 1063 28 1074 28 q 1041 36 1053 28 l 650 311 q 645 332 645 317 l 645 372 q 640 545 645 541 l 640 547 q 648 559 643 559 m 81 559 q 323 671 138 591 q 532 762 509 751 q 567 772 555 772 q 580 762 579 772 l 594 545 q 587 530 594 531 l 332 421 q 463 341 338 417 q 590 262 589 264 q 592 258 592 259 l 511 41 q 496 28 507 28 q 474 36 486 28 l 83 311 q 78 332 78 317 l 78 372 q 73 545 78 541 l 73 547 q 81 559 76 559 z "},"¬":{"ha":825,"x_min":77,"x_max":713,"o":"m 409 254 l 193 249 l 77 249 l 95 496 l 411 499 q 654 503 552 503 l 713 503 l 709 366 q 693 56 709 290 l 500 61 l 484 63 l 496 254 l 409 254 z "},"­":{"ha":707,"x_min":30,"x_max":688,"o":"m 686 -1 q 519 -3 651 -3 q 127 -8 387 -3 l 30 -8 l 32 176 l 398 178 l 688 178 l 686 -1 z "},"®":{"ha":1404,"x_min":107,"x_max":1295,"o":"m 667 507 q 758 542 713 507 q 802 606 802 576 q 721 676 802 676 q 678 672 705 676 l 667 507 m 694 774 q 975 608 976 774 q 935 514 975 549 q 835 467 895 478 l 1006 235 q 844 165 997 231 l 664 446 l 659 201 l 474 196 q 474 227 474 198 q 492 640 474 256 l 492 648 q 496 712 495 682 q 498 753 498 742 q 694 774 617 774 m 667 54 q 916 108 804 54 q 1087 260 1027 162 q 1148 460 1148 357 q 1114 636 1148 564 q 1026 758 1080 708 q 897 837 972 808 q 728 866 821 866 q 548 836 636 867 q 293 616 363 771 q 260 466 260 543 q 376 170 260 291 q 503 85 427 117 q 667 54 578 54 m 1117 99 q 1074 63 1117 99 q 909 -16 1030 26 q 661 -57 789 -57 q 432 -16 533 -57 q 262 94 331 24 q 107 475 106 250 q 154 674 107 575 q 287 843 200 772 q 493 953 374 913 q 735 993 612 993 q 1136 850 976 993 q 1295 479 1295 707 q 1250 275 1295 378 q 1117 99 1204 173 z "},"¯":{"ha":942,"x_min":174,"x_max":768,"o":"m 182 604 l 768 616 q 758 431 766 574 l 757 408 q 260 397 561 402 l 174 396 l 182 604 z "},"°":{"ha":683,"x_min":89,"x_max":712,"o":"m 514 689 q 411 823 514 823 q 316 778 353 823 q 279 674 279 733 q 338 549 279 577 q 378 540 355 540 q 479 586 444 540 q 514 689 514 632 m 398 378 q 176 457 264 378 q 89 671 89 536 q 132 826 89 755 q 250 940 174 897 q 418 982 326 982 q 628 904 544 982 q 712 702 712 827 q 628 480 712 576 q 529 406 589 434 q 398 378 469 378 z "},"±":{"ha":709,"x_min":60,"x_max":686,"o":"m 531 9 l 60 5 l 78 151 l 682 155 l 675 9 l 531 9 m 480 266 l 271 269 l 287 448 q 102 447 245 447 l 123 648 l 306 650 l 320 838 q 435 840 370 838 l 499 842 l 518 842 l 505 653 q 686 657 579 657 l 674 453 l 489 451 l 480 266 z "},"²":{"ha":719,"x_min":44,"x_max":669,"o":"m 150 437 q 44 460 44 437 q 73 498 44 469 l 142 574 q 286 813 286 732 q 220 868 286 868 q 105 839 174 868 l 86 831 l 73 840 q 115 964 106 949 q 230 997 148 981 q 403 1013 312 1013 q 566 980 494 1013 q 638 863 638 947 q 598 783 638 828 q 485 665 559 737 l 389 569 l 637 581 q 669 572 669 581 q 661 556 669 568 l 569 450 q 538 440 555 443 q 150 437 520 437 z "},"³":{"ha":573,"x_min":58,"x_max":519,"o":"m 519 564 q 451 422 519 477 q 260 367 384 367 q 150 379 205 367 q 62 410 96 392 l 62 553 q 168 532 131 532 q 219 549 205 532 q 233 588 233 566 q 220 626 233 610 q 184 641 208 641 l 107 641 l 118 762 l 168 762 q 212 779 197 762 q 227 818 227 795 q 214 858 227 840 q 178 875 200 875 q 58 854 124 875 l 58 981 q 247 1007 163 1007 q 386 991 331 1007 q 474 939 440 976 q 509 848 509 902 q 418 711 509 770 q 519 564 519 667 z "},"´":{"ha":471,"x_min":43,"x_max":454,"o":"m 454 1053 q 161 819 163 819 q 43 846 152 819 q 140 998 78 905 q 221 1119 201 1092 q 454 1053 303 1097 z "},"µ":{"ha":866,"x_min":80,"x_max":1201,"o":"m 460 -285 l 80 -316 q 80 324 80 -316 q 88 525 81 415 q 96 669 95 635 q 406 699 273 699 q 505 694 446 699 q 488 344 488 381 q 522 215 488 264 q 625 166 556 166 q 755 235 718 166 q 788 311 776 273 q 814 676 814 390 q 1200 699 899 682 q 1201 638 1201 659 l 1167 20 q 954 -12 1093 7 l 888 129 q 719 13 821 52 q 506 -26 617 -26 q 471 -25 482 -26 l 460 -285 z "},"¶":{"ha":1008,"x_min":52,"x_max":987,"o":"m 543 -42 l 306 -47 q 321 454 306 -47 q 128 560 204 490 q 52 736 52 630 q 89 851 52 802 q 187 928 125 901 q 471 981 308 981 l 490 981 q 984 958 829 972 l 987 787 q 870 791 948 787 q 865 589 867 746 q 861 364 863 431 l 854 201 q 846 -48 854 173 l 610 -51 l 640 791 l 560 795 l 549 207 l 543 -42 z "},"·":{"ha":380,"x_min":106,"x_max":397,"o":"m 106 550 l 106 553 q 120 806 116 796 q 136 816 124 816 q 383 817 230 816 q 397 801 399 817 l 378 588 q 371 552 375 556 q 327 546 366 547 q 113 545 288 545 q 106 550 106 545 z "},"¸":{"ha":370,"x_min":14,"x_max":360,"o":"m 229 -106 q 360 -248 360 -106 q 306 -371 360 -328 q 168 -414 252 -414 q 14 -364 84 -414 l 41 -267 q 141 -304 102 -304 q 199 -286 180 -304 q 217 -245 217 -267 q 170 -195 217 -201 l 62 -180 l 104 -12 l 226 -12 l 193 -108 q 229 -106 212 -106 z "},"¹":{"ha":508,"x_min":52,"x_max":452,"o":"m 408 381 l 168 374 q 134 389 141 374 q 132 385 134 389 l 132 393 q 134 389 132 391 q 154 584 136 398 q 176 811 172 769 l 66 793 l 52 915 l 444 968 q 448 964 448 968 l 448 963 q 452 954 452 962 l 408 381 z "},"º":{"ha":698,"x_min":88,"x_max":726,"o":"m 530 692 q 530 729 530 692 q 495 805 530 766 q 412 844 460 844 q 328 800 363 844 q 292 683 292 756 q 327 570 292 609 q 411 532 363 532 q 495 575 459 532 q 530 692 530 618 m 726 712 q 726 657 726 712 q 680 525 726 602 q 559 409 634 448 q 400 370 483 370 q 166 457 243 370 q 88 662 88 545 q 204 936 88 840 q 425 1004 287 1004 q 562 979 503 1004 q 656 909 621 953 q 726 712 726 823 z "},"»":{"ha":1364,"x_min":119,"x_max":1319,"o":"m 685 584 q 693 571 693 584 l 688 353 q 681 334 688 338 l 248 63 q 219 55 228 55 q 205 68 210 55 l 120 279 q 119 288 119 284 q 135 300 119 292 q 266 373 151 308 q 393 444 382 438 l 135 561 q 127 576 125 562 l 153 794 q 167 805 155 805 q 195 799 178 805 q 685 584 399 722 m 1319 551 l 1319 367 q 1312 346 1319 354 q 1282 322 1305 338 l 905 56 q 877 48 886 48 q 863 61 867 48 l 778 272 q 777 281 777 277 q 792 293 777 286 q 902 369 808 301 q 1010 444 997 437 l 786 554 q 778 570 776 555 l 804 787 q 818 798 806 798 q 857 788 829 798 q 925 761 885 777 q 1007 726 966 745 q 1097 686 1048 707 q 1223 625 1146 664 q 1310 583 1301 587 q 1319 551 1319 578 z "},"¼":{"ha":1577,"x_min":33,"x_max":1525,"o":"m 1028 265 l 1171 265 l 1205 558 l 1028 265 m 1422 271 l 1525 273 l 1520 128 l 1402 128 l 1391 16 q 1380 4 1391 7 q 1282 -3 1369 1 q 1175 -6 1195 -6 q 1149 -3 1155 -6 q 1143 9 1143 1 l 1154 127 l 873 125 q 780 131 790 125 q 770 140 770 136 l 1118 648 q 1161 660 1127 660 l 1421 660 q 1438 661 1435 661 q 1453 648 1453 661 l 1422 271 m 315 64 q 472 327 370 153 q 628 588 574 501 q 752 800 681 675 q 837 949 823 924 q 857 980 850 974 q 874 986 863 986 l 880 986 q 959 960 900 980 q 1041 936 1017 939 q 1069 930 1065 932 q 1074 924 1074 928 l 527 9 q 520 -8 524 4 q 505 -20 515 -20 q 480 -15 495 -20 l 394 12 q 346 26 381 12 q 311 52 311 39 q 315 64 311 57 m 428 963 q 432 958 432 963 l 389 381 l 148 374 q 114 389 121 374 l 113 385 l 113 393 q 114 389 113 391 q 134 584 116 398 q 157 811 152 769 l 46 793 l 33 915 l 424 968 q 428 964 428 968 l 428 963 z "},"½":{"ha":1599,"x_min":33,"x_max":1509,"o":"m 1126 374 q 1059 429 1126 429 q 945 399 1013 429 l 926 391 l 912 400 q 954 524 946 509 q 1069 557 987 541 q 1243 573 1152 573 q 1406 540 1334 573 q 1478 423 1478 507 q 1438 343 1478 389 q 1324 225 1398 298 l 1228 130 l 1477 142 q 1509 133 1509 142 q 1500 117 1509 128 l 1409 10 q 1368 1 1396 3 q 987 -2 1090 -2 q 884 20 884 -2 q 913 59 884 30 l 982 135 q 1126 374 1126 293 m 315 64 q 472 327 370 153 q 628 588 574 501 q 752 800 681 675 q 837 949 823 924 q 857 980 850 974 q 874 986 863 986 l 880 986 q 959 960 900 980 q 1041 936 1017 939 q 1069 930 1065 932 q 1074 924 1074 928 l 527 9 q 520 -8 524 4 q 505 -20 515 -20 q 480 -15 495 -20 l 394 12 q 346 26 381 12 q 311 52 311 39 q 315 64 311 57 m 114 389 l 113 385 l 113 393 q 114 389 113 391 m 428 963 q 432 958 432 963 l 389 381 l 148 374 q 114 389 121 374 q 134 584 116 398 q 157 811 152 769 l 46 793 l 33 915 l 424 968 q 428 964 428 968 l 428 963 z "},"¾":{"ha":1786,"x_min":178,"x_max":1734,"o":"m 1237 265 l 1380 265 l 1414 558 l 1237 265 m 524 64 q 681 327 578 153 q 837 588 783 501 q 961 800 890 675 q 1045 949 1031 924 q 1065 980 1059 974 q 1083 986 1072 986 l 1088 986 q 1167 960 1109 980 q 1255 935 1226 939 q 1283 924 1283 930 l 736 9 q 729 -8 733 4 q 714 -20 724 -20 q 689 -15 704 -20 l 603 12 q 555 26 590 12 q 519 52 519 39 q 524 64 519 57 m 1631 271 l 1734 273 l 1729 128 l 1611 128 l 1600 16 q 1589 4 1600 7 q 1491 -3 1577 1 q 1384 -6 1404 -6 q 1358 -3 1364 -6 q 1352 9 1352 1 l 1363 127 l 1082 125 q 989 131 999 125 q 979 140 979 136 l 1327 648 q 1370 660 1336 660 l 1630 660 q 1647 661 1644 661 q 1662 648 1662 661 l 1631 271 m 639 564 q 571 422 639 477 q 380 367 504 367 q 270 379 325 367 q 182 410 216 392 l 182 553 q 302 532 251 532 q 339 549 326 532 q 353 588 353 566 q 340 626 353 610 q 304 641 328 641 l 227 641 l 238 762 l 288 762 q 332 779 317 762 q 347 818 347 795 q 334 858 347 840 q 298 875 320 875 q 178 854 244 875 l 178 981 q 367 1007 283 1007 q 506 991 451 1007 q 594 939 560 976 q 629 848 629 902 q 538 711 629 770 q 639 564 639 667 z "},"¿":{"ha":920,"x_min":51,"x_max":888,"o":"m 358 978 l 604 981 l 602 762 l 359 760 l 358 978 m 857 360 q 888 257 888 314 q 811 66 888 138 q 635 -32 734 -5 q 444 -58 536 -58 q 159 27 267 -58 q 51 260 51 111 q 117 447 51 359 q 303 595 184 534 q 570 674 422 655 l 644 532 q 383 274 383 422 q 411 202 383 229 q 486 175 439 175 q 563 195 532 175 q 594 249 594 215 q 588 281 594 263 q 583 300 583 300 l 857 360 z "},"À":{"ha":1544,"x_min":48,"x_max":1495,"o":"m 507 1362 q 743 1437 742 1437 l 745 1437 l 894 1153 l 790 1116 l 507 1362 m 831 366 q 734 692 758 604 q 659 477 696 573 q 616 366 622 380 l 831 366 m 515 117 l 464 -10 q 395 -15 429 -15 q 48 0 361 -15 q 482 970 126 163 q 673 978 525 971 q 931 984 821 984 q 1082 970 1041 984 q 1438 139 1086 957 l 1495 6 q 1056 -20 1064 -20 q 968 -16 1047 -20 q 916 112 937 39 q 515 117 872 117 z "},"Á":{"ha":1544,"x_min":48,"x_max":1495,"o":"m 1094 1350 q 801 1116 803 1116 q 682 1143 791 1116 q 779 1296 718 1202 q 861 1417 841 1390 q 1094 1350 943 1395 m 831 366 q 734 692 758 604 q 659 477 696 573 q 616 366 622 380 l 831 366 m 515 117 l 464 -10 q 395 -15 429 -15 q 48 0 361 -15 q 482 970 126 163 q 673 978 525 971 q 931 984 821 984 q 1082 970 1041 984 q 1438 139 1086 957 l 1495 6 q 1056 -20 1064 -20 q 968 -16 1047 -20 q 916 112 937 39 q 515 117 872 117 z "},"Â":{"ha":1544,"x_min":48,"x_max":1495,"o":"m 536 1201 l 536 1210 q 579 1261 536 1213 q 780 1492 623 1308 q 786 1495 783 1495 q 789 1494 788 1495 l 890 1494 q 979 1360 891 1494 q 1067 1219 1067 1226 q 1065 1210 1067 1213 l 1065 1208 q 1028 1175 1065 1198 q 951 1133 991 1152 q 904 1114 911 1114 l 818 1294 q 682 1118 685 1122 l 682 1116 q 654 1125 669 1116 q 588 1161 640 1134 q 536 1201 536 1187 m 831 366 q 734 692 758 604 q 659 477 696 573 q 616 366 622 380 l 831 366 m 515 117 l 464 -10 q 395 -15 429 -15 q 48 0 361 -15 q 482 970 126 163 q 673 978 525 971 q 931 984 821 984 q 1082 970 1041 984 q 1438 139 1086 957 l 1495 6 q 1056 -20 1064 -20 q 968 -16 1047 -20 q 916 112 937 39 q 515 117 872 117 z "},"Ã":{"ha":1544,"x_min":48,"x_max":1495,"o":"m 675 1243 q 621 1168 621 1243 l 465 1162 q 532 1368 465 1288 q 697 1447 600 1447 q 800 1432 762 1447 q 870 1374 839 1417 q 923 1330 901 1330 q 956 1339 944 1330 q 974 1375 968 1348 q 985 1402 979 1402 l 1141 1396 q 1076 1206 1141 1294 q 999 1140 1045 1166 q 903 1115 954 1115 q 811 1137 852 1115 q 729 1218 770 1158 q 675 1243 712 1243 m 831 366 q 734 692 758 604 q 659 477 696 573 q 616 366 622 380 l 831 366 m 515 117 l 464 -10 q 395 -15 429 -15 q 48 0 361 -15 q 482 970 126 163 q 673 978 525 971 q 931 984 821 984 q 1082 970 1041 984 q 1438 139 1086 957 l 1495 6 q 1056 -20 1064 -20 q 968 -16 1047 -20 q 916 112 937 39 q 515 117 872 117 z "},"Ä":{"ha":1544,"x_min":48,"x_max":1495,"o":"m 1143 1116 l 885 1116 l 890 1358 l 1143 1358 l 1143 1116 m 459 1115 q 456 1120 456 1115 l 465 1358 l 718 1359 l 715 1116 l 459 1115 m 831 366 q 734 692 758 604 q 659 477 696 573 q 616 366 622 380 l 831 366 m 515 117 l 464 -10 q 395 -15 429 -15 q 48 0 361 -15 q 482 970 126 163 q 673 978 525 971 q 931 984 821 984 q 1082 970 1041 984 q 1438 139 1086 957 l 1495 6 q 1056 -20 1064 -20 q 968 -16 1047 -20 q 916 112 937 39 q 515 117 872 117 z "},"Å":{"ha":1544,"x_min":48,"x_max":1495,"o":"m 862 1243 q 799 1326 863 1326 q 741 1298 764 1326 q 718 1235 718 1270 q 779 1152 718 1152 q 840 1180 819 1152 q 862 1243 862 1208 m 983 1251 q 983 1212 983 1251 q 930 1113 983 1173 q 792 1053 876 1053 q 655 1102 709 1053 q 602 1231 602 1150 q 660 1367 602 1311 q 800 1423 719 1423 q 932 1375 880 1423 q 983 1251 983 1328 m 831 366 q 734 692 758 604 q 659 477 696 573 q 616 366 622 380 l 831 366 m 515 117 l 464 -10 q 395 -15 429 -15 q 48 0 361 -15 q 482 970 126 163 q 673 978 525 971 q 931 984 821 984 q 1082 970 1041 984 q 1438 139 1086 957 l 1495 6 q 1056 -20 1064 -20 q 968 -16 1047 -20 q 916 112 937 39 q 515 117 872 117 z "},"Æ":{"ha":1927,"x_min":-35,"x_max":1872,"o":"m 1872 237 l 1862 -1 q 765 -1 1862 -1 l 781 118 l 510 118 l 438 -9 l -35 16 q 297 498 6 64 q 618 973 589 932 l 891 977 l 891 979 l 1327 978 l 1845 979 l 1838 720 l 1265 710 q 1261 655 1263 694 q 1257 597 1259 616 q 1534 599 1443 599 q 1664 599 1534 599 l 1650 380 q 1481 377 1639 377 l 1257 377 l 1259 237 l 1872 237 m 793 370 q 817 693 805 552 l 624 367 l 793 370 z "},"Ç":{"ha":1181,"x_min":90,"x_max":1042,"o":"m 841 -111 q 972 -253 972 -111 q 918 -376 972 -334 q 780 -419 864 -419 q 627 -370 696 -419 l 654 -273 q 753 -309 714 -309 q 811 -291 793 -309 q 829 -251 829 -273 q 782 -200 829 -207 l 674 -186 l 717 -17 l 838 -17 l 806 -113 q 841 -111 824 -111 m 90 477 q 279 847 90 716 q 911 1004 505 1004 q 1042 998 981 1004 l 1042 676 q 849 688 953 688 q 679 639 746 688 q 612 481 612 589 q 856 254 612 254 q 1042 277 918 254 l 1042 -20 q 853 -31 949 -31 q 172 208 355 -31 q 90 477 90 314 z "},"È":{"ha":1389,"x_min":119,"x_max":1333,"o":"m 458 1362 q 694 1437 693 1437 l 696 1437 l 845 1153 l 741 1116 l 458 1362 m 1326 -6 l 894 -6 l 119 -1 l 130 238 q 165 975 165 956 q 271 978 246 978 l 958 978 q 1327 981 1186 978 l 1299 725 q 646 710 1135 710 q 641 655 644 694 q 637 597 639 616 q 910 600 833 600 l 1059 596 q 1050 493 1059 566 q 1030 380 1041 420 q 861 377 1019 377 l 629 377 l 621 245 l 1333 237 q 1330 54 1333 109 q 1326 -6 1326 -1 z "},"É":{"ha":1389,"x_min":119,"x_max":1333,"o":"m 1045 1350 q 752 1116 754 1116 q 633 1143 743 1116 q 730 1296 669 1202 q 812 1417 792 1390 q 1045 1350 894 1395 m 1326 -6 l 894 -6 l 119 -1 l 130 238 q 165 975 165 956 q 271 978 246 978 l 958 978 q 1327 981 1186 978 l 1299 725 q 646 710 1135 710 q 641 655 644 694 q 637 597 639 616 q 910 600 833 600 l 1059 596 q 1050 493 1059 566 q 1030 380 1041 420 q 861 377 1019 377 l 629 377 l 621 245 l 1333 237 q 1330 54 1333 109 q 1326 -6 1326 -1 z "},"Ê":{"ha":1389,"x_min":119,"x_max":1333,"o":"m 488 1201 l 488 1210 q 530 1261 488 1213 q 731 1492 574 1308 q 737 1495 734 1495 q 741 1494 739 1495 l 841 1494 q 930 1360 842 1494 q 1019 1219 1019 1226 q 1017 1210 1019 1213 l 1017 1208 q 979 1175 1017 1198 q 902 1133 942 1152 q 855 1114 863 1114 l 769 1294 q 633 1118 636 1122 l 633 1116 q 606 1125 621 1116 q 539 1161 591 1134 q 488 1201 488 1187 m 1326 -6 l 894 -6 l 119 -1 l 130 238 q 165 975 165 956 q 271 978 246 978 l 958 978 q 1327 981 1186 978 l 1299 725 q 646 710 1135 710 q 641 655 644 694 q 637 597 639 616 q 910 600 833 600 l 1059 596 q 1050 493 1059 566 q 1030 380 1041 420 q 861 377 1019 377 l 629 377 l 621 245 l 1333 237 q 1330 54 1333 109 q 1326 -6 1326 -1 z "},"Ë":{"ha":1389,"x_min":119,"x_max":1333,"o":"m 1094 1116 l 836 1116 l 842 1358 l 1094 1358 l 1094 1116 m 410 1115 q 408 1120 408 1115 l 416 1358 l 669 1359 l 666 1116 l 410 1115 m 1326 -6 l 894 -6 l 119 -1 l 130 238 q 165 975 165 956 q 271 978 246 978 l 958 978 q 1327 981 1186 978 l 1299 725 q 646 710 1135 710 q 641 655 644 694 q 637 597 639 616 q 910 600 833 600 l 1059 596 q 1050 493 1059 566 q 1030 380 1041 420 q 861 377 1019 377 l 629 377 l 621 245 l 1333 237 q 1330 54 1333 109 q 1326 -6 1326 -1 z "},"Ì":{"ha":802,"x_min":166,"x_max":674,"o":"m 252 1362 q 487 1437 486 1437 l 489 1437 l 638 1153 l 534 1116 l 252 1362 m 553 981 l 671 983 q 674 947 674 966 l 671 856 l 652 7 l 523 3 q 168 0 523 3 q 166 50 166 20 q 189 972 166 50 q 553 981 339 981 z "},"Í":{"ha":802,"x_min":166,"x_max":674,"o":"m 650 1350 q 357 1116 359 1116 q 239 1143 348 1116 q 336 1296 274 1202 q 417 1417 397 1390 q 650 1350 499 1395 m 553 981 l 671 983 q 674 947 674 966 l 671 856 l 652 7 l 523 3 q 168 0 523 3 q 166 50 166 20 q 189 972 166 50 q 553 981 339 981 z "},"Î":{"ha":802,"x_min":166,"x_max":708,"o":"m 177 1200 l 177 1209 q 220 1260 177 1213 q 420 1491 263 1308 q 426 1495 424 1495 q 430 1493 429 1495 l 530 1493 q 620 1359 532 1493 q 708 1219 708 1225 q 706 1209 708 1212 l 706 1208 q 669 1175 706 1198 q 592 1133 631 1152 q 545 1114 552 1114 l 458 1293 q 323 1117 326 1121 l 323 1115 q 295 1124 310 1115 q 229 1160 280 1133 q 177 1200 177 1187 m 553 981 l 671 983 q 674 947 674 966 l 671 856 l 652 7 l 523 3 q 168 0 523 3 q 166 50 166 20 q 189 972 166 50 q 553 981 339 981 z "},"Ï":{"ha":802,"x_min":97,"x_max":783,"o":"m 783 1116 l 526 1116 l 531 1358 l 783 1358 l 783 1116 m 100 1115 q 97 1120 97 1115 l 106 1358 l 359 1359 l 355 1116 l 100 1115 m 553 981 l 671 983 q 674 947 674 966 l 671 856 l 652 7 l 523 3 q 168 0 523 3 q 166 50 166 20 q 189 972 166 50 q 553 981 339 981 z "},"Ð":{"ha":1050,"x_min":32,"x_max":1484,"o":"m 104 -15 q 145 382 117 71 l 113 382 q 39 389 47 382 q 32 401 31 395 l 57 589 l 161 591 q 181 956 174 775 q 873 991 603 991 q 1369 834 1208 991 q 1484 531 1484 722 q 1320 121 1484 244 q 993 11 1208 37 q 391 -15 779 -15 l 104 -15 m 631 379 l 625 244 q 876 275 804 246 q 1010 487 1010 327 q 943 673 1010 619 q 795 727 875 727 q 648 722 743 727 l 642 592 l 770 592 q 783 587 777 592 q 789 572 789 583 l 778 379 l 631 379 z "},"Ñ":{"ha":1606,"x_min":101,"x_max":1508,"o":"m 706 1243 q 652 1168 652 1243 l 496 1162 q 564 1368 496 1288 q 728 1447 631 1447 q 831 1432 793 1447 q 901 1374 870 1417 q 954 1330 932 1330 q 987 1339 975 1330 q 1005 1375 1000 1348 q 1017 1402 1010 1402 l 1173 1396 q 1107 1206 1173 1294 q 1030 1140 1076 1166 q 934 1115 985 1115 q 842 1137 884 1115 q 760 1218 801 1158 q 706 1243 743 1243 m 127 970 l 730 983 q 863 834 737 975 q 1099 569 989 693 l 1099 867 q 1103 977 1100 944 l 1507 981 l 1508 650 q 1506 309 1508 527 l 1503 155 l 1505 42 q 1406 30 1491 39 q 1039 -31 1320 21 l 534 422 q 524 16 524 52 l 524 8 q 337 1 490 7 q 101 -6 184 -6 q 104 116 104 43 q 116 405 104 189 q 127 730 127 621 l 127 970 z "},"Ò":{"ha":1740,"x_min":85,"x_max":1654,"o":"m 593 1362 q 829 1437 828 1437 l 831 1437 l 980 1153 l 876 1116 l 593 1362 m 870 245 q 1053 309 989 245 q 1116 500 1116 374 q 1052 675 1116 627 q 874 723 987 723 q 695 660 761 723 q 629 478 629 597 q 870 245 629 245 m 85 467 q 295 865 85 726 q 877 1004 505 1004 q 1451 876 1249 1004 q 1654 511 1654 747 q 1439 112 1654 255 q 852 -31 1224 -31 q 282 102 479 -31 q 85 467 85 235 z "},"Ó":{"ha":1740,"x_min":85,"x_max":1654,"o":"m 1180 1350 q 887 1116 889 1116 q 768 1143 878 1116 q 865 1296 804 1202 q 947 1417 927 1390 q 1180 1350 1029 1395 m 870 245 q 1053 309 989 245 q 1116 500 1116 374 q 1052 675 1116 627 q 874 723 987 723 q 695 660 761 723 q 629 478 629 597 q 870 245 629 245 m 85 467 q 295 865 85 726 q 877 1004 505 1004 q 1451 876 1249 1004 q 1654 511 1654 747 q 1439 112 1654 255 q 852 -31 1224 -31 q 282 102 479 -31 q 85 467 85 235 z "},"Ô":{"ha":1740,"x_min":85,"x_max":1654,"o":"m 623 1201 l 623 1210 q 665 1261 623 1213 q 866 1492 709 1308 q 872 1495 869 1495 q 876 1494 874 1495 l 976 1494 q 1065 1360 977 1494 q 1154 1219 1154 1226 q 1152 1210 1154 1213 l 1152 1208 q 1114 1175 1152 1198 q 1037 1133 1077 1152 q 990 1114 998 1114 l 904 1294 q 768 1118 771 1122 l 768 1116 q 741 1125 755 1116 q 674 1161 726 1134 q 623 1201 623 1187 m 870 245 q 1053 309 989 245 q 1116 500 1116 374 q 1052 675 1116 627 q 874 723 987 723 q 695 660 761 723 q 629 478 629 597 q 870 245 629 245 m 85 467 q 295 865 85 726 q 877 1004 505 1004 q 1451 876 1249 1004 q 1654 511 1654 747 q 1439 112 1654 255 q 852 -31 1224 -31 q 282 102 479 -31 q 85 467 85 235 z "},"Õ":{"ha":1740,"x_min":85,"x_max":1654,"o":"m 761 1243 q 707 1168 707 1243 l 551 1162 q 618 1368 551 1288 q 783 1447 686 1447 q 886 1432 848 1447 q 956 1374 925 1417 q 1009 1330 987 1330 q 1042 1339 1030 1330 q 1060 1375 1055 1348 q 1072 1402 1065 1402 l 1227 1396 q 1162 1206 1227 1294 q 1085 1140 1131 1166 q 989 1115 1040 1115 q 897 1137 939 1115 q 815 1218 856 1158 q 761 1243 798 1243 m 870 245 q 1053 309 989 245 q 1116 500 1116 374 q 1052 675 1116 627 q 874 723 987 723 q 695 660 761 723 q 629 478 629 597 q 870 245 629 245 m 85 467 q 295 865 85 726 q 877 1004 505 1004 q 1451 876 1249 1004 q 1654 511 1654 747 q 1439 112 1654 255 q 852 -31 1224 -31 q 282 102 479 -31 q 85 467 85 235 z "},"Ö":{"ha":1740,"x_min":85,"x_max":1654,"o":"m 1229 1116 l 971 1116 l 977 1358 l 1229 1358 l 1229 1116 m 545 1115 q 543 1120 543 1115 l 551 1358 l 804 1359 l 801 1116 l 545 1115 m 870 245 q 1053 309 989 245 q 1116 500 1116 374 q 1052 675 1116 627 q 874 723 987 723 q 695 660 761 723 q 629 478 629 597 q 870 245 629 245 m 85 467 q 295 865 85 726 q 877 1004 505 1004 q 1451 876 1249 1004 q 1654 511 1654 747 q 1439 112 1654 255 q 852 -31 1224 -31 q 282 102 479 -31 q 85 467 85 235 z "},"×":{"ha":766,"x_min":79,"x_max":668,"o":"m 509 169 l 372 313 l 220 154 l 89 302 l 242 465 q 153 558 212 498 q 79 633 94 617 l 240 773 l 380 612 l 526 765 l 668 617 q 521 471 600 548 l 660 327 l 509 169 z "},"Ø":{"ha":1740,"x_min":85,"x_max":1654,"o":"m 1240 1103 q 978 546 1190 998 q 708 -31 766 93 q 645 -166 649 -154 q 632 -179 642 -179 q 614 -174 623 -179 l 513 -118 q 535 -62 513 -105 q 564 -7 557 -20 l 1114 1155 l 1119 1155 l 1236 1110 q 1240 1103 1240 1108 m 870 245 q 1053 309 989 245 q 1116 500 1116 374 q 1052 675 1116 627 q 874 723 987 723 q 695 660 761 723 q 629 478 629 597 q 870 245 629 245 m 85 467 q 295 865 85 726 q 877 1004 505 1004 q 1451 876 1249 1004 q 1654 511 1654 747 q 1439 112 1654 255 q 852 -31 1224 -31 q 282 102 479 -31 q 85 467 85 235 z "},"Ù":{"ha":1651,"x_min":97,"x_max":1571,"o":"m 551 1362 q 787 1437 786 1437 l 789 1437 l 938 1153 l 834 1116 l 551 1362 m 808 -31 q 415 7 555 -31 q 97 401 97 91 l 101 667 q 105 829 103 728 q 115 973 108 929 l 443 975 l 652 979 q 651 924 651 960 q 650 871 651 888 l 629 414 q 681 288 629 332 q 823 243 734 243 q 968 305 912 243 q 1028 481 1024 368 l 1046 966 q 1571 976 1223 971 q 1558 625 1571 847 q 1537 370 1546 403 q 1373 120 1493 209 q 1106 0 1252 31 q 808 -31 960 -31 z "},"Ú":{"ha":1651,"x_min":97,"x_max":1571,"o":"m 1139 1350 q 846 1116 848 1116 q 727 1143 836 1116 q 824 1296 762 1202 q 905 1417 886 1390 q 1139 1350 987 1395 m 808 -31 q 415 7 555 -31 q 97 401 97 91 l 101 667 q 105 829 103 728 q 115 973 108 929 l 443 975 l 652 979 q 651 924 651 960 q 650 871 651 888 l 629 414 q 681 288 629 332 q 823 243 734 243 q 968 305 912 243 q 1028 481 1024 368 l 1046 966 q 1571 976 1223 971 q 1558 625 1571 847 q 1537 370 1546 403 q 1373 120 1493 209 q 1106 0 1252 31 q 808 -31 960 -31 z "},"Û":{"ha":1651,"x_min":97,"x_max":1571,"o":"m 581 1201 l 581 1210 q 624 1261 581 1213 q 825 1492 667 1308 q 830 1495 828 1495 q 834 1494 833 1495 l 935 1494 q 1024 1360 936 1494 q 1112 1219 1112 1226 q 1110 1210 1112 1213 l 1110 1208 q 1073 1175 1110 1198 q 996 1133 1036 1152 q 949 1114 956 1114 l 863 1294 q 727 1118 730 1122 l 727 1116 q 699 1125 714 1116 q 633 1161 684 1134 q 581 1201 581 1187 m 808 -31 q 415 7 555 -31 q 97 401 97 91 l 101 667 q 105 829 103 728 q 115 973 108 929 l 443 975 l 652 979 q 651 924 651 960 q 650 871 651 888 l 629 414 q 681 288 629 332 q 823 243 734 243 q 968 305 912 243 q 1028 481 1024 368 l 1046 966 q 1571 976 1223 971 q 1558 625 1571 847 q 1537 370 1546 403 q 1373 120 1493 209 q 1106 0 1252 31 q 808 -31 960 -31 z "},"Ü":{"ha":1651,"x_min":97,"x_max":1571,"o":"m 1187 1116 l 929 1116 l 935 1358 l 1187 1358 l 1187 1116 m 503 1115 q 500 1120 500 1115 l 509 1358 l 762 1359 l 759 1116 l 503 1115 m 808 -31 q 415 7 555 -31 q 97 401 97 91 l 101 667 q 105 829 103 728 q 115 973 108 929 l 443 975 l 652 979 q 651 924 651 960 q 650 871 651 888 l 629 414 q 681 288 629 332 q 823 243 734 243 q 968 305 912 243 q 1028 481 1024 368 l 1046 966 q 1571 976 1223 971 q 1558 625 1571 847 q 1537 370 1546 403 q 1373 120 1493 209 q 1106 0 1252 31 q 808 -31 960 -31 z "},"Ý":{"ha":1379,"x_min":38,"x_max":1388,"o":"m 1010 1350 q 717 1116 719 1116 q 598 1143 707 1116 q 695 1296 633 1202 q 777 1417 757 1390 q 1010 1350 859 1395 m 906 979 q 1153 981 918 981 q 1388 978 1388 981 q 1383 966 1388 975 l 1373 949 l 948 380 l 930 5 l 836 1 l 452 -7 q 445 348 445 39 l 38 977 l 537 989 l 722 713 l 906 979 z "},"Þ":{"ha":1438,"x_min":153,"x_max":1350,"o":"m 587 -211 q 347 -230 485 -221 q 162 -239 208 -239 l 155 -239 q 153 -157 153 -160 l 191 962 l 554 977 q 615 986 587 986 q 642 963 644 986 l 627 762 q 857 779 739 779 q 1074 751 975 779 q 1232 673 1172 723 q 1350 415 1350 573 q 1227 156 1350 258 q 597 -7 1032 -7 l 587 -211 m 922 400 q 922 437 922 400 q 864 519 922 474 q 624 564 806 564 l 607 184 q 888 280 822 190 q 922 400 922 326 z "},"ß":{"ha":1438,"x_min":82,"x_max":1362,"o":"m 639 -76 l 583 128 q 768 193 706 149 q 831 287 831 236 q 773 376 831 337 q 619 421 715 414 l 619 549 q 799 610 739 568 q 860 690 860 652 q 830 751 860 729 q 763 772 800 772 q 698 767 726 772 q 639 749 670 762 q 585 711 608 736 q 559 650 563 685 l 505 174 l 486 -18 l 113 9 l 82 15 l 99 229 q 154 629 120 509 q 232 803 189 749 q 377 921 304 890 q 603 982 492 970 q 825 994 714 994 q 1045 969 936 994 q 1218 887 1154 944 q 1283 751 1283 831 q 1242 634 1283 693 q 1094 545 1202 576 q 1289 461 1215 526 q 1362 312 1362 395 q 1303 155 1362 228 q 1144 35 1244 83 q 639 -76 937 -65 z "},"à":{"ha":1226,"x_min":81,"x_max":1133,"o":"m 330 1091 q 566 1166 565 1166 l 568 1166 l 717 882 l 613 844 l 330 1091 m 835 131 q 710 18 792 62 q 529 -25 628 -25 q 356 -4 430 -25 q 219 57 282 16 q 119 167 157 98 q 81 328 81 236 q 115 497 81 420 q 208 624 149 575 q 498 726 327 726 q 692 696 617 726 q 825 589 768 666 l 827 733 l 1133 707 l 1131 16 l 876 -3 l 835 131 m 517 447 q 498 424 517 447 q 478 337 478 401 q 517 228 478 274 q 627 181 555 181 q 739 222 699 181 q 779 335 779 263 q 739 450 779 407 q 628 492 699 492 q 517 447 557 492 z "},"á":{"ha":1226,"x_min":81,"x_max":1133,"o":"m 918 1079 q 625 845 627 845 q 506 872 615 845 q 603 1025 541 931 q 684 1145 665 1118 q 918 1079 766 1124 m 835 131 q 710 18 792 62 q 529 -25 628 -25 q 356 -4 430 -25 q 219 57 282 16 q 119 167 157 98 q 81 328 81 236 q 115 497 81 420 q 208 624 149 575 q 498 726 327 726 q 692 696 617 726 q 825 589 768 666 l 827 733 l 1133 707 l 1131 16 l 876 -3 l 835 131 m 517 447 q 498 424 517 447 q 478 337 478 401 q 517 228 478 274 q 627 181 555 181 q 739 222 699 181 q 779 335 779 263 q 739 450 779 407 q 628 492 699 492 q 517 447 557 492 z "},"â":{"ha":1226,"x_min":81,"x_max":1133,"o":"m 360 930 l 360 939 q 403 989 360 942 q 604 1221 446 1037 q 609 1224 607 1224 q 613 1223 612 1224 l 713 1223 q 803 1089 715 1223 q 891 948 891 955 q 889 939 891 941 l 889 937 q 852 904 889 927 q 775 862 814 881 q 728 843 735 843 l 642 1023 q 506 846 509 850 l 506 844 q 478 853 493 844 q 412 889 463 863 q 360 930 360 916 m 835 131 q 710 18 792 62 q 529 -25 628 -25 q 356 -4 430 -25 q 219 57 282 16 q 119 167 157 98 q 81 328 81 236 q 115 497 81 420 q 208 624 149 575 q 498 726 327 726 q 692 696 617 726 q 825 589 768 666 l 827 733 l 1133 707 l 1131 16 l 876 -3 l 835 131 m 517 447 q 498 424 517 447 q 478 337 478 401 q 517 228 478 274 q 627 181 555 181 q 739 222 699 181 q 779 335 779 263 q 739 450 779 407 q 628 492 699 492 q 517 447 557 492 z "},"ã":{"ha":1226,"x_min":81,"x_max":1133,"o":"m 498 972 q 445 897 445 972 l 289 891 q 356 1096 289 1017 q 521 1176 423 1176 q 624 1161 585 1176 q 694 1102 663 1146 q 746 1059 725 1059 q 780 1067 768 1059 q 797 1104 792 1076 q 809 1131 802 1131 l 965 1124 q 899 935 965 1023 q 823 869 869 895 q 727 844 777 844 q 635 865 676 844 q 553 947 593 887 q 498 972 536 972 m 835 131 q 710 18 792 62 q 529 -25 628 -25 q 356 -4 430 -25 q 219 57 282 16 q 119 167 157 98 q 81 328 81 236 q 115 497 81 420 q 208 624 149 575 q 498 726 327 726 q 692 696 617 726 q 825 589 768 666 l 827 733 l 1133 707 l 1131 16 l 876 -3 l 835 131 m 517 447 q 498 424 517 447 q 478 337 478 401 q 517 228 478 274 q 627 181 555 181 q 739 222 699 181 q 779 335 779 263 q 739 450 779 407 q 628 492 699 492 q 517 447 557 492 z "},"ä":{"ha":1226,"x_min":81,"x_max":1133,"o":"m 966 844 l 708 844 l 713 1086 l 966 1086 l 966 844 m 282 844 q 279 848 279 844 l 288 1086 l 541 1088 l 538 845 l 282 844 m 835 131 q 710 18 792 62 q 529 -25 628 -25 q 356 -4 430 -25 q 219 57 282 16 q 119 167 157 98 q 81 328 81 236 q 115 497 81 420 q 208 624 149 575 q 498 726 327 726 q 692 696 617 726 q 825 589 768 666 l 827 733 l 1133 707 l 1131 16 l 876 -3 l 835 131 m 517 447 q 498 424 517 447 q 478 337 478 401 q 517 228 478 274 q 627 181 555 181 q 739 222 699 181 q 779 335 779 263 q 739 450 779 407 q 628 492 699 492 q 517 447 557 492 z "},"å":{"ha":1226,"x_min":81,"x_max":1133,"o":"m 697 1034 q 634 1116 698 1116 q 576 1088 599 1116 q 553 1025 553 1060 q 614 943 553 943 q 675 971 654 943 q 697 1034 697 999 m 819 1041 q 819 1002 819 1041 q 765 904 819 964 q 628 844 711 844 q 490 892 544 844 q 437 1021 437 941 q 495 1157 437 1101 q 635 1213 554 1213 q 767 1166 715 1213 q 819 1041 819 1118 m 835 131 q 710 18 792 62 q 529 -25 628 -25 q 356 -4 430 -25 q 219 57 282 16 q 119 167 157 98 q 81 328 81 236 q 115 497 81 420 q 208 624 149 575 q 498 726 327 726 q 692 696 617 726 q 825 589 768 666 l 827 733 l 1133 707 l 1131 16 l 876 -3 l 835 131 m 517 447 q 498 424 517 447 q 478 337 478 401 q 517 228 478 274 q 627 181 555 181 q 739 222 699 181 q 779 335 779 263 q 739 450 779 407 q 628 492 699 492 q 517 447 557 492 z "},"æ":{"ha":1771,"x_min":123,"x_max":1683,"o":"m 1138 424 l 1383 424 q 1350 513 1379 487 q 1266 540 1321 540 q 1178 507 1211 540 q 1138 424 1145 474 m 685 300 q 547 274 595 300 q 498 215 498 249 q 524 161 498 180 q 593 142 549 142 q 807 219 694 142 q 783 298 789 257 q 685 300 714 300 m 757 422 q 551 526 721 526 q 220 455 415 526 l 191 455 l 142 637 q 336 699 214 672 q 571 726 458 726 q 786 697 685 726 q 934 613 888 669 q 1080 697 987 669 q 1242 726 1174 726 q 1634 566 1521 726 q 1683 398 1683 498 l 1679 299 l 1129 299 q 1212 203 1148 237 q 1384 168 1276 168 q 1632 229 1492 168 l 1669 229 l 1663 56 q 1513 -1 1622 24 q 1285 -25 1405 -25 q 1063 6 1166 -25 q 892 98 961 38 q 708 1 810 27 q 458 -25 606 -25 q 216 27 310 -25 q 123 188 123 79 q 236 359 123 296 q 554 422 349 422 l 757 422 z "},"ç":{"ha":1111,"x_min":81,"x_max":1009,"o":"m 772 -107 q 903 -249 903 -107 q 849 -372 903 -330 q 711 -415 795 -415 q 557 -366 627 -415 l 585 -269 q 684 -305 645 -305 q 742 -287 724 -305 q 760 -247 760 -269 q 713 -196 760 -203 l 605 -182 l 648 -13 l 769 -13 l 736 -109 q 772 -107 755 -107 m 807 487 q 503 353 503 487 q 564 242 503 281 q 742 203 625 203 q 972 222 860 203 l 977 9 q 696 -25 848 -25 q 441 -2 544 -25 q 279 50 338 22 q 176 117 221 79 q 81 334 80 198 q 114 486 81 418 q 327 668 175 610 q 662 726 479 726 q 1009 685 845 726 l 992 467 q 807 487 888 487 z "},"è":{"ha":1109,"x_min":77,"x_max":1010,"o":"m 263 1084 q 498 1158 498 1158 l 500 1158 l 650 874 l 546 837 l 263 1084 m 711 425 q 681 515 710 488 q 597 541 652 541 q 508 508 542 541 q 466 426 474 475 l 711 425 m 977 56 q 827 0 935 24 q 617 -24 719 -24 q 446 -15 516 -24 q 306 19 375 -5 q 188 82 237 44 q 108 182 138 121 q 77 329 77 243 q 109 487 77 415 q 189 603 140 559 q 588 726 327 726 q 824 678 712 726 q 983 532 936 629 q 1010 410 1010 477 l 1002 298 l 452 301 q 531 204 469 239 q 703 169 594 169 q 953 228 811 169 l 989 228 l 977 56 z "},"é":{"ha":1109,"x_min":77,"x_max":1010,"o":"m 850 1072 q 557 838 559 838 q 439 865 548 838 q 536 1017 474 924 q 617 1138 597 1111 q 850 1072 699 1116 m 711 425 q 681 515 710 488 q 597 541 652 541 q 508 508 542 541 q 466 426 474 475 l 711 425 m 977 56 q 827 0 935 24 q 617 -24 719 -24 q 446 -15 516 -24 q 306 19 375 -5 q 188 82 237 44 q 108 182 138 121 q 77 329 77 243 q 109 487 77 415 q 189 603 140 559 q 588 726 327 726 q 824 678 712 726 q 983 532 936 629 q 1010 410 1010 477 l 1002 298 l 452 301 q 531 204 469 239 q 703 169 594 169 q 953 228 811 169 l 989 228 l 977 56 z "},"ê":{"ha":1109,"x_min":77,"x_max":1010,"o":"m 293 922 l 293 931 q 336 982 293 935 q 536 1213 379 1029 q 542 1217 540 1217 q 546 1215 545 1217 l 646 1215 q 736 1081 648 1215 q 824 941 824 947 q 822 931 824 934 l 822 930 q 785 897 822 920 q 708 854 747 873 q 661 836 668 836 l 574 1015 q 439 839 441 843 l 439 837 q 411 846 426 837 q 345 882 396 855 q 293 922 293 909 m 711 425 q 681 515 710 488 q 597 541 652 541 q 508 508 542 541 q 466 426 474 475 l 711 425 m 977 56 q 827 0 935 24 q 617 -24 719 -24 q 446 -15 516 -24 q 306 19 375 -5 q 188 82 237 44 q 108 182 138 121 q 77 329 77 243 q 109 487 77 415 q 189 603 140 559 q 588 726 327 726 q 824 678 712 726 q 983 532 936 629 q 1010 410 1010 477 l 1002 298 l 452 301 q 531 204 469 239 q 703 169 594 169 q 953 228 811 169 l 989 228 l 977 56 z "},"ë":{"ha":1109,"x_min":77,"x_max":1010,"o":"m 899 837 l 641 837 l 646 1079 l 899 1079 l 899 837 m 215 836 q 212 841 212 836 l 221 1079 l 474 1080 l 471 838 l 215 836 m 711 425 q 681 515 710 488 q 597 541 652 541 q 508 508 542 541 q 466 426 474 475 l 711 425 m 977 56 q 827 0 935 24 q 617 -24 719 -24 q 446 -15 516 -24 q 306 19 375 -5 q 188 82 237 44 q 108 182 138 121 q 77 329 77 243 q 109 487 77 415 q 189 603 140 559 q 588 726 327 726 q 824 678 712 726 q 983 532 936 629 q 1010 410 1010 477 l 1002 298 l 452 301 q 531 204 469 239 q 703 169 594 169 q 953 228 811 169 l 989 228 l 977 56 z "},"ì":{"ha":640,"x_min":37,"x_max":528,"o":"m 37 1084 q 273 1158 272 1158 l 275 1158 l 424 874 l 320 837 l 37 1084 m 139 692 q 347 699 250 699 q 528 694 444 699 l 500 1 q 374 -1 462 -1 q 106 3 286 -1 q 111 116 106 18 q 123 406 115 214 q 139 692 130 598 z "},"í":{"ha":640,"x_min":106,"x_max":624,"o":"m 624 1072 q 331 838 333 838 q 212 865 321 838 q 309 1017 248 924 q 391 1138 371 1111 q 624 1072 473 1116 m 139 692 q 347 699 250 699 q 528 694 444 699 l 500 1 q 374 -1 462 -1 q 106 3 286 -1 q 111 116 106 18 q 123 406 115 214 q 139 692 130 598 z "},"î":{"ha":640,"x_min":66,"x_max":597,"o":"m 66 922 l 66 931 q 109 982 66 935 q 310 1213 153 1029 q 316 1217 313 1217 q 319 1215 318 1217 l 420 1215 q 509 1081 421 1215 q 597 941 597 947 q 595 931 597 934 l 595 930 q 558 897 595 920 q 481 854 521 873 q 434 836 441 836 l 348 1015 q 212 839 215 843 l 212 837 q 184 846 199 837 q 118 882 170 855 q 66 922 66 909 m 139 692 q 347 699 250 699 q 528 694 444 699 l 500 1 q 374 -1 462 -1 q 106 3 286 -1 q 111 116 106 18 q 123 406 115 214 q 139 692 130 598 z "},"ï":{"ha":640,"x_min":-14,"x_max":673,"o":"m 673 837 l 415 837 l 420 1079 l 673 1079 l 673 837 m -11 836 q -14 841 -14 836 l -5 1079 l 248 1080 l 245 838 l -11 836 m 139 692 q 347 699 250 699 q 528 694 444 699 l 500 1 q 374 -1 462 -1 q 106 3 286 -1 q 111 116 106 18 q 123 406 115 214 q 139 692 130 598 z "},"ð":{"ha":1240,"x_min":69,"x_max":1160,"o":"m 653 545 q 471 368 471 545 q 522 232 471 283 q 641 180 572 180 q 748 217 709 180 q 787 332 787 254 q 720 533 787 410 q 653 545 677 545 m 530 1160 q 690 1052 643 1095 l 897 1097 l 998 997 l 799 951 q 1077 649 994 785 q 1160 373 1160 513 q 1020 74 1160 182 q 602 -35 880 -35 q 142 142 274 -35 q 69 372 69 242 q 107 520 69 452 q 212 635 146 589 q 557 734 351 734 q 649 728 599 734 q 594 809 627 766 q 537 869 562 852 l 365 821 l 268 926 q 269 928 268 928 l 449 977 q 367 1062 430 1004 q 302 1120 304 1119 q 432 1145 349 1131 q 528 1160 515 1160 l 530 1160 z "},"ñ":{"ha":1305,"x_min":89,"x_max":1225,"o":"m 549 964 q 496 890 496 964 l 340 884 q 407 1089 340 1009 q 572 1168 474 1168 q 675 1154 636 1168 q 745 1095 713 1139 q 797 1051 776 1051 q 831 1060 819 1051 q 848 1096 843 1069 q 860 1124 853 1124 l 1016 1117 q 950 928 1016 1015 q 874 862 920 887 q 778 836 828 836 q 686 858 727 836 q 604 939 644 880 q 549 964 587 964 m 775 434 q 685 481 736 481 q 518 368 553 481 q 497 205 497 299 l 494 0 l 89 -7 q 108 650 90 65 l 335 698 l 408 558 q 574 686 467 646 q 802 726 681 726 q 1076 660 966 726 q 1225 366 1225 570 q 1221 221 1225 339 q 1213 -2 1216 102 l 809 -5 l 813 318 q 775 434 813 388 z "},"ò":{"ha":1221,"x_min":77,"x_max":1144,"o":"m 331 1084 q 566 1158 566 1158 l 568 1158 l 718 874 l 614 837 l 331 1084 m 613 160 q 735 214 694 160 q 777 348 777 267 q 733 476 777 429 q 610 524 688 524 q 493 469 532 524 q 453 339 453 414 q 613 160 453 160 m 77 334 q 648 726 77 726 q 1001 629 861 726 q 1106 513 1069 583 q 1144 366 1144 444 q 1007 68 1144 161 q 602 -25 869 -25 q 77 334 77 -25 z "},"ó":{"ha":1221,"x_min":77,"x_max":1144,"o":"m 918 1072 q 625 838 627 838 q 506 865 615 838 q 603 1017 541 924 q 684 1138 665 1111 q 918 1072 766 1116 m 613 160 q 735 214 694 160 q 777 348 777 267 q 733 476 777 429 q 610 524 688 524 q 493 469 532 524 q 453 339 453 414 q 613 160 453 160 m 77 334 q 648 726 77 726 q 1001 629 861 726 q 1106 513 1069 583 q 1144 366 1144 444 q 1007 68 1144 161 q 602 -25 869 -25 q 77 334 77 -25 z "},"ô":{"ha":1221,"x_min":77,"x_max":1144,"o":"m 360 922 l 360 931 q 403 982 360 935 q 604 1213 446 1029 q 609 1217 607 1217 q 613 1215 612 1217 l 713 1215 q 803 1081 715 1215 q 891 941 891 947 q 889 931 891 934 l 889 930 q 852 897 889 920 q 775 854 814 873 q 728 836 735 836 l 642 1015 q 506 839 509 843 l 506 837 q 478 846 493 837 q 412 882 463 855 q 360 922 360 909 m 613 160 q 735 214 694 160 q 777 348 777 267 q 733 476 777 429 q 610 524 688 524 q 493 469 532 524 q 453 339 453 414 q 613 160 453 160 m 77 334 q 648 726 77 726 q 1001 629 861 726 q 1106 513 1069 583 q 1144 366 1144 444 q 1007 68 1144 161 q 602 -25 869 -25 q 77 334 77 -25 z "},"õ":{"ha":1221,"x_min":77,"x_max":1144,"o":"m 498 964 q 445 890 445 964 l 289 884 q 356 1089 289 1009 q 521 1168 423 1168 q 624 1154 585 1168 q 694 1095 663 1139 q 746 1051 725 1051 q 780 1060 768 1051 q 797 1096 792 1069 q 809 1124 802 1124 l 965 1117 q 899 928 965 1015 q 823 862 869 887 q 727 836 777 836 q 635 858 676 836 q 553 939 593 880 q 498 964 536 964 m 613 160 q 735 214 694 160 q 777 348 777 267 q 733 476 777 429 q 610 524 688 524 q 493 469 532 524 q 453 339 453 414 q 613 160 453 160 m 77 334 q 648 726 77 726 q 1001 629 861 726 q 1106 513 1069 583 q 1144 366 1144 444 q 1007 68 1144 161 q 602 -25 869 -25 q 77 334 77 -25 z "},"ö":{"ha":1221,"x_min":77,"x_max":1144,"o":"m 966 837 l 709 837 l 714 1079 l 966 1079 l 966 837 m 283 836 q 280 841 280 836 l 289 1079 l 542 1080 l 538 838 l 283 836 m 613 160 q 735 214 694 160 q 777 348 777 267 q 733 476 777 429 q 610 524 688 524 q 493 469 532 524 q 453 339 453 414 q 613 160 453 160 m 77 334 q 648 726 77 726 q 1001 629 861 726 q 1106 513 1069 583 q 1144 366 1144 444 q 1007 68 1144 161 q 602 -25 869 -25 q 77 334 77 -25 z "},"÷":{"ha":924,"x_min":65,"x_max":904,"o":"m 79 545 l 904 547 l 903 359 l 65 357 l 79 545 m 370 -53 l 370 -26 l 380 222 l 662 222 l 648 -52 l 370 -53 m 653 630 q 404 628 423 628 q 384 633 384 628 l 394 900 l 675 900 l 653 630 z "},"ø":{"ha":1221,"x_min":77,"x_max":1144,"o":"m 932 813 l 381 -170 l 304 -118 l 845 850 q 889 832 847 850 q 932 813 932 814 m 613 160 q 735 214 694 160 q 777 348 777 267 q 733 476 777 429 q 610 524 688 524 q 493 469 532 524 q 453 339 453 414 q 613 160 453 160 m 77 334 q 648 726 77 726 q 1001 629 861 726 q 1106 513 1069 583 q 1144 366 1144 444 q 1007 68 1144 161 q 602 -25 869 -25 q 77 334 77 -25 z "},"ù":{"ha":1301,"x_min":80,"x_max":1201,"o":"m 357 1084 q 593 1158 592 1158 l 595 1158 l 744 874 l 640 837 l 357 1084 m 488 344 q 634 166 488 166 q 753 218 713 165 q 792 296 783 258 q 814 574 814 391 l 814 683 q 1200 692 899 686 q 1201 637 1201 656 l 1167 20 l 954 -12 q 888 129 909 78 q 719 14 821 53 q 506 -25 617 -25 q 145 96 262 -24 q 80 276 80 163 q 87 516 80 389 q 96 674 95 643 q 222 680 119 676 q 372 686 326 683 l 505 694 q 488 344 488 381 z "},"ú":{"ha":1301,"x_min":80,"x_max":1201,"o":"m 944 1072 q 651 838 653 838 q 532 865 642 838 q 629 1017 568 924 q 711 1138 691 1111 q 944 1072 793 1116 m 488 344 q 634 166 488 166 q 753 218 713 165 q 792 296 783 258 q 814 574 814 391 l 814 683 q 1200 692 899 686 q 1201 637 1201 656 l 1167 20 l 954 -12 q 888 129 909 78 q 719 14 821 53 q 506 -25 617 -25 q 145 96 262 -24 q 80 276 80 163 q 87 516 80 389 q 96 674 95 643 q 222 680 119 676 q 372 686 326 683 l 505 694 q 488 344 488 381 z "},"û":{"ha":1301,"x_min":80,"x_max":1201,"o":"m 387 922 l 387 931 q 429 982 387 935 q 630 1213 473 1029 q 636 1217 633 1217 q 640 1215 638 1217 l 740 1215 q 829 1081 741 1215 q 918 941 918 947 q 916 931 918 934 l 916 930 q 878 897 916 920 q 801 854 841 873 q 754 836 762 836 l 668 1015 q 532 839 535 843 l 532 837 q 505 846 519 837 q 438 882 490 855 q 387 922 387 909 m 488 344 q 634 166 488 166 q 753 218 713 165 q 792 296 783 258 q 814 574 814 391 l 814 683 q 1200 692 899 686 q 1201 637 1201 656 l 1167 20 l 954 -12 q 888 129 909 78 q 719 14 821 53 q 506 -25 617 -25 q 145 96 262 -24 q 80 276 80 163 q 87 516 80 389 q 96 674 95 643 q 222 680 119 676 q 372 686 326 683 l 505 694 q 488 344 488 381 z "},"ü":{"ha":1301,"x_min":80,"x_max":1201,"o":"m 993 837 l 735 837 l 741 1079 l 993 1079 l 993 837 m 309 836 q 307 841 307 836 l 315 1079 l 568 1080 l 565 838 l 309 836 m 488 344 q 634 166 488 166 q 753 218 713 165 q 792 296 783 258 q 814 574 814 391 l 814 683 q 1200 692 899 686 q 1201 637 1201 656 l 1167 20 l 954 -12 q 888 129 909 78 q 719 14 821 53 q 506 -25 617 -25 q 145 96 262 -24 q 80 276 80 163 q 87 516 80 389 q 96 674 95 643 q 222 680 119 676 q 372 686 326 683 l 505 694 q 488 344 488 381 z "},"ý":{"ha":1158,"x_min":48,"x_max":1135,"o":"m 890 1072 q 597 838 599 838 q 478 865 587 838 q 575 1017 513 924 q 656 1138 637 1111 q 890 1072 739 1116 m 451 -98 l 394 5 q 201 379 337 107 q 48 678 64 651 l 444 695 l 635 254 q 706 469 648 288 q 783 694 765 649 q 829 696 808 696 q 1135 685 829 696 q 932 213 1063 514 q 780 -127 800 -90 q 663 -297 729 -227 q 267 -450 519 -450 l 150 -260 q 271 -229 191 -260 q 451 -98 425 -168 z "},"þ":{"ha":1297,"x_min":87,"x_max":1223,"o":"m 469 -211 q 96 -239 185 -239 l 90 -239 q 87 -157 87 -160 l 131 887 l 147 908 q 261 941 147 912 q 404 978 375 970 q 461 986 433 986 q 488 963 489 986 l 484 645 q 808 726 604 726 q 1019 681 924 726 q 1168 557 1114 636 q 1223 385 1223 477 q 1184 215 1223 292 q 1082 87 1146 139 q 933 6 1018 35 q 764 -23 849 -23 q 478 49 593 -23 l 478 44 q 473 -52 478 43 q 469 -211 469 -146 m 669 509 q 494 378 515 509 q 488 305 488 347 q 531 191 488 223 q 650 158 574 158 q 774 218 726 158 q 822 352 822 277 q 779 468 822 427 q 669 509 736 509 z "},"ÿ":{"ha":1158,"x_min":48,"x_max":1135,"o":"m 938 837 l 680 837 l 686 1079 l 938 1079 l 938 837 m 254 836 q 252 841 252 836 l 260 1079 l 513 1080 l 510 838 l 254 836 m 451 -98 l 394 5 q 201 379 337 107 q 48 678 64 651 l 444 695 l 635 254 q 706 469 648 288 q 783 694 765 649 q 829 696 808 696 q 1135 685 829 696 q 932 213 1063 514 q 780 -127 800 -90 q 663 -297 729 -227 q 267 -450 519 -450 l 150 -260 q 271 -229 191 -260 q 451 -98 425 -168 z "},"Ā":{"ha":1544,"x_min":48,"x_max":1495,"o":"m 513 1322 l 1099 1335 q 1089 1150 1097 1293 l 1088 1127 q 591 1116 892 1121 l 505 1115 l 513 1322 m 831 366 q 734 692 758 604 q 659 477 696 573 q 616 366 622 380 l 831 366 m 515 117 l 464 -10 q 395 -15 429 -15 q 48 0 361 -15 q 482 970 126 163 q 673 978 525 971 q 931 984 821 984 q 1082 970 1041 984 q 1438 139 1086 957 l 1495 6 q 1056 -20 1064 -20 q 968 -16 1047 -20 q 916 112 937 39 q 515 117 872 117 z "},"ā":{"ha":1226,"x_min":81,"x_max":1133,"o":"m 337 1051 l 922 1063 q 913 879 921 1022 l 911 856 q 415 845 715 850 l 329 844 l 337 1051 m 835 131 q 710 18 792 62 q 529 -25 628 -25 q 356 -4 430 -25 q 219 57 282 16 q 119 167 157 98 q 81 328 81 236 q 115 497 81 420 q 208 624 149 575 q 498 726 327 726 q 692 696 617 726 q 825 589 768 666 l 827 733 l 1133 707 l 1131 16 l 876 -3 l 835 131 m 517 447 q 498 424 517 447 q 478 337 478 401 q 517 228 478 274 q 627 181 555 181 q 739 222 699 181 q 779 335 779 263 q 739 450 779 407 q 628 492 699 492 q 517 447 557 492 z "},"Ă":{"ha":1544,"x_min":48,"x_max":1495,"o":"m 722 1328 l 720 1307 q 739 1262 720 1282 q 802 1242 758 1242 q 866 1262 845 1242 q 888 1326 888 1282 l 1029 1328 q 963 1169 1029 1223 q 799 1115 896 1115 q 640 1161 701 1115 q 579 1280 579 1208 q 586 1328 579 1303 l 722 1328 m 831 366 q 734 692 758 604 q 659 477 696 573 q 616 366 622 380 l 831 366 m 515 117 l 464 -10 q 395 -15 429 -15 q 48 0 361 -15 q 482 970 126 163 q 673 978 525 971 q 931 984 821 984 q 1082 970 1041 984 q 1438 139 1086 957 l 1495 6 q 1056 -20 1064 -20 q 968 -16 1047 -20 q 916 112 937 39 q 515 117 872 117 z "},"ă":{"ha":1226,"x_min":81,"x_max":1133,"o":"m 545 1057 l 543 1036 q 562 991 543 1010 q 625 971 581 971 q 689 991 668 971 q 711 1055 711 1011 l 852 1057 q 786 898 852 952 q 622 844 719 844 q 463 890 524 844 q 402 1008 402 937 q 409 1057 402 1032 l 545 1057 m 835 131 q 710 18 792 62 q 529 -25 628 -25 q 356 -4 430 -25 q 219 57 282 16 q 119 167 157 98 q 81 328 81 236 q 115 497 81 420 q 208 624 149 575 q 498 726 327 726 q 692 696 617 726 q 825 589 768 666 l 827 733 l 1133 707 l 1131 16 l 876 -3 l 835 131 m 517 447 q 498 424 517 447 q 478 337 478 401 q 517 228 478 274 q 627 181 555 181 q 739 222 699 181 q 779 335 779 263 q 739 450 779 407 q 628 492 699 492 q 517 447 557 492 z "},"Ą":{"ha":1544,"x_min":48,"x_max":1495,"o":"m 1185 -228 q 1238 -89 1190 -153 q 1357 22 1286 -26 l 1478 22 q 1422 -59 1453 -4 q 1391 -159 1391 -113 q 1487 -245 1391 -232 l 1473 -349 q 1356 -365 1422 -365 q 1237 -331 1290 -365 q 1185 -228 1185 -296 m 831 366 q 734 692 758 604 q 659 477 696 573 q 616 366 622 380 l 831 366 m 515 117 l 464 -10 q 395 -15 429 -15 q 48 0 361 -15 q 482 970 126 163 q 673 978 525 971 q 931 984 821 984 q 1082 970 1041 984 q 1438 139 1086 957 l 1495 6 q 1056 -20 1064 -20 q 968 -16 1047 -20 q 916 112 937 39 q 515 117 872 117 z "},"ą":{"ha":1226,"x_min":81,"x_max":1133,"o":"m 817 -235 q 870 -97 822 -160 q 989 15 918 -33 l 1110 15 q 1054 -66 1084 -12 q 1023 -166 1023 -121 q 1118 -253 1023 -239 l 1105 -357 q 988 -372 1054 -372 q 869 -338 922 -372 q 817 -235 817 -304 m 835 131 q 710 18 792 62 q 529 -25 628 -25 q 356 -4 430 -25 q 219 57 282 16 q 119 167 157 98 q 81 328 81 236 q 115 497 81 420 q 208 624 149 575 q 498 726 327 726 q 692 696 617 726 q 825 589 768 666 l 827 733 l 1133 707 l 1131 16 l 876 -3 l 835 131 m 517 447 q 498 424 517 447 q 478 337 478 401 q 517 228 478 274 q 627 181 555 181 q 739 222 699 181 q 779 335 779 263 q 739 450 779 407 q 628 492 699 492 q 517 447 557 492 z "},"Ć":{"ha":1181,"x_min":90,"x_max":1042,"o":"m 1009 1350 q 716 1116 718 1116 q 597 1143 707 1116 q 694 1296 633 1202 q 776 1417 756 1390 q 1009 1350 858 1395 m 90 477 q 279 847 90 716 q 911 1004 505 1004 q 1042 998 981 1004 l 1042 676 q 849 688 953 688 q 679 639 746 688 q 612 481 612 589 q 856 254 612 254 q 1042 277 918 254 l 1042 -20 q 853 -31 949 -31 q 172 208 355 -31 q 90 477 90 314 z "},"ć":{"ha":1111,"x_min":81,"x_max":1009,"o":"m 848 1072 q 555 838 557 838 q 436 865 545 838 q 533 1017 471 924 q 614 1138 595 1111 q 848 1072 696 1116 m 807 487 q 503 353 503 487 q 564 242 503 281 q 742 203 625 203 q 972 222 860 203 l 977 9 q 696 -25 848 -25 q 441 -2 544 -25 q 279 50 338 22 q 176 117 221 79 q 81 334 80 198 q 114 486 81 418 q 327 668 175 610 q 662 726 479 726 q 1009 685 845 726 l 992 467 q 807 487 888 487 z "},"Ĉ":{"ha":1181,"x_min":90,"x_max":1042,"o":"m 458 1201 l 458 1210 q 500 1261 458 1213 q 701 1492 544 1308 q 707 1495 705 1495 q 711 1494 709 1495 l 811 1494 q 901 1360 812 1494 q 989 1219 989 1226 q 987 1210 989 1213 l 987 1208 q 949 1175 987 1198 q 872 1133 912 1152 q 825 1114 833 1114 l 739 1294 q 604 1118 606 1122 l 604 1116 q 576 1125 591 1116 q 509 1161 561 1134 q 458 1201 458 1187 m 90 477 q 279 847 90 716 q 911 1004 505 1004 q 1042 998 981 1004 l 1042 676 q 849 688 953 688 q 679 639 746 688 q 612 481 612 589 q 856 254 612 254 q 1042 277 918 254 l 1042 -20 q 853 -31 949 -31 q 172 208 355 -31 q 90 477 90 314 z "},"ĉ":{"ha":1111,"x_min":81,"x_max":1009,"o":"m 368 922 l 368 931 q 410 982 368 935 q 611 1213 454 1029 q 617 1217 614 1217 q 621 1215 619 1217 l 721 1215 q 810 1081 722 1215 q 899 941 899 947 q 897 931 899 934 l 897 930 q 859 897 897 920 q 782 854 822 873 q 735 836 743 836 l 649 1015 q 513 839 516 843 l 513 837 q 486 846 500 837 q 419 882 471 855 q 368 922 368 909 m 807 487 q 503 353 503 487 q 564 242 503 281 q 742 203 625 203 q 972 222 860 203 l 977 9 q 696 -25 848 -25 q 441 -2 544 -25 q 279 50 338 22 q 176 117 221 79 q 81 334 80 198 q 114 486 81 418 q 327 668 175 610 q 662 726 479 726 q 1009 685 845 726 l 992 467 q 807 487 888 487 z "},"Ċ":{"ha":1181,"x_min":90,"x_max":1042,"o":"m 574 1120 l 574 1122 q 588 1376 584 1366 q 604 1385 592 1385 q 851 1387 698 1385 q 865 1371 867 1387 l 846 1158 q 838 1122 843 1126 q 826 1117 833 1118 q 581 1115 755 1115 q 574 1120 574 1115 m 90 477 q 279 847 90 716 q 911 1004 505 1004 q 1042 998 981 1004 l 1042 676 q 849 688 953 688 q 679 639 746 688 q 612 481 612 589 q 856 254 612 254 q 1042 277 918 254 l 1042 -20 q 853 -31 949 -31 q 172 208 355 -31 q 90 477 90 314 z "},"ċ":{"ha":1111,"x_min":81,"x_max":1009,"o":"m 516 841 l 516 844 q 530 1097 526 1087 q 546 1107 534 1107 q 793 1108 640 1107 q 808 1092 809 1108 l 789 879 q 781 843 785 847 q 768 838 776 839 q 524 836 698 836 q 516 841 516 836 m 807 487 q 503 353 503 487 q 564 242 503 281 q 742 203 625 203 q 972 222 860 203 l 977 9 q 696 -25 848 -25 q 441 -2 544 -25 q 279 50 338 22 q 176 117 221 79 q 81 334 80 198 q 114 486 81 418 q 327 668 175 610 q 662 726 479 726 q 1009 685 845 726 l 992 467 q 807 487 888 487 z "},"Č":{"ha":1181,"x_min":90,"x_max":1042,"o":"m 471 1408 l 473 1417 q 550 1474 473 1433 q 643 1516 628 1516 q 652 1499 644 1516 l 735 1327 q 879 1514 876 1510 l 879 1516 q 908 1506 892 1516 q 978 1468 924 1497 q 1033 1426 1033 1438 l 1033 1416 q 984 1357 1033 1412 q 775 1118 935 1303 q 769 1115 772 1115 l 659 1115 q 564 1254 657 1116 q 471 1408 471 1393 m 90 477 q 279 847 90 716 q 911 1004 505 1004 q 1042 998 981 1004 l 1042 676 q 849 688 953 688 q 679 639 746 688 q 612 481 612 589 q 856 254 612 254 q 1042 277 918 254 l 1042 -20 q 853 -31 949 -31 q 172 208 355 -31 q 90 477 90 314 z "},"č":{"ha":1111,"x_min":81,"x_max":1009,"o":"m 381 1130 l 383 1139 q 461 1196 383 1155 q 553 1238 538 1238 q 563 1221 555 1238 l 646 1049 q 789 1236 787 1232 l 789 1238 q 819 1228 803 1238 q 889 1190 834 1219 q 943 1147 943 1160 l 943 1138 q 894 1079 943 1134 q 686 840 845 1025 q 680 837 683 837 l 569 837 q 474 976 568 838 q 381 1130 381 1115 m 807 487 q 503 353 503 487 q 564 242 503 281 q 742 203 625 203 q 972 222 860 203 l 977 9 q 696 -25 848 -25 q 441 -2 544 -25 q 279 50 338 22 q 176 117 221 79 q 81 334 80 198 q 114 486 81 418 q 327 668 175 610 q 662 726 479 726 q 1009 685 845 726 l 992 467 q 807 487 888 487 z "},"Ď":{"ha":1573,"x_min":104,"x_max":1484,"o":"m 541 1409 l 543 1418 q 621 1475 543 1434 q 713 1516 699 1516 q 723 1500 715 1516 l 806 1328 q 949 1514 947 1510 l 949 1516 q 979 1507 963 1516 q 1049 1468 994 1497 q 1103 1426 1103 1439 l 1103 1417 q 1054 1358 1103 1413 q 846 1118 1005 1303 q 840 1116 843 1116 l 729 1116 q 634 1255 728 1116 q 541 1409 541 1394 m 648 722 l 625 244 q 876 275 804 246 q 1010 487 1010 327 q 943 673 1010 619 q 795 727 875 727 q 648 722 743 727 m 104 -15 q 143 365 117 65 q 181 956 170 664 q 873 991 603 991 q 1369 834 1208 991 q 1484 531 1484 722 q 1320 121 1484 244 q 993 11 1208 37 q 391 -15 779 -15 l 104 -15 z "},"ď":{"ha":1287,"x_min":81,"x_max":1683,"o":"m 1410 520 q 1367 525 1383 520 l 1377 629 q 1477 736 1459 640 l 1383 736 l 1405 980 l 1683 980 l 1668 757 q 1537 554 1659 619 q 1410 520 1474 520 m 823 639 q 836 966 827 823 q 1009 974 857 967 q 1186 980 1162 980 l 1188 980 l 1188 26 q 1149 17 1181 22 l 1072 4 q 1000 -10 1027 -3 q 911 149 924 124 q 665 -12 814 20 q 499 -25 601 -25 q 297 19 397 -25 q 139 144 197 62 q 81 315 81 225 q 281 659 81 551 q 556 726 406 726 q 701 702 630 726 q 823 639 772 677 m 640 172 q 678 172 640 172 q 761 224 716 172 q 806 344 806 275 q 763 462 806 413 q 642 511 720 511 q 553 486 591 511 q 481 341 481 437 q 522 222 481 273 q 640 172 564 172 z "},"Đ":{"ha":1050,"x_min":32,"x_max":1484,"o":"m 113 382 q 32 401 30 382 l 57 589 l 161 591 q 181 956 175 786 q 873 991 603 991 q 1369 834 1208 991 q 1484 531 1484 722 q 1320 121 1484 244 q 993 11 1208 37 q 391 -15 779 -15 l 104 -15 q 145 382 119 79 l 113 382 m 631 379 l 625 244 q 876 275 804 246 q 1010 487 1010 327 q 943 673 1010 619 q 795 727 875 727 q 648 722 743 727 l 642 592 l 751 592 q 783 587 777 592 q 789 572 789 583 l 778 379 l 631 379 z "},"đ":{"ha":1287,"x_min":81,"x_max":1286,"o":"m 598 880 l 1285 887 q 1274 782 1284 863 l 1273 769 q 689 762 1042 765 l 588 762 l 598 880 m 823 639 q 836 966 827 823 q 1009 974 857 967 q 1186 980 1162 980 l 1188 980 l 1188 26 q 1149 17 1181 22 l 1072 4 q 1000 -10 1027 -3 q 911 149 924 124 q 665 -12 814 20 q 499 -25 601 -25 q 297 19 397 -25 q 139 144 197 62 q 81 315 81 225 q 281 659 81 551 q 556 726 406 726 q 701 702 630 726 q 823 639 772 677 m 640 172 q 678 172 640 172 q 761 224 716 172 q 806 344 806 275 q 763 462 806 413 q 642 511 720 511 q 553 486 591 511 q 481 341 481 437 q 522 222 481 273 q 640 172 564 172 z "},"Ē":{"ha":1389,"x_min":119,"x_max":1333,"o":"m 465 1322 l 1050 1335 q 1040 1150 1048 1293 l 1039 1127 q 543 1116 843 1121 l 456 1115 l 465 1322 m 1326 -6 l 894 -6 l 119 -1 l 130 238 q 165 975 165 956 q 271 978 246 978 l 958 978 q 1327 981 1186 978 l 1299 725 q 646 710 1135 710 q 641 655 644 694 q 637 597 639 616 q 910 600 833 600 l 1059 596 q 1050 493 1059 566 q 1030 380 1041 420 q 861 377 1019 377 l 629 377 l 621 245 l 1333 237 q 1330 54 1333 109 q 1326 -6 1326 -1 z "},"ē":{"ha":1109,"x_min":77,"x_max":1010,"o":"m 270 1044 l 855 1056 q 846 871 854 1015 l 844 848 q 348 838 648 842 l 262 836 l 270 1044 m 711 425 q 681 515 710 488 q 597 541 652 541 q 508 508 542 541 q 466 426 474 475 l 711 425 m 977 56 q 827 0 935 24 q 617 -24 719 -24 q 446 -15 516 -24 q 306 19 375 -5 q 188 82 237 44 q 108 182 138 121 q 77 329 77 243 q 109 487 77 415 q 189 603 140 559 q 588 726 327 726 q 824 678 712 726 q 983 532 936 629 q 1010 410 1010 477 l 1002 298 l 452 301 q 531 204 469 239 q 703 169 594 169 q 953 228 811 169 l 989 228 l 977 56 z "},"Ę":{"ha":1389,"x_min":119,"x_max":1333,"o":"m 654 -254 q 707 -115 659 -178 q 826 -3 755 -52 l 947 -3 q 891 -84 922 -30 q 860 -184 860 -139 q 956 -271 860 -258 l 942 -375 q 825 -391 891 -391 q 706 -356 759 -391 q 654 -254 654 -322 m 1326 -6 l 894 -6 l 119 -1 l 130 238 q 165 975 165 956 q 271 978 246 978 l 958 978 q 1327 981 1186 978 l 1299 725 q 646 710 1135 710 q 641 655 644 694 q 637 597 639 616 q 910 600 833 600 l 1059 596 q 1050 493 1059 566 q 1030 380 1041 420 q 861 377 1019 377 l 629 377 l 621 245 l 1333 237 q 1330 54 1333 109 q 1326 -6 1326 -1 z "},"ę":{"ha":1109,"x_min":77,"x_max":1010,"o":"m 541 -247 q 594 -108 546 -172 q 713 3 642 -45 l 834 3 q 778 -78 808 -23 q 747 -178 747 -132 q 842 -264 747 -251 l 829 -368 q 712 -384 778 -384 q 593 -350 646 -384 q 541 -247 541 -315 m 711 425 q 681 515 710 488 q 597 541 652 541 q 508 508 542 541 q 466 426 474 475 l 711 425 m 977 56 q 827 0 935 24 q 617 -24 719 -24 q 446 -15 516 -24 q 306 19 375 -5 q 188 82 237 44 q 108 182 138 121 q 77 329 77 243 q 109 487 77 415 q 189 603 140 559 q 588 726 327 726 q 824 678 712 726 q 983 532 936 629 q 1010 410 1010 477 l 1002 298 l 452 301 q 531 204 469 239 q 703 169 594 169 q 953 228 811 169 l 989 228 l 977 56 z "},"Ě":{"ha":1389,"x_min":119,"x_max":1333,"o":"m 477 1409 l 479 1418 q 556 1475 479 1434 q 649 1516 634 1516 q 659 1500 650 1516 l 741 1328 q 885 1514 882 1510 l 885 1516 q 914 1507 899 1516 q 984 1468 930 1497 q 1039 1426 1039 1439 l 1039 1417 q 990 1358 1039 1413 q 781 1118 941 1303 q 775 1116 779 1116 l 665 1116 q 570 1255 663 1116 q 477 1409 477 1394 m 1326 -6 l 894 -6 l 119 -1 l 130 238 q 165 975 165 956 q 271 978 246 978 l 958 978 q 1327 981 1186 978 l 1299 725 q 646 710 1135 710 q 641 655 644 694 q 637 597 639 616 q 910 600 833 600 l 1059 596 q 1050 493 1059 566 q 1030 380 1041 420 q 861 377 1019 377 l 629 377 l 621 245 l 1333 237 q 1330 54 1333 109 q 1326 -6 1326 -1 z "},"ě":{"ha":1109,"x_min":77,"x_max":1010,"o":"m 281 1130 l 283 1139 q 361 1196 283 1155 q 454 1238 439 1238 q 463 1221 455 1238 l 546 1049 q 690 1236 687 1232 l 690 1238 q 719 1228 703 1238 q 789 1190 734 1219 q 844 1147 844 1160 l 844 1138 q 794 1079 844 1134 q 586 840 745 1025 q 580 837 583 837 l 469 837 q 375 976 468 838 q 281 1130 281 1115 m 711 425 q 681 515 710 488 q 597 541 652 541 q 508 508 542 541 q 466 426 474 475 l 711 425 m 977 56 q 827 0 935 24 q 617 -24 719 -24 q 446 -15 516 -24 q 306 19 375 -5 q 188 82 237 44 q 108 182 138 121 q 77 329 77 243 q 109 487 77 415 q 189 603 140 559 q 588 726 327 726 q 824 678 712 726 q 983 532 936 629 q 1010 410 1010 477 l 1002 298 l 452 301 q 531 204 469 239 q 703 169 594 169 q 953 228 811 169 l 989 228 l 977 56 z "},"Ĝ":{"ha":1491,"x_min":85,"x_max":1370,"o":"m 487 1201 l 487 1210 q 530 1261 487 1213 q 730 1492 573 1308 q 736 1495 734 1495 q 740 1494 739 1495 l 840 1494 q 930 1360 842 1494 q 1018 1219 1018 1226 q 1016 1210 1018 1213 l 1016 1208 q 979 1175 1016 1198 q 902 1133 941 1152 q 854 1114 862 1114 l 768 1294 q 633 1118 635 1122 l 633 1116 q 605 1125 620 1116 q 538 1161 590 1134 q 487 1201 487 1187 m 1278 663 q 953 705 1107 705 q 637 571 704 705 q 616 478 616 530 q 677 304 616 364 q 841 245 737 245 q 953 272 908 245 q 1019 340 998 299 l 858 340 l 867 536 q 1113 533 872 535 q 1370 527 1354 530 l 1370 0 l 1242 -7 l 1222 132 q 1025 14 1163 59 q 768 -31 886 -31 q 550 -12 649 -31 q 366 46 451 6 q 218 143 280 85 q 121 283 156 200 q 85 476 85 367 q 130 678 85 585 q 251 831 175 771 q 899 1004 467 1004 q 1091 992 971 1004 q 1278 962 1211 979 l 1278 663 z "},"ĝ":{"ha":1289,"x_min":81,"x_max":1196,"o":"m 384 922 l 384 931 q 427 982 384 935 q 627 1213 470 1029 q 633 1217 631 1217 q 637 1215 635 1217 l 737 1215 q 827 1081 739 1215 q 915 941 915 947 q 913 931 915 934 l 913 930 q 876 897 913 920 q 799 854 838 873 q 751 836 759 836 l 665 1015 q 530 839 532 843 l 530 837 q 502 846 517 837 q 435 882 487 855 q 384 922 384 909 m 220 -323 l 256 -114 l 288 -114 q 474 -148 395 -148 q 600 -138 554 -148 q 774 50 764 -101 q 529 -7 670 -7 q 270 50 387 -7 q 106 210 153 106 q 81 333 80 267 q 141 530 81 439 q 308 673 202 621 q 538 726 413 726 q 827 640 701 726 l 833 710 l 1196 682 l 1158 13 q 1116 -122 1155 -59 q 877 -307 1045 -239 q 528 -376 709 -376 q 220 -323 347 -376 m 640 515 q 601 515 640 515 q 519 462 563 515 q 475 339 475 408 q 513 223 475 271 q 608 176 551 176 q 752 227 711 176 q 794 348 794 279 q 755 466 794 416 q 640 515 716 515 z "},"Ğ":{"ha":1491,"x_min":85,"x_max":1370,"o":"m 672 1328 l 670 1307 q 689 1262 670 1282 q 751 1242 708 1242 q 816 1262 795 1242 q 838 1326 838 1282 l 979 1328 q 912 1169 979 1223 q 748 1115 846 1115 q 590 1161 651 1115 q 529 1280 529 1208 q 536 1328 529 1303 l 672 1328 m 1278 663 q 953 705 1107 705 q 637 571 704 705 q 616 478 616 530 q 677 304 616 364 q 841 245 737 245 q 953 272 908 245 q 1019 340 998 299 l 858 340 l 867 536 q 1113 533 872 535 q 1370 527 1354 530 l 1370 0 l 1242 -7 l 1222 132 q 1025 14 1163 59 q 768 -31 886 -31 q 550 -12 649 -31 q 366 46 451 6 q 218 143 280 85 q 121 283 156 200 q 85 476 85 367 q 130 678 85 585 q 251 831 175 771 q 899 1004 467 1004 q 1091 992 971 1004 q 1278 962 1211 979 l 1278 663 z "},"ğ":{"ha":1289,"x_min":81,"x_max":1196,"o":"m 569 1049 l 567 1028 q 586 983 567 1003 q 648 964 605 964 q 713 984 692 964 q 734 1048 734 1004 l 876 1049 q 809 890 876 945 q 645 836 743 836 q 487 883 548 836 q 426 1001 426 929 q 433 1049 426 1025 l 569 1049 m 220 -323 l 256 -114 l 288 -114 q 474 -148 395 -148 q 600 -138 554 -148 q 774 50 764 -101 q 529 -7 670 -7 q 270 50 387 -7 q 106 210 153 106 q 81 333 80 267 q 141 530 81 439 q 308 673 202 621 q 538 726 413 726 q 827 640 701 726 l 833 710 l 1196 682 l 1158 13 q 1116 -122 1155 -59 q 877 -307 1045 -239 q 528 -376 709 -376 q 220 -323 347 -376 m 640 515 q 601 515 640 515 q 519 462 563 515 q 475 339 475 408 q 513 223 475 271 q 608 176 551 176 q 752 227 711 176 q 794 348 794 279 q 755 466 794 416 q 640 515 716 515 z "},"Ġ":{"ha":1491,"x_min":85,"x_max":1370,"o":"m 607 1120 l 607 1122 q 621 1376 617 1366 q 637 1385 625 1385 q 884 1387 731 1385 q 899 1371 900 1387 l 880 1158 q 871 1122 876 1126 q 859 1117 867 1118 q 614 1115 789 1115 q 607 1120 607 1115 m 1278 663 q 953 705 1107 705 q 637 571 704 705 q 616 478 616 530 q 677 304 616 364 q 841 245 737 245 q 953 272 908 245 q 1019 340 998 299 l 858 340 l 867 536 q 1113 533 872 535 q 1370 527 1354 530 l 1370 0 l 1242 -7 l 1222 132 q 1025 14 1163 59 q 768 -31 886 -31 q 550 -12 649 -31 q 366 46 451 6 q 218 143 280 85 q 121 283 156 200 q 85 476 85 367 q 130 678 85 585 q 251 831 175 771 q 899 1004 467 1004 q 1091 992 971 1004 q 1278 962 1211 979 l 1278 663 z "},"ġ":{"ha":1289,"x_min":81,"x_max":1196,"o":"m 504 841 l 504 844 q 518 1097 514 1087 q 534 1107 522 1107 q 781 1108 628 1107 q 795 1092 797 1108 l 777 879 q 768 843 773 847 q 756 838 764 839 q 511 836 686 836 q 504 841 504 836 m 220 -323 l 256 -114 l 288 -114 q 474 -148 395 -148 q 600 -138 554 -148 q 774 50 764 -101 q 529 -7 670 -7 q 270 50 387 -7 q 106 210 153 106 q 81 333 80 267 q 141 530 81 439 q 308 673 202 621 q 538 726 413 726 q 827 640 701 726 l 833 710 l 1196 682 l 1158 13 q 1116 -122 1155 -59 q 877 -307 1045 -239 q 528 -376 709 -376 q 220 -323 347 -376 m 640 515 q 601 515 640 515 q 519 462 563 515 q 475 339 475 408 q 513 223 475 271 q 608 176 551 176 q 752 227 711 176 q 794 348 794 279 q 755 466 794 416 q 640 515 716 515 z "},"Ģ":{"ha":1491,"x_min":85,"x_max":1370,"o":"m 1278 663 q 953 705 1107 705 q 637 571 704 705 q 616 478 616 530 q 677 304 616 364 q 841 245 737 245 q 953 272 908 245 q 1019 340 998 299 l 858 340 l 867 536 q 1113 533 872 535 q 1370 527 1354 530 l 1370 0 l 1242 -7 l 1222 132 q 1025 14 1163 59 q 768 -31 886 -31 q 550 -12 649 -31 q 366 46 451 6 q 218 143 280 85 q 121 283 156 200 q 85 476 85 367 q 130 678 85 585 q 251 831 175 771 q 899 1004 467 1004 q 1091 992 971 1004 q 1278 962 1211 979 l 1278 663 z "},"ģ":{"ha":1289,"x_min":81,"x_max":1196,"o":"m 220 -323 l 256 -114 l 288 -114 q 474 -148 395 -148 q 600 -138 554 -148 q 774 50 764 -101 q 529 -7 670 -7 q 270 50 387 -7 q 106 210 153 106 q 81 333 80 267 q 141 530 81 439 q 308 673 202 621 q 538 726 413 726 q 827 640 701 726 l 833 710 l 1196 682 l 1158 13 q 1116 -122 1155 -59 q 877 -307 1045 -239 q 528 -376 709 -376 q 220 -323 347 -376 m 640 515 q 601 515 640 515 q 519 462 563 515 q 475 339 475 408 q 513 223 475 271 q 608 176 551 176 q 752 227 711 176 q 794 348 794 279 q 755 466 794 416 q 640 515 716 515 z "},"Ĥ":{"ha":1642,"x_min":153,"x_max":1517,"o":"m 587 1201 l 587 1210 q 630 1261 587 1213 q 831 1492 673 1308 q 837 1495 834 1495 q 840 1494 839 1495 l 941 1494 q 1030 1360 942 1494 q 1118 1219 1118 1226 q 1116 1210 1118 1213 l 1116 1208 q 1079 1175 1116 1198 q 1002 1133 1042 1152 q 955 1114 962 1114 l 869 1294 q 733 1118 736 1122 l 733 1116 q 705 1125 720 1116 q 639 1161 690 1134 q 587 1201 587 1187 m 1030 977 l 1106 975 l 1517 986 l 1493 486 l 1478 1 l 991 -7 q 1001 293 991 111 l 639 293 l 621 1 l 153 -12 q 159 273 153 105 l 174 655 q 182 815 174 676 q 191 979 191 954 q 657 985 297 985 l 670 985 l 644 640 l 1009 640 l 1030 977 z "},"ĥ":{"ha":1310,"x_min":89,"x_max":1229,"o":"m 418 1198 l 418 1207 q 460 1258 418 1211 q 661 1489 504 1305 q 667 1493 665 1493 q 671 1491 669 1493 l 771 1491 q 861 1357 772 1491 q 949 1217 949 1223 q 947 1207 949 1210 l 947 1206 q 909 1173 947 1196 q 832 1131 872 1149 q 785 1112 793 1112 l 699 1291 q 564 1115 566 1119 l 564 1113 q 536 1122 551 1113 q 469 1158 521 1131 q 418 1198 418 1185 m 434 997 l 513 1002 q 520 939 520 979 q 507 635 520 898 q 854 726 688 726 q 1125 637 1021 726 q 1229 412 1229 549 l 1217 1 l 808 -3 l 822 353 q 672 480 822 480 q 529 388 564 480 q 500 168 500 313 l 500 7 q 427 1 462 2 l 92 -1 q 89 65 89 29 l 121 970 q 434 997 178 972 z "},"Ħ":{"ha":1642,"x_min":42,"x_max":1641,"o":"m 1016 769 l 652 769 l 644 640 l 1009 640 q 1016 769 1008 646 m 1030 977 l 1106 975 l 1517 986 q 1511 892 1514 939 l 1641 892 l 1636 772 q 1505 771 1575 771 q 1493 486 1493 541 l 1478 1 l 991 -7 q 1001 293 991 111 l 639 293 l 621 1 l 153 -12 q 159 273 153 109 l 178 768 l 42 768 l 50 886 l 185 886 q 189 959 188 947 q 191 979 191 970 q 657 985 297 985 l 670 985 l 661 888 l 1023 890 l 1030 977 z "},"ħ":{"ha":1310,"x_min":43,"x_max":1229,"o":"m 52 880 l 740 887 q 729 782 738 863 l 727 769 q 144 762 497 765 l 43 762 l 52 880 m 434 997 l 513 1002 q 520 939 520 979 q 507 635 520 898 q 854 726 688 726 q 1125 637 1021 726 q 1229 412 1229 549 l 1217 1 l 808 -3 l 822 353 q 672 480 822 480 q 529 388 564 480 q 500 168 500 313 l 500 7 q 427 1 462 2 l 92 -1 q 89 65 89 29 l 121 970 q 434 997 178 972 z "},"Ĩ":{"ha":802,"x_min":102,"x_max":779,"o":"m 312 1243 q 258 1168 258 1243 l 102 1162 q 170 1368 102 1288 q 334 1447 237 1447 q 437 1432 399 1447 q 507 1374 476 1417 q 560 1330 538 1330 q 593 1339 581 1330 q 611 1375 606 1348 q 623 1402 616 1402 l 779 1396 q 713 1206 779 1294 q 636 1140 682 1166 q 540 1115 591 1115 q 448 1137 490 1115 q 366 1218 407 1158 q 312 1243 349 1243 m 553 981 l 671 983 q 674 947 674 966 l 671 856 l 652 7 l 523 3 q 168 0 523 3 q 166 50 166 20 q 189 972 166 50 q 553 981 339 981 z "},"ĩ":{"ha":640,"x_min":-5,"x_max":671,"o":"m 205 964 q 151 890 151 964 l -5 884 q 62 1089 -5 1009 q 227 1168 130 1168 q 330 1154 292 1168 q 400 1095 369 1139 q 453 1051 431 1051 q 486 1060 474 1051 q 504 1096 498 1069 q 515 1124 509 1124 l 671 1117 q 606 928 671 1015 q 529 862 575 887 q 433 836 484 836 q 341 858 382 836 q 259 939 300 880 q 205 964 242 964 m 139 692 q 347 699 250 699 q 528 694 444 699 l 500 1 q 374 -1 462 -1 q 106 3 286 -1 q 111 116 106 18 q 123 406 115 214 q 139 692 130 598 z "},"Ī":{"ha":802,"x_min":142,"x_max":736,"o":"m 151 1322 l 736 1335 q 726 1150 734 1293 l 725 1127 q 229 1116 529 1121 l 142 1115 l 151 1322 m 553 981 l 671 983 q 674 947 674 966 l 671 856 l 652 7 l 523 3 q 168 0 523 3 q 166 50 166 20 q 189 972 166 50 q 553 981 339 981 z "},"ī":{"ha":640,"x_min":35,"x_max":629,"o":"m 43 1044 l 629 1056 q 619 871 627 1015 l 618 848 q 121 838 422 842 l 35 836 l 43 1044 m 139 692 q 347 699 250 699 q 528 694 444 699 l 500 1 q 374 -1 462 -1 q 106 3 286 -1 q 111 116 106 18 q 123 406 115 214 q 139 692 130 598 z "},"Ĭ":{"ha":802,"x_min":166,"x_max":674,"o":"m 359 1328 l 357 1307 q 376 1262 357 1282 q 439 1242 395 1242 q 504 1262 482 1242 q 525 1326 525 1282 l 667 1328 q 600 1169 667 1223 q 436 1115 533 1115 q 277 1161 338 1115 q 216 1280 216 1208 q 223 1328 216 1303 l 359 1328 m 553 981 l 671 983 q 674 947 674 966 l 671 856 l 652 7 l 523 3 q 168 0 523 3 q 166 50 166 20 q 189 972 166 50 q 553 981 339 981 z "},"ĭ":{"ha":640,"x_min":106,"x_max":559,"o":"m 252 1049 l 250 1028 q 269 983 250 1003 q 331 964 288 964 q 396 984 374 964 q 417 1048 417 1004 l 559 1049 q 492 890 559 945 q 328 836 425 836 q 170 883 231 836 q 109 1001 109 929 q 115 1049 109 1025 l 252 1049 m 139 692 q 347 699 250 699 q 528 694 444 699 l 500 1 q 374 -1 462 -1 q 106 3 286 -1 q 111 116 106 18 q 123 406 115 214 q 139 692 130 598 z "},"Į":{"ha":802,"x_min":166,"x_max":674,"o":"m 224 -233 q 277 -95 229 -158 q 396 17 325 -31 l 517 17 q 461 -64 492 -9 q 430 -164 430 -119 q 526 -251 430 -237 l 512 -355 q 395 -370 461 -370 q 276 -336 329 -370 q 224 -233 224 -302 m 553 981 l 671 983 q 674 947 674 966 l 671 856 l 652 7 l 523 3 q 168 0 523 3 q 166 50 166 20 q 189 972 166 50 q 553 981 339 981 z "},"į":{"ha":640,"x_min":106,"x_max":574,"o":"m 149 -237 q 202 -99 155 -162 q 321 13 250 -35 l 443 13 q 386 -68 417 -14 q 355 -168 355 -123 q 451 -255 355 -241 l 437 -359 q 320 -374 387 -374 q 202 -340 254 -374 q 149 -237 149 -306 m 500 1 q 106 3 210 -3 q 119 332 106 43 q 139 685 132 621 q 400 696 304 696 q 528 694 496 696 l 500 1 m 414 1088 q 535 1049 496 1088 q 574 956 574 1010 q 530 867 574 901 q 326 812 460 812 q 161 845 193 812 q 130 929 130 878 q 167 1018 129 981 q 414 1088 239 1088 z "},"İ":{"ha":802,"x_min":166,"x_max":674,"o":"m 299 1120 l 299 1122 q 313 1376 309 1366 q 329 1385 317 1385 q 576 1387 423 1385 q 591 1371 592 1387 l 572 1158 q 564 1122 568 1126 q 551 1117 559 1118 q 307 1115 481 1115 q 299 1120 299 1115 m 553 981 l 671 983 q 674 947 674 966 l 671 856 l 652 7 l 523 3 q 168 0 523 3 q 166 50 166 20 q 189 972 166 50 q 553 981 339 981 z "},"ı":{"ha":640,"x_min":106,"x_max":528,"o":"m 139 692 q 347 699 250 699 q 528 694 444 699 l 500 1 q 374 -1 462 -1 q 106 3 286 -1 q 111 116 106 18 q 123 406 115 214 q 139 692 130 598 z "},"Ĳ":{"ha":1727,"x_min":166,"x_max":1622,"o":"m 1078 467 l 1078 977 q 1353 981 1176 981 q 1622 985 1529 981 l 1619 579 q 1547 204 1607 339 q 1468 81 1514 132 q 1004 -87 1338 -60 q 867 160 945 3 q 1029 252 979 179 q 1078 467 1078 326 m 553 981 l 671 983 q 674 947 674 966 l 671 856 l 652 7 l 523 3 q 168 0 523 3 q 166 50 166 20 q 189 972 166 50 q 553 981 339 981 z "},"ĳ":{"ha":1377,"x_min":106,"x_max":1336,"o":"m 597 -298 l 621 -81 q 705 -83 673 -83 q 825 -45 778 -83 q 880 125 873 -7 q 898 678 892 366 q 1204 696 1133 696 q 1295 694 1275 696 l 1275 70 q 1149 -220 1264 -137 q 821 -304 1034 -304 q 597 -298 699 -304 m 1336 956 q 1302 875 1336 909 q 1112 812 1238 812 q 938 845 985 812 q 892 960 892 878 q 948 1048 892 1007 q 1141 1089 1004 1089 q 1336 956 1336 1089 m 500 1 q 106 3 210 -3 q 119 332 106 43 q 139 685 132 621 q 400 696 304 696 q 528 694 496 696 l 500 1 m 414 1088 q 535 1049 496 1088 q 574 956 574 1010 q 530 867 574 901 q 326 812 460 812 q 161 845 193 812 q 130 929 130 878 q 167 1018 129 981 q 414 1088 239 1088 z "},"Ĵ":{"ha":924,"x_min":65,"x_max":820,"o":"m 282 1201 l 282 1210 q 325 1261 282 1213 q 526 1492 368 1308 q 531 1495 529 1495 q 535 1494 534 1495 l 635 1494 q 725 1360 637 1494 q 813 1219 813 1226 q 811 1210 813 1213 l 811 1208 q 774 1175 811 1198 q 697 1133 736 1152 q 650 1114 657 1114 l 564 1294 q 428 1118 431 1122 l 428 1116 q 400 1125 415 1116 q 334 1161 385 1134 q 282 1201 282 1187 m 276 467 l 276 977 q 550 981 374 981 q 820 985 727 981 l 817 579 q 745 204 805 339 q 666 81 712 132 q 202 -87 536 -60 q 65 160 143 3 q 227 252 177 179 q 276 467 276 326 z "},"ĵ":{"ha":737,"x_min":-43,"x_max":720,"o":"m 189 922 l 189 931 q 232 982 189 935 q 433 1213 275 1029 q 438 1217 436 1217 q 442 1215 441 1217 l 543 1215 q 632 1081 544 1215 q 720 941 720 947 q 718 931 720 934 l 718 930 q 681 897 718 920 q 604 854 644 873 q 557 836 564 836 l 471 1015 q 335 839 338 843 l 335 837 q 307 846 322 837 q 241 882 292 855 q 189 922 189 909 m -43 -297 q -19 -81 -43 -297 q 65 -83 33 -83 q 127 -76 98 -83 q 182 -48 156 -69 q 239 125 233 -7 q 258 678 252 366 q 405 685 260 678 q 610 696 549 691 l 612 696 q 654 694 635 696 l 635 70 q 506 -222 624 -137 q 181 -304 393 -304 q -43 -298 58 -304 l -43 -297 z "},"Ķ":{"ha":1581,"x_min":122,"x_max":1555,"o":"m 1461 846 l 1461 848 q 1463 846 1461 848 l 1461 846 m 582 983 l 648 983 q 656 867 656 932 q 650 715 656 802 q 644 604 645 627 l 926 960 l 970 1011 q 1461 847 1206 926 l 1461 842 q 1263 640 1379 755 q 1110 486 1147 524 l 1555 137 l 1179 -18 l 1107 -55 l 989 41 q 789 217 901 115 q 637 361 677 319 l 626 52 l 626 4 q 126 -7 273 -7 q 122 86 122 52 q 136 535 122 86 q 150 888 150 840 q 154 968 150 937 q 342 978 184 972 q 582 983 499 983 z "},"ķ":{"ha":1199,"x_min":88,"x_max":1181,"o":"m 784 -19 q 658 131 751 7 q 545 279 566 255 l 487 232 l 477 69 l 475 -1 l 88 -7 l 132 986 q 526 1004 469 1005 l 514 753 q 500 481 502 538 l 696 664 l 1084 671 q 1166 669 1114 671 l 1106 615 l 939 455 q 853 380 880 406 q 1000 217 907 323 q 1109 94 1093 111 q 1148 53 1126 77 q 1181 18 1171 29 l 784 -19 z "},"ĸ":{"ha":1199,"x_min":88,"x_max":1195,"o":"m 777 -12 l 565 224 l 487 163 l 484 -1 l 88 -7 l 112 675 l 228 675 l 511 671 l 500 433 q 710 663 631 578 l 1084 671 q 1166 669 1114 671 q 1039 533 1134 635 q 857 345 944 431 q 1195 5 983 211 l 777 -12 z "},"Ĺ":{"ha":1313,"x_min":114,"x_max":1273,"o":"m 1009 1350 q 716 1116 718 1116 q 597 1143 707 1116 q 694 1296 633 1202 q 776 1417 756 1390 q 1009 1350 858 1395 m 1240 -4 l 286 -4 q 114 0 173 -4 l 117 165 l 122 387 q 134 649 123 406 q 150 973 144 893 q 404 985 252 985 q 654 983 555 985 l 639 644 q 622 244 637 577 l 1145 256 q 1273 249 1223 256 q 1262 136 1273 205 l 1240 -4 z "},"ĺ":{"ha":605,"x_min":99,"x_max":626,"o":"m 626 1340 q 333 1106 335 1106 q 214 1133 323 1106 q 311 1286 250 1192 q 393 1407 373 1379 q 626 1340 475 1385 m 132 975 l 533 994 q 511 445 522 768 q 495 -1 500 121 l 99 -12 l 119 629 q 132 975 132 937 z "},"Ļ":{"ha":1313,"x_min":114,"x_max":1273,"o":"m 1240 -4 l 286 -4 q 114 0 173 -4 l 117 165 l 122 387 q 134 649 123 406 q 150 973 144 893 q 404 985 252 985 q 654 983 555 985 l 639 644 q 622 244 637 577 l 1145 256 q 1273 249 1223 256 q 1262 136 1273 205 l 1240 -4 z "},"ļ":{"ha":605,"x_min":99,"x_max":533,"o":"m 132 975 l 533 994 q 511 445 522 768 q 495 -1 500 121 l 99 -12 l 119 629 q 132 975 132 937 z "},"Ľ":{"ha":1313,"x_min":114,"x_max":1762,"o":"m 1489 545 q 1446 549 1462 545 l 1457 653 q 1556 760 1538 664 l 1462 760 l 1485 1004 l 1762 1004 l 1748 781 q 1617 578 1739 644 q 1489 545 1553 545 m 1240 -4 l 286 -4 q 114 0 173 -4 l 117 165 l 122 387 q 134 649 123 406 q 150 973 144 893 q 404 985 252 985 q 654 983 555 985 l 639 644 q 622 244 637 577 l 1145 256 q 1273 249 1223 256 q 1262 136 1273 205 l 1240 -4 z "},"ľ":{"ha":605,"x_min":99,"x_max":1004,"o":"m 731 534 q 688 539 704 534 l 699 643 q 798 750 780 654 l 704 750 l 726 994 l 1004 994 l 989 771 q 859 568 981 633 q 731 534 795 534 m 132 975 l 533 994 q 511 445 522 768 q 495 -1 500 121 l 99 -12 l 119 629 q 132 975 132 937 z "},"Ŀ":{"ha":1313,"x_min":114,"x_max":1273,"o":"m 882 561 l 882 564 q 896 817 892 807 q 911 827 900 827 q 1159 828 1006 827 q 1173 812 1175 828 l 1154 599 q 1146 563 1151 567 q 1103 557 1142 558 q 889 556 1063 556 q 882 561 882 556 m 1240 -4 l 286 -4 q 114 0 173 -4 l 117 165 l 122 387 q 134 649 123 406 q 150 973 144 893 q 404 985 252 985 q 654 983 555 985 l 639 644 q 622 244 637 577 l 1145 256 q 1273 249 1223 256 q 1262 136 1273 205 l 1240 -4 z "},"ŀ":{"ha":985,"x_min":99,"x_max":1002,"o":"m 711 550 l 711 553 q 725 806 721 796 q 741 816 729 816 q 988 817 835 816 q 1002 801 1004 817 l 983 588 q 976 552 980 556 q 932 546 971 547 q 718 545 892 545 q 711 550 711 545 m 132 975 l 533 994 q 511 445 522 768 q 495 -1 500 121 l 99 -12 l 119 629 q 132 975 132 937 z "},"Ł":{"ha":1313,"x_min":23,"x_max":1273,"o":"m 1240 -4 l 284 -4 q 107 0 170 -4 q 114 184 109 27 q 121 353 119 341 l 28 330 l 23 561 q 131 587 58 569 q 150 973 144 888 q 404 985 252 985 q 654 983 555 985 l 642 710 q 916 777 876 767 l 916 753 q 906 640 916 736 q 891 521 897 544 q 740 487 808 500 q 629 463 673 473 q 621 364 627 435 q 612 244 616 292 l 1145 256 q 1273 249 1223 256 q 1262 136 1273 205 l 1240 -4 z "},"ł":{"ha":605,"x_min":-2,"x_max":676,"o":"m 667 743 l 676 501 q 511 455 661 498 l 495 -1 l 99 -12 l 110 338 q 12 310 40 318 l -2 555 q 118 589 35 565 l 119 629 q 132 975 132 937 q 312 984 159 977 q 533 994 465 991 l 528 911 l 521 702 q 667 743 627 732 z "},"Ń":{"ha":1606,"x_min":101,"x_max":1508,"o":"m 1125 1350 q 832 1116 834 1116 q 713 1143 823 1116 q 810 1296 749 1202 q 892 1417 872 1390 q 1125 1350 974 1395 m 127 970 l 730 983 q 863 834 737 975 q 1099 569 989 693 l 1099 867 q 1103 977 1100 944 l 1507 981 l 1508 650 q 1506 309 1508 527 l 1503 155 l 1505 42 q 1406 30 1491 39 q 1039 -31 1320 21 l 534 422 q 524 16 524 52 l 524 8 q 337 1 490 7 q 101 -6 184 -6 q 104 116 104 43 q 116 405 104 189 q 127 730 127 621 l 127 970 z "},"ń":{"ha":1305,"x_min":89,"x_max":1225,"o":"m 968 1072 q 675 838 677 838 q 557 865 666 838 q 654 1017 592 924 q 735 1138 715 1111 q 968 1072 817 1116 m 775 434 q 685 481 736 481 q 518 368 553 481 q 497 205 497 299 l 494 0 l 89 -7 q 108 650 90 65 l 335 698 l 408 558 q 574 686 467 646 q 802 726 681 726 q 1076 660 966 726 q 1225 366 1225 570 q 1221 221 1225 339 q 1213 -2 1216 102 l 809 -5 l 813 318 q 775 434 813 388 z "},"Ņ":{"ha":1606,"x_min":101,"x_max":1508,"o":"m 127 970 l 730 983 q 863 834 737 975 q 1099 569 989 693 l 1099 867 q 1103 977 1100 944 l 1507 981 l 1508 650 q 1506 309 1508 527 l 1503 155 l 1505 42 q 1406 30 1491 39 q 1039 -31 1320 21 l 534 422 q 524 16 524 52 l 524 8 q 337 1 490 7 q 101 -6 184 -6 q 104 116 104 43 q 116 405 104 189 q 127 730 127 621 l 127 970 z "},"ņ":{"ha":1305,"x_min":89,"x_max":1225,"o":"m 775 434 q 685 481 736 481 q 518 368 553 481 q 497 205 497 299 l 494 0 l 89 -7 q 108 650 90 65 l 335 698 l 408 558 q 574 686 467 646 q 802 726 681 726 q 1076 660 966 726 q 1225 366 1225 570 q 1221 221 1225 339 q 1213 -2 1216 102 l 809 -5 l 813 318 q 775 434 813 388 z "},"Ň":{"ha":1606,"x_min":101,"x_max":1508,"o":"m 556 1409 l 558 1418 q 636 1475 558 1434 q 728 1516 713 1516 q 738 1500 730 1516 l 821 1328 q 964 1514 962 1510 l 964 1516 q 994 1507 978 1516 q 1064 1468 1009 1497 q 1118 1426 1118 1439 l 1118 1417 q 1069 1358 1118 1413 q 861 1118 1020 1303 q 854 1116 858 1116 l 744 1116 q 649 1255 743 1116 q 556 1409 556 1394 m 127 970 l 730 983 q 863 834 737 975 q 1099 569 989 693 l 1099 867 q 1103 977 1100 944 l 1507 981 l 1508 650 q 1506 309 1508 527 l 1503 155 l 1505 42 q 1406 30 1491 39 q 1039 -31 1320 21 l 534 422 q 524 16 524 52 l 524 8 q 337 1 490 7 q 101 -6 184 -6 q 104 116 104 43 q 116 405 104 189 q 127 730 127 621 l 127 970 z "},"ň":{"ha":1305,"x_min":89,"x_max":1225,"o":"m 399 1130 l 401 1139 q 479 1196 401 1155 q 572 1238 557 1238 q 581 1221 573 1238 l 664 1049 q 808 1236 805 1232 l 808 1238 q 837 1228 821 1238 q 907 1190 852 1219 q 962 1147 962 1160 l 962 1138 q 912 1079 962 1134 q 704 840 863 1025 q 698 837 701 837 l 587 837 q 493 976 586 838 q 399 1130 399 1115 m 775 434 q 685 481 736 481 q 518 368 553 481 q 497 205 497 299 l 494 0 l 89 -7 q 108 650 90 65 l 335 698 l 408 558 q 574 686 467 646 q 802 726 681 726 q 1076 660 966 726 q 1225 366 1225 570 q 1221 221 1225 339 q 1213 -2 1216 102 l 809 -5 l 813 318 q 775 434 813 388 z "},"Ō":{"ha":1740,"x_min":85,"x_max":1654,"o":"m 600 1322 l 1185 1335 q 1175 1150 1183 1293 l 1174 1127 q 677 1116 978 1121 l 591 1115 l 600 1322 m 870 245 q 1053 309 989 245 q 1116 500 1116 374 q 1052 675 1116 627 q 874 723 987 723 q 695 660 761 723 q 629 478 629 597 q 870 245 629 245 m 85 467 q 295 865 85 726 q 877 1004 505 1004 q 1451 876 1249 1004 q 1654 511 1654 747 q 1439 112 1654 255 q 852 -31 1224 -31 q 282 102 479 -31 q 85 467 85 235 z "},"ō":{"ha":1221,"x_min":77,"x_max":1144,"o":"m 337 1044 l 922 1056 q 913 871 921 1015 l 911 848 q 415 838 715 842 l 329 836 l 337 1044 m 613 160 q 735 214 694 160 q 777 348 777 267 q 733 476 777 429 q 610 524 688 524 q 493 469 532 524 q 453 339 453 414 q 613 160 453 160 m 77 334 q 648 726 77 726 q 1001 629 861 726 q 1106 513 1069 583 q 1144 366 1144 444 q 1007 68 1144 161 q 602 -25 869 -25 q 77 334 77 -25 z "},"Ŏ":{"ha":1740,"x_min":85,"x_max":1654,"o":"m 808 1328 l 806 1307 q 825 1262 806 1282 q 888 1242 844 1242 q 952 1262 931 1242 q 974 1326 974 1282 l 1116 1328 q 1049 1169 1116 1223 q 885 1115 982 1115 q 726 1161 787 1115 q 665 1280 665 1208 q 672 1328 665 1303 l 808 1328 m 870 245 q 1053 309 989 245 q 1116 500 1116 374 q 1052 675 1116 627 q 874 723 987 723 q 695 660 761 723 q 629 478 629 597 q 870 245 629 245 m 85 467 q 295 865 85 726 q 877 1004 505 1004 q 1451 876 1249 1004 q 1654 511 1654 747 q 1439 112 1654 255 q 852 -31 1224 -31 q 282 102 479 -31 q 85 467 85 235 z "},"ŏ":{"ha":1221,"x_min":77,"x_max":1144,"o":"m 546 1049 l 544 1028 q 563 983 544 1003 q 625 964 582 964 q 690 984 669 964 q 711 1048 711 1004 l 853 1049 q 786 890 853 945 q 622 836 720 836 q 464 883 525 836 q 403 1001 403 929 q 410 1049 403 1025 l 546 1049 m 613 160 q 735 214 694 160 q 777 348 777 267 q 733 476 777 429 q 610 524 688 524 q 493 469 532 524 q 453 339 453 414 q 613 160 453 160 m 77 334 q 648 726 77 726 q 1001 629 861 726 q 1106 513 1069 583 q 1144 366 1144 444 q 1007 68 1144 161 q 602 -25 869 -25 q 77 334 77 -25 z "},"Ő":{"ha":1740,"x_min":85,"x_max":1654,"o":"m 751 1119 l 658 1175 l 760 1479 l 928 1369 l 751 1119 m 1021 1115 l 944 1183 q 1091 1489 944 1183 l 1261 1364 l 1021 1115 m 870 245 q 1053 309 989 245 q 1116 500 1116 374 q 1052 675 1116 627 q 874 723 987 723 q 695 660 761 723 q 629 478 629 597 q 870 245 629 245 m 85 467 q 295 865 85 726 q 877 1004 505 1004 q 1451 876 1249 1004 q 1654 511 1654 747 q 1439 112 1654 255 q 852 -31 1224 -31 q 282 102 479 -31 q 85 467 85 235 z "},"ő":{"ha":1221,"x_min":77,"x_max":1144,"o":"m 488 840 l 395 896 l 498 1200 l 666 1090 l 488 840 m 758 836 l 682 904 q 829 1211 682 904 l 998 1086 l 758 836 m 613 160 q 735 214 694 160 q 777 348 777 267 q 733 476 777 429 q 610 524 688 524 q 493 469 532 524 q 453 339 453 414 q 613 160 453 160 m 77 334 q 648 726 77 726 q 1001 629 861 726 q 1106 513 1069 583 q 1144 366 1144 444 q 1007 68 1144 161 q 602 -25 869 -25 q 77 334 77 -25 z "},"Œ":{"ha":2287,"x_min":96,"x_max":2212,"o":"m 1127 709 l 963 709 q 734 669 807 709 q 684 627 705 652 q 639 466 639 576 q 702 292 639 355 q 883 228 766 228 q 1113 232 1048 228 l 1127 709 m 858 976 l 2199 981 q 2195 840 2199 933 q 2184 703 2190 746 q 1925 701 2120 702 q 1620 699 1729 701 l 1612 591 q 1933 593 1849 593 q 2064 595 2017 593 q 2034 370 2064 538 q 1770 373 1945 373 l 1728 373 q 1604 372 1691 373 l 1596 237 l 2212 237 q 2205 -2 2212 96 l 747 1 q 357 79 526 0 q 167 232 239 133 q 96 473 96 330 q 288 827 96 693 q 858 976 503 977 z "},"œ":{"ha":1807,"x_min":77,"x_max":1709,"o":"m 777 352 q 777 354 777 352 q 733 476 777 429 q 610 524 688 524 q 493 469 532 524 q 453 339 453 414 q 613 160 453 160 q 733 211 695 160 q 777 352 771 261 m 1675 54 q 1525 -2 1632 22 q 1311 -26 1417 -26 l 1305 -26 q 1102 -1 1196 -25 q 956 65 1009 22 q 602 -25 840 -25 q 77 334 77 -25 q 300 670 77 578 q 641 726 435 726 q 828 697 739 726 q 972 620 918 669 q 1118 697 1027 667 q 1293 727 1209 727 q 1537 671 1421 727 q 1661 568 1613 635 q 1709 407 1709 501 l 1701 297 l 1151 300 q 1230 203 1167 238 q 1401 168 1293 168 q 1651 227 1510 168 l 1688 227 l 1675 54 m 1164 423 l 1409 423 q 1380 513 1409 486 q 1296 540 1351 540 q 1206 507 1240 540 q 1164 423 1173 474 z "},"Ŕ":{"ha":1626,"x_min":175,"x_max":1554,"o":"m 1187 1350 q 894 1116 896 1116 q 775 1143 884 1116 q 872 1296 810 1202 q 954 1417 934 1390 q 1187 1350 1036 1395 m 1002 647 q 838 726 1002 726 q 682 722 785 726 l 670 530 q 761 539 699 534 q 876 552 824 545 q 965 582 928 560 q 1002 647 1002 603 m 1025 -58 q 925 142 1000 -12 q 826 355 851 295 l 660 343 l 646 6 q 642 0 646 1 q 334 -7 435 -3 l 175 -12 q 189 438 175 87 l 193 550 l 213 973 q 221 974 214 972 q 643 990 338 990 q 1027 989 948 990 q 1183 974 1106 986 q 1484 714 1484 926 q 1412 527 1484 595 q 1242 427 1339 459 q 1408 209 1285 377 q 1554 13 1531 41 l 1025 -58 z "},"ŕ":{"ha":857,"x_min":98,"x_max":834,"o":"m 772 1072 q 479 838 481 838 q 361 865 470 838 q 458 1017 396 924 q 539 1138 519 1111 q 772 1072 621 1116 m 169 -6 l 102 -7 q 98 38 98 24 q 123 650 98 38 l 311 690 l 389 554 q 648 720 518 720 q 759 699 701 720 q 834 652 816 677 l 763 456 q 616 487 688 487 q 498 446 544 487 q 492 442 495 444 l 491 440 l 463 8 l 169 -6 z "},"Ŗ":{"ha":1626,"x_min":175,"x_max":1554,"o":"m 1002 647 q 838 726 1002 726 q 682 722 785 726 l 670 530 q 761 539 699 534 q 876 552 824 545 q 965 582 928 560 q 1002 647 1002 603 m 1025 -58 q 925 142 1000 -12 q 826 355 851 295 l 660 343 l 646 6 q 642 0 646 1 q 334 -7 435 -3 l 175 -12 q 189 438 175 87 l 193 550 l 213 973 q 221 974 214 972 q 643 990 338 990 q 1027 989 948 990 q 1183 974 1106 986 q 1484 714 1484 926 q 1412 527 1484 595 q 1242 427 1339 459 q 1408 209 1285 377 q 1554 13 1531 41 l 1025 -58 z "},"ŗ":{"ha":857,"x_min":98,"x_max":834,"o":"m 169 -6 l 102 -7 q 98 38 98 24 q 123 650 98 38 l 311 690 l 389 554 q 648 720 518 720 q 759 699 701 720 q 834 652 816 677 l 763 456 q 616 487 688 487 q 498 446 544 487 q 492 442 495 444 l 491 440 l 463 8 l 169 -6 z "},"Ř":{"ha":1626,"x_min":175,"x_max":1554,"o":"m 618 1409 l 621 1418 q 698 1475 621 1434 q 791 1516 776 1516 q 800 1500 792 1516 l 883 1328 q 1027 1514 1024 1510 l 1027 1516 q 1056 1507 1040 1516 q 1126 1468 1072 1497 q 1181 1426 1181 1439 l 1181 1417 q 1132 1358 1181 1413 q 923 1118 1082 1303 q 917 1116 920 1116 l 806 1116 q 712 1255 805 1116 q 618 1409 618 1394 m 1002 647 q 838 726 1002 726 q 682 722 785 726 l 670 530 q 761 539 699 534 q 876 552 824 545 q 965 582 928 560 q 1002 647 1002 603 m 1025 -58 q 925 142 1000 -12 q 826 355 851 295 l 660 343 l 646 6 q 642 0 646 1 q 334 -7 435 -3 l 175 -12 q 189 438 175 87 l 193 550 l 213 973 q 221 974 214 972 q 643 990 338 990 q 1027 989 948 990 q 1183 974 1106 986 q 1484 714 1484 926 q 1412 527 1484 595 q 1242 427 1339 459 q 1408 209 1285 377 q 1554 13 1531 41 l 1025 -58 z "},"ř":{"ha":857,"x_min":98,"x_max":834,"o":"m 204 1130 l 206 1139 q 284 1196 206 1155 q 376 1238 361 1238 q 386 1221 378 1238 l 469 1049 q 612 1236 610 1232 l 612 1238 q 642 1228 626 1238 q 712 1190 657 1219 q 766 1147 766 1160 l 766 1138 q 717 1079 766 1134 q 509 840 668 1025 q 503 837 506 837 l 392 837 q 297 976 391 838 q 204 1130 204 1115 m 169 -6 l 102 -7 q 98 38 98 24 q 123 650 98 38 l 311 690 l 389 554 q 648 720 518 720 q 759 699 701 720 q 834 652 816 677 l 763 456 q 616 487 688 487 q 498 446 544 487 q 492 442 495 444 l 491 440 l 463 8 l 169 -6 z "},"Ś":{"ha":1463,"x_min":111,"x_max":1369,"o":"m 1050 1350 q 758 1116 760 1116 q 639 1143 748 1116 q 736 1296 674 1202 q 817 1417 798 1390 q 1050 1350 899 1395 m 1100 15 q 1057 3 1100 15 q 914 -20 1014 -9 q 685 -31 814 -31 q 401 -7 555 -31 q 112 61 248 16 q 178 315 115 73 q 183 320 178 320 q 370 275 305 290 q 740 237 543 237 q 848 275 848 237 q 837 299 848 292 q 799 310 826 306 q 711 323 772 314 q 619 338 651 332 q 530 353 587 343 q 442 372 472 363 q 365 393 412 380 q 292 420 317 406 q 232 452 266 433 q 180 493 198 471 q 144 542 161 515 q 111 663 111 591 q 283 927 111 850 q 795 1004 456 1004 q 1080 975 935 1004 q 1293 913 1225 946 q 1226 681 1255 769 q 993 725 1145 703 q 722 747 840 747 q 604 709 604 747 q 634 677 604 688 q 778 648 664 667 q 932 623 892 629 q 1308 475 1225 572 q 1369 319 1369 402 q 1336 176 1369 235 q 1245 79 1303 117 q 1100 15 1187 40 z "},"ś":{"ha":1061,"x_min":85,"x_max":981,"o":"m 840 1072 q 547 838 549 838 q 428 865 537 838 q 525 1017 463 924 q 606 1138 587 1111 q 840 1072 688 1116 m 130 227 q 481 182 344 182 q 619 202 619 182 q 589 233 619 223 q 423 266 559 243 q 231 311 287 289 q 85 478 85 366 q 160 631 85 576 q 581 726 290 726 q 924 683 755 726 l 892 493 q 735 516 846 505 q 539 528 624 528 q 455 505 455 528 q 472 484 455 490 q 589 465 490 477 q 730 443 688 452 q 946 333 891 410 q 981 226 981 284 q 969 134 981 168 q 834 15 941 56 q 507 -25 726 -25 q 269 -10 393 -25 q 85 39 146 5 l 130 227 z "},"Ŝ":{"ha":1463,"x_min":111,"x_max":1369,"o":"m 493 1201 l 493 1210 q 536 1261 493 1213 q 736 1492 579 1308 q 742 1495 740 1495 q 746 1494 745 1495 l 846 1494 q 936 1360 848 1494 q 1024 1219 1024 1226 q 1022 1210 1024 1213 l 1022 1208 q 985 1175 1022 1198 q 908 1133 947 1152 q 861 1114 868 1114 l 774 1294 q 639 1118 642 1122 l 639 1116 q 611 1125 626 1116 q 545 1161 596 1134 q 493 1201 493 1187 m 1100 15 q 1057 3 1100 15 q 914 -20 1014 -9 q 685 -31 814 -31 q 401 -7 555 -31 q 112 61 248 16 q 178 315 115 73 q 183 320 178 320 q 370 275 305 290 q 740 237 543 237 q 848 275 848 237 q 837 299 848 292 q 799 310 826 306 q 711 323 772 314 q 619 338 651 332 q 530 353 587 343 q 442 372 472 363 q 365 393 412 380 q 292 420 317 406 q 232 452 266 433 q 180 493 198 471 q 144 542 161 515 q 111 663 111 591 q 283 927 111 850 q 795 1004 456 1004 q 1080 975 935 1004 q 1293 913 1225 946 q 1226 681 1255 769 q 993 725 1145 703 q 722 747 840 747 q 604 709 604 747 q 634 677 604 688 q 778 648 664 667 q 932 623 892 629 q 1308 475 1225 572 q 1369 319 1369 402 q 1336 176 1369 235 q 1245 79 1303 117 q 1100 15 1187 40 z "},"ŝ":{"ha":1061,"x_min":85,"x_max":981,"o":"m 282 922 l 282 931 q 325 982 282 935 q 526 1213 368 1029 q 531 1217 529 1217 q 535 1215 534 1217 l 635 1215 q 725 1081 637 1215 q 813 941 813 947 q 811 931 813 934 l 811 930 q 774 897 811 920 q 697 854 736 873 q 650 836 657 836 l 564 1015 q 428 839 431 843 l 428 837 q 400 846 415 837 q 334 882 385 855 q 282 922 282 909 m 130 227 q 481 182 344 182 q 619 202 619 182 q 589 233 619 223 q 423 266 559 243 q 231 311 287 289 q 85 478 85 366 q 160 631 85 576 q 581 726 290 726 q 924 683 755 726 l 892 493 q 735 516 846 505 q 539 528 624 528 q 455 505 455 528 q 472 484 455 490 q 589 465 490 477 q 730 443 688 452 q 946 333 891 410 q 981 226 981 284 q 969 134 981 168 q 834 15 941 56 q 507 -25 726 -25 q 269 -10 393 -25 q 85 39 146 5 l 130 227 z "},"Ş":{"ha":1463,"x_min":111,"x_max":1369,"o":"m 781 -111 q 913 -253 913 -111 q 859 -376 913 -334 q 721 -419 804 -419 q 567 -370 637 -419 l 594 -273 q 694 -309 654 -309 q 751 -291 733 -309 q 770 -251 770 -273 q 722 -200 770 -207 l 614 -186 l 657 -17 l 779 -17 l 746 -113 q 781 -111 764 -111 m 1100 15 q 1057 3 1100 15 q 914 -20 1014 -9 q 685 -31 814 -31 q 401 -7 555 -31 q 112 61 248 16 q 178 315 115 73 q 183 320 178 320 q 370 275 305 290 q 740 237 543 237 q 848 275 848 237 q 837 299 848 292 q 799 310 826 306 q 711 323 772 314 q 619 338 651 332 q 530 353 587 343 q 442 372 472 363 q 365 393 412 380 q 292 420 317 406 q 232 452 266 433 q 180 493 198 471 q 144 542 161 515 q 111 663 111 591 q 283 927 111 850 q 795 1004 456 1004 q 1080 975 935 1004 q 1293 913 1225 946 q 1226 681 1255 769 q 993 725 1145 703 q 722 747 840 747 q 604 709 604 747 q 634 677 604 688 q 778 648 664 667 q 932 623 892 629 q 1308 475 1225 572 q 1369 319 1369 402 q 1336 176 1369 235 q 1245 79 1303 117 q 1100 15 1187 40 z "},"ş":{"ha":1061,"x_min":85,"x_max":981,"o":"m 578 -106 q 709 -248 709 -106 q 655 -371 709 -328 q 517 -414 601 -414 q 363 -364 433 -414 l 391 -267 q 490 -304 451 -304 q 548 -286 530 -304 q 566 -245 566 -267 q 519 -195 566 -201 l 411 -180 l 454 -12 l 575 -12 l 543 -108 q 578 -106 561 -106 m 130 227 q 481 182 344 182 q 619 202 619 182 q 589 233 619 223 q 423 266 559 243 q 231 311 287 289 q 85 478 85 366 q 160 631 85 576 q 581 726 290 726 q 924 683 755 726 l 892 493 q 735 516 846 505 q 539 528 624 528 q 455 505 455 528 q 472 484 455 490 q 589 465 490 477 q 730 443 688 452 q 946 333 891 410 q 981 226 981 284 q 969 134 981 168 q 834 15 941 56 q 507 -25 726 -25 q 269 -10 393 -25 q 85 39 146 5 l 130 227 z "},"Š":{"ha":1463,"x_min":111,"x_max":1369,"o":"m 481 1409 l 484 1418 q 561 1475 484 1434 q 654 1516 639 1516 q 663 1500 655 1516 l 746 1328 q 890 1514 887 1510 l 890 1516 q 919 1507 903 1516 q 989 1468 935 1497 q 1044 1426 1044 1439 l 1044 1417 q 995 1358 1044 1413 q 786 1118 945 1303 q 780 1116 783 1116 l 669 1116 q 575 1255 668 1116 q 481 1409 481 1394 m 1100 15 q 1057 3 1100 15 q 914 -20 1014 -9 q 685 -31 814 -31 q 401 -7 555 -31 q 112 61 248 16 q 178 315 115 73 q 183 320 178 320 q 370 275 305 290 q 740 237 543 237 q 848 275 848 237 q 837 299 848 292 q 799 310 826 306 q 711 323 772 314 q 619 338 651 332 q 530 353 587 343 q 442 372 472 363 q 365 393 412 380 q 292 420 317 406 q 232 452 266 433 q 180 493 198 471 q 144 542 161 515 q 111 663 111 591 q 283 927 111 850 q 795 1004 456 1004 q 1080 975 935 1004 q 1293 913 1225 946 q 1226 681 1255 769 q 993 725 1145 703 q 722 747 840 747 q 604 709 604 747 q 634 677 604 688 q 778 648 664 667 q 932 623 892 629 q 1308 475 1225 572 q 1369 319 1369 402 q 1336 176 1369 235 q 1245 79 1303 117 q 1100 15 1187 40 z "},"š":{"ha":1061,"x_min":85,"x_max":981,"o":"m 271 1130 l 273 1139 q 351 1196 273 1155 q 444 1238 429 1238 q 453 1221 445 1238 l 536 1049 q 680 1236 677 1232 l 680 1238 q 709 1228 693 1238 q 779 1190 724 1219 q 833 1147 833 1160 l 833 1138 q 784 1079 833 1134 q 576 840 735 1025 q 570 837 573 837 l 459 837 q 365 976 458 838 q 271 1130 271 1115 m 130 227 q 481 182 344 182 q 619 202 619 182 q 589 233 619 223 q 423 266 559 243 q 231 311 287 289 q 85 478 85 366 q 160 631 85 576 q 581 726 290 726 q 924 683 755 726 l 892 493 q 735 516 846 505 q 539 528 624 528 q 455 505 455 528 q 472 484 455 490 q 589 465 490 477 q 730 443 688 452 q 946 333 891 410 q 981 226 981 284 q 969 134 981 168 q 834 15 941 56 q 507 -25 726 -25 q 269 -10 393 -25 q 85 39 146 5 l 130 227 z "},"Ť":{"ha":1337,"x_min":67,"x_max":1303,"o":"m 418 1409 l 420 1418 q 497 1475 420 1434 q 590 1516 575 1516 q 600 1500 591 1516 l 682 1328 q 826 1514 823 1510 l 826 1516 q 855 1507 840 1516 q 925 1468 871 1497 q 980 1426 980 1439 l 980 1417 q 931 1358 980 1413 q 722 1118 882 1303 q 716 1116 720 1116 l 606 1116 q 511 1255 604 1116 q 418 1409 418 1394 m 877 3 q 413 -10 877 3 l 427 454 q 437 713 433 622 l 67 713 q 77 834 68 741 q 94 975 86 927 q 967 983 722 983 q 1303 981 1213 983 q 1255 713 1282 800 l 901 713 l 897 566 q 876 38 876 73 q 877 3 876 3 z "},"ť":{"ha":1041,"x_min":60,"x_max":1444,"o":"m 1171 505 q 1128 509 1144 505 l 1139 613 q 1238 720 1220 624 l 1144 720 l 1166 964 l 1444 964 l 1430 741 q 1299 538 1421 604 q 1171 505 1235 505 m 947 30 q 784 -10 882 4 q 602 -24 687 -24 q 441 -5 517 -24 q 202 284 202 56 q 202 292 202 288 l 202 300 q 206 409 204 319 q 210 507 208 498 l 140 507 q 60 513 81 507 l 102 668 l 226 668 q 240 829 235 739 q 248 941 245 918 q 644 964 498 964 q 652 964 648 964 q 653 943 653 954 l 640 666 l 904 666 q 964 658 936 666 l 928 513 q 854 507 907 507 l 627 507 l 621 309 q 653 218 621 244 q 747 193 685 193 q 923 225 809 193 q 949 233 945 232 q 951 139 951 213 q 947 30 951 65 z "},"Ũ":{"ha":1651,"x_min":97,"x_max":1571,"o":"m 720 1243 q 666 1168 666 1243 l 510 1162 q 577 1368 510 1288 q 742 1447 644 1447 q 845 1432 806 1447 q 915 1374 884 1417 q 967 1330 946 1330 q 1001 1339 989 1330 q 1018 1375 1013 1348 q 1030 1402 1023 1402 l 1186 1396 q 1120 1206 1186 1294 q 1044 1140 1090 1166 q 948 1115 998 1115 q 856 1137 897 1115 q 774 1218 814 1158 q 720 1243 757 1243 m 808 -31 q 415 7 555 -31 q 97 401 97 91 l 101 667 q 105 829 103 728 q 115 973 108 929 l 443 975 l 652 979 q 651 924 651 960 q 650 871 651 888 l 629 414 q 681 288 629 332 q 823 243 734 243 q 968 305 912 243 q 1028 481 1024 368 l 1046 966 q 1571 976 1223 971 q 1558 625 1571 847 q 1537 370 1546 403 q 1373 120 1493 209 q 1106 0 1252 31 q 808 -31 960 -31 z "},"ũ":{"ha":1301,"x_min":80,"x_max":1201,"o":"m 525 964 q 471 890 471 964 l 315 884 q 382 1089 315 1009 q 547 1168 450 1168 q 650 1154 612 1168 q 720 1095 689 1139 q 773 1051 751 1051 q 806 1060 794 1051 q 824 1096 819 1069 q 836 1124 829 1124 l 991 1117 q 926 928 991 1015 q 849 862 895 887 q 753 836 804 836 q 661 858 703 836 q 579 939 620 880 q 525 964 562 964 m 488 344 q 634 166 488 166 q 753 218 713 165 q 792 296 783 258 q 814 574 814 391 l 814 683 q 1200 692 899 686 q 1201 637 1201 656 l 1167 20 l 954 -12 q 888 129 909 78 q 719 14 821 53 q 506 -25 617 -25 q 145 96 262 -24 q 80 276 80 163 q 87 516 80 389 q 96 674 95 643 q 222 680 119 676 q 372 686 326 683 l 505 694 q 488 344 488 381 z "},"Ū":{"ha":1651,"x_min":97,"x_max":1571,"o":"m 558 1322 l 1143 1335 q 1134 1150 1142 1293 l 1133 1127 q 636 1116 937 1121 l 550 1115 l 558 1322 m 808 -31 q 415 7 555 -31 q 97 401 97 91 l 101 667 q 105 829 103 728 q 115 973 108 929 l 443 975 l 652 979 q 651 924 651 960 q 650 871 651 888 l 629 414 q 681 288 629 332 q 823 243 734 243 q 968 305 912 243 q 1028 481 1024 368 l 1046 966 q 1571 976 1223 971 q 1558 625 1571 847 q 1537 370 1546 403 q 1373 120 1493 209 q 1106 0 1252 31 q 808 -31 960 -31 z "},"ū":{"ha":1301,"x_min":80,"x_max":1201,"o":"m 363 1044 l 949 1056 q 939 871 947 1015 l 938 848 q 441 838 742 842 l 355 836 l 363 1044 m 488 344 q 634 166 488 166 q 753 218 713 165 q 792 296 783 258 q 814 574 814 391 l 814 683 q 1200 692 899 686 q 1201 637 1201 656 l 1167 20 l 954 -12 q 888 129 909 78 q 719 14 821 53 q 506 -25 617 -25 q 145 96 262 -24 q 80 276 80 163 q 87 516 80 389 q 96 674 95 643 q 222 680 119 676 q 372 686 326 683 l 505 694 q 488 344 488 381 z "},"Ŭ":{"ha":1651,"x_min":97,"x_max":1571,"o":"m 766 1328 l 764 1307 q 783 1262 764 1282 q 846 1242 802 1242 q 910 1262 889 1242 q 932 1326 932 1282 l 1074 1328 q 1007 1169 1074 1223 q 843 1115 940 1115 q 684 1161 745 1115 q 623 1280 623 1208 q 630 1328 623 1303 l 766 1328 m 808 -31 q 415 7 555 -31 q 97 401 97 91 l 101 667 q 105 829 103 728 q 115 973 108 929 l 443 975 l 652 979 q 651 924 651 960 q 650 871 651 888 l 629 414 q 681 288 629 332 q 823 243 734 243 q 968 305 912 243 q 1028 481 1024 368 l 1046 966 q 1571 976 1223 971 q 1558 625 1571 847 q 1537 370 1546 403 q 1373 120 1493 209 q 1106 0 1252 31 q 808 -31 960 -31 z "},"ŭ":{"ha":1301,"x_min":80,"x_max":1201,"o":"m 572 1049 l 570 1028 q 589 983 570 1003 q 652 964 608 964 q 716 984 695 964 q 738 1048 738 1004 l 880 1049 q 813 890 880 945 q 649 836 746 836 q 490 883 551 836 q 429 1001 429 929 q 436 1049 429 1025 l 572 1049 m 488 344 q 634 166 488 166 q 753 218 713 165 q 792 296 783 258 q 814 574 814 391 l 814 683 q 1200 692 899 686 q 1201 637 1201 656 l 1167 20 l 954 -12 q 888 129 909 78 q 719 14 821 53 q 506 -25 617 -25 q 145 96 262 -24 q 80 276 80 163 q 87 516 80 389 q 96 674 95 643 q 222 680 119 676 q 372 686 326 683 l 505 694 q 488 344 488 381 z "},"Ů":{"ha":1651,"x_min":97,"x_max":1571,"o":"m 918 1305 q 855 1388 919 1388 q 797 1359 820 1388 q 774 1297 774 1331 q 835 1214 774 1214 q 897 1242 875 1214 q 918 1305 918 1270 m 1040 1312 q 1040 1274 1040 1312 q 986 1175 1040 1235 q 849 1115 932 1115 q 711 1163 765 1115 q 658 1292 658 1212 q 716 1429 658 1373 q 856 1485 775 1485 q 988 1437 937 1485 q 1040 1312 1040 1390 m 808 -31 q 415 7 555 -31 q 97 401 97 91 l 101 667 q 105 829 103 728 q 115 973 108 929 l 443 975 l 652 979 q 651 924 651 960 q 650 871 651 888 l 629 414 q 681 288 629 332 q 823 243 734 243 q 968 305 912 243 q 1028 481 1024 368 l 1046 966 q 1571 976 1223 971 q 1558 625 1571 847 q 1537 370 1546 403 q 1373 120 1493 209 q 1106 0 1252 31 q 808 -31 960 -31 z "},"ů":{"ha":1301,"x_min":80,"x_max":1201,"o":"m 724 1026 q 661 1109 724 1109 q 603 1081 625 1109 q 580 1018 580 1053 q 640 935 580 935 q 702 963 680 935 q 724 1026 724 991 m 845 1034 q 845 995 845 1034 q 791 896 845 956 q 654 836 738 836 q 517 885 570 836 q 463 1014 463 933 q 522 1150 463 1094 q 661 1206 581 1206 q 793 1158 742 1206 q 845 1034 845 1111 m 488 344 q 634 166 488 166 q 753 218 713 165 q 792 296 783 258 q 814 574 814 391 l 814 683 q 1200 692 899 686 q 1201 637 1201 656 l 1167 20 l 954 -12 q 888 129 909 78 q 719 14 821 53 q 506 -25 617 -25 q 145 96 262 -24 q 80 276 80 163 q 87 516 80 389 q 96 674 95 643 q 222 680 119 676 q 372 686 326 683 l 505 694 q 488 344 488 381 z "},"Ű":{"ha":1651,"x_min":97,"x_max":1571,"o":"m 709 1119 l 616 1175 l 718 1479 l 886 1369 l 709 1119 m 979 1115 l 902 1183 q 1049 1489 902 1183 l 1219 1364 l 979 1115 m 808 -31 q 415 7 555 -31 q 97 401 97 91 l 101 667 q 105 829 103 728 q 115 973 108 929 l 443 975 l 652 979 q 651 924 651 960 q 650 871 651 888 l 629 414 q 681 288 629 332 q 823 243 734 243 q 968 305 912 243 q 1028 481 1024 368 l 1046 966 q 1571 976 1223 971 q 1558 625 1571 847 q 1537 370 1546 403 q 1373 120 1493 209 q 1106 0 1252 31 q 808 -31 960 -31 z "},"ű":{"ha":1301,"x_min":80,"x_max":1201,"o":"m 515 840 l 422 896 l 524 1200 l 692 1090 l 515 840 m 785 836 l 708 904 q 855 1211 708 904 l 1025 1086 l 785 836 m 488 344 q 634 166 488 166 q 753 218 713 165 q 792 296 783 258 q 814 574 814 391 l 814 683 q 1200 692 899 686 q 1201 637 1201 656 l 1167 20 l 954 -12 q 888 129 909 78 q 719 14 821 53 q 506 -25 617 -25 q 145 96 262 -24 q 80 276 80 163 q 87 516 80 389 q 96 674 95 643 q 222 680 119 676 q 372 686 326 683 l 505 694 q 488 344 488 381 z "},"Ų":{"ha":1651,"x_min":97,"x_max":1571,"o":"m 711 -264 q 765 -125 717 -189 q 884 -14 812 -62 l 1005 -14 q 948 -95 979 -40 q 918 -195 918 -149 q 1013 -281 918 -268 l 1000 -385 q 883 -401 949 -401 q 764 -367 817 -401 q 711 -264 711 -332 m 808 -31 q 415 7 555 -31 q 97 401 97 91 l 101 667 q 105 829 103 728 q 115 973 108 929 l 443 975 l 652 979 q 651 924 651 960 q 650 871 651 888 l 629 414 q 681 288 629 332 q 823 243 734 243 q 968 305 912 243 q 1028 481 1024 368 l 1046 966 q 1571 976 1223 971 q 1558 625 1571 847 q 1537 370 1546 403 q 1373 120 1493 209 q 1106 0 1252 31 q 808 -31 960 -31 z "},"ų":{"ha":1301,"x_min":80,"x_max":1201,"o":"m 867 -229 q 921 -90 873 -153 q 1040 22 968 -26 l 1161 22 q 1104 -59 1135 -5 q 1074 -159 1074 -114 q 1169 -246 1074 -233 l 1156 -350 q 1039 -366 1105 -366 q 920 -331 972 -366 q 867 -229 867 -297 m 488 344 q 634 166 488 166 q 753 218 713 165 q 792 296 783 258 q 814 574 814 391 l 814 683 q 1200 692 899 686 q 1201 637 1201 656 l 1167 20 l 954 -12 q 888 129 909 78 q 719 14 821 53 q 506 -25 617 -25 q 145 96 262 -24 q 80 276 80 163 q 87 516 80 389 q 96 674 95 643 q 222 680 119 676 q 372 686 326 683 l 505 694 q 488 344 488 381 z "},"Ŵ":{"ha":2052,"x_min":65,"x_max":2037,"o":"m 791 1201 l 791 1210 q 834 1261 791 1213 q 1035 1492 878 1308 q 1041 1495 1038 1495 q 1044 1494 1043 1495 l 1145 1494 q 1234 1360 1146 1494 q 1322 1219 1322 1226 q 1320 1210 1322 1213 l 1320 1208 q 1283 1175 1320 1198 q 1206 1133 1246 1152 q 1159 1114 1166 1114 l 1073 1294 q 937 1118 940 1122 l 937 1116 q 909 1125 924 1116 q 843 1161 895 1134 q 791 1201 791 1187 m 1234 -12 l 1060 456 l 954 110 l 916 -5 q 460 -12 793 -12 l 121 813 l 65 983 l 395 993 l 572 997 l 730 482 l 881 983 l 1253 989 l 1431 516 l 1583 984 l 2037 989 l 1649 2 q 1460 -7 1613 -2 q 1234 -12 1307 -12 z "},"ŵ":{"ha":1597,"x_min":78,"x_max":1542,"o":"m 551 922 l 551 931 q 593 982 551 935 q 794 1213 637 1029 q 800 1217 798 1217 q 804 1215 802 1217 l 904 1215 q 994 1081 905 1215 q 1082 941 1082 947 q 1080 931 1082 934 l 1080 930 q 1042 897 1080 920 q 965 854 1005 873 q 918 836 926 836 l 832 1015 q 696 839 699 843 l 696 837 q 669 846 684 837 q 602 882 654 855 q 551 922 551 909 m 1406 348 q 1366 243 1406 348 q 1316 110 1327 138 q 1293 50 1305 81 q 1273 -1 1280 18 q 972 -7 1064 -7 q 856 -8 880 -7 q 793 311 843 61 l 714 9 q 369 -3 481 -3 l 294 -3 q 78 675 153 463 q 159 677 112 675 q 240 679 205 678 q 310 681 275 680 l 378 684 q 453 686 422 684 l 528 263 l 618 605 l 639 688 l 857 690 q 994 686 927 690 q 1087 267 1014 589 l 1190 686 l 1282 693 l 1542 694 q 1406 348 1484 557 z "},"Ŷ":{"ha":1379,"x_min":38,"x_max":1388,"o":"m 452 1201 l 452 1210 q 495 1261 452 1213 q 696 1492 538 1308 q 702 1495 699 1495 q 705 1494 704 1495 l 806 1494 q 895 1360 807 1494 q 983 1219 983 1226 q 981 1210 983 1213 l 981 1208 q 944 1175 981 1198 q 867 1133 907 1152 q 820 1114 827 1114 l 734 1294 q 598 1118 601 1122 l 598 1116 q 570 1125 585 1116 q 504 1161 555 1134 q 452 1201 452 1187 m 906 979 q 1153 981 918 981 q 1388 978 1388 981 q 1383 966 1388 975 l 1373 949 l 948 380 l 930 5 l 836 1 l 452 -7 q 445 348 445 39 l 38 977 l 537 989 l 722 713 l 906 979 z "},"ŷ":{"ha":1158,"x_min":48,"x_max":1135,"o":"m 353 922 l 353 931 q 395 982 353 935 q 596 1213 439 1029 q 602 1217 600 1217 q 606 1215 604 1217 l 706 1215 q 795 1081 707 1215 q 884 941 884 947 q 882 931 884 934 l 882 930 q 844 897 882 920 q 767 854 807 873 q 720 836 728 836 l 634 1015 q 498 839 501 843 l 498 837 q 471 846 486 837 q 404 882 456 855 q 353 922 353 909 m 451 -98 l 394 5 q 201 379 337 107 q 48 678 64 651 l 444 695 l 635 254 q 706 469 648 288 q 783 694 765 649 q 829 696 808 696 q 1135 685 829 696 q 932 213 1063 514 q 780 -127 800 -90 q 663 -297 729 -227 q 267 -450 519 -450 l 150 -260 q 271 -229 191 -260 q 451 -98 425 -168 z "},"Ÿ":{"ha":1379,"x_min":38,"x_max":1388,"o":"m 1059 1116 l 801 1116 l 806 1358 l 1059 1358 l 1059 1116 m 375 1115 q 372 1120 372 1115 l 381 1358 l 634 1359 l 631 1116 l 375 1115 m 906 979 q 1153 981 918 981 q 1388 978 1388 981 q 1383 966 1388 975 l 1373 949 l 948 380 l 930 5 l 836 1 l 452 -7 q 445 348 445 39 l 38 977 l 537 989 l 722 713 l 906 979 z "},"Ź":{"ha":1345,"x_min":109,"x_max":1278,"o":"m 1006 1350 q 713 1116 715 1116 q 594 1143 703 1116 q 691 1296 629 1202 q 772 1417 753 1390 q 1006 1350 854 1395 m 1233 2 l 937 0 l 245 0 q 109 3 159 0 l 109 40 l 596 675 q 113 686 204 680 l 150 979 q 425 983 258 983 q 858 980 592 983 q 1257 977 1124 977 q 1067 668 1227 919 q 808 285 907 418 l 1013 285 l 1175 289 q 1278 288 1247 289 q 1259 151 1278 267 q 1233 2 1240 35 z "},"ź":{"ha":978,"x_min":83,"x_max":911,"o":"m 793 1074 q 500 840 503 840 q 382 867 491 840 q 479 1020 417 926 q 560 1141 541 1114 q 793 1074 642 1119 m 675 253 l 887 258 l 892 254 l 800 0 l 213 0 q 106 3 176 3 l 389 506 l 83 498 q 137 626 100 545 q 182 728 174 707 l 911 718 l 911 712 q 675 253 842 573 z "},"Ż":{"ha":1345,"x_min":109,"x_max":1278,"o":"m 568 1120 l 568 1122 q 583 1376 578 1366 q 598 1385 587 1385 q 846 1387 692 1385 q 860 1371 861 1387 l 841 1158 q 833 1122 838 1126 q 821 1117 828 1118 q 576 1115 750 1115 q 568 1120 568 1115 m 1233 2 l 937 0 l 245 0 q 109 3 159 0 l 109 40 l 596 675 q 113 686 204 680 l 150 979 q 425 983 258 983 q 858 980 592 983 q 1257 977 1124 977 q 1067 668 1227 919 q 808 285 907 418 l 1013 285 l 1175 289 q 1278 288 1247 289 q 1259 151 1278 267 q 1233 2 1240 35 z "},"ż":{"ha":978,"x_min":83,"x_max":911,"o":"m 356 844 l 356 846 q 370 1100 366 1090 q 386 1109 374 1109 q 633 1111 480 1109 q 648 1095 649 1111 l 629 882 q 621 846 625 850 q 608 841 616 842 q 363 839 538 839 q 356 844 356 839 m 675 253 l 887 258 l 892 254 l 800 0 l 213 0 q 106 3 176 3 l 389 506 l 83 498 q 137 626 100 545 q 182 728 174 707 l 911 718 l 911 712 q 675 253 842 573 z "},"Ž":{"ha":1345,"x_min":109,"x_max":1278,"o":"m 446 1409 l 448 1418 q 526 1475 448 1434 q 618 1516 604 1516 q 628 1500 620 1516 l 711 1328 q 854 1514 852 1510 l 854 1516 q 884 1507 868 1516 q 954 1468 899 1497 q 1008 1426 1008 1439 l 1008 1417 q 959 1358 1008 1413 q 751 1118 910 1303 q 745 1116 748 1116 l 634 1116 q 539 1255 633 1116 q 446 1409 446 1394 m 1233 2 l 937 0 l 245 0 q 109 3 159 0 l 109 40 l 596 675 q 113 686 204 680 l 150 979 q 425 983 258 983 q 858 980 592 983 q 1257 977 1124 977 q 1067 668 1227 919 q 808 285 907 418 l 1013 285 l 1175 289 q 1278 288 1247 289 q 1259 151 1278 267 q 1233 2 1240 35 z "},"ž":{"ha":978,"x_min":83,"x_max":911,"o":"m 231 1133 l 233 1142 q 310 1199 233 1158 q 403 1240 388 1240 q 412 1224 404 1240 l 495 1052 q 639 1238 636 1234 l 639 1240 q 668 1231 652 1240 q 738 1192 684 1221 q 793 1150 793 1163 l 793 1141 q 744 1082 793 1137 q 535 842 694 1027 q 529 840 532 840 l 418 840 q 324 979 417 840 q 231 1133 231 1118 m 675 253 l 887 258 l 892 254 l 800 0 l 213 0 q 106 3 176 3 l 389 506 l 83 498 q 137 626 100 545 q 182 728 174 707 l 911 718 l 911 712 q 675 253 842 573 z "},"ƒ":{"ha":975,"x_min":31,"x_max":941,"o":"m 242 166 l 264 505 l 143 505 q 130 511 139 508 l 140 665 l 281 665 q 421 943 300 856 q 753 1029 541 1029 q 941 1016 838 1029 l 939 798 q 830 804 876 804 q 754 789 783 804 q 709 744 724 773 q 680 665 694 715 l 922 665 l 901 507 l 671 507 l 652 179 q 481 -176 639 -73 q 270 -236 391 -236 q 31 -186 150 -236 l 39 -50 q 98 -56 73 -56 q 150 -50 123 -56 q 195 -21 176 -43 q 226 39 214 1 q 242 166 237 77 z "},"Ǆ":{"ha":2918,"x_min":104,"x_max":2851,"o":"m 2019 1409 l 2021 1418 q 2099 1475 2021 1434 q 2191 1516 2176 1516 q 2201 1500 2193 1516 l 2283 1328 q 2427 1514 2424 1510 l 2427 1516 q 2456 1507 2441 1516 q 2527 1468 2472 1497 q 2581 1426 2581 1439 l 2581 1417 q 2532 1358 2581 1413 q 2323 1118 2483 1303 q 2317 1116 2321 1116 l 2207 1116 q 2112 1255 2205 1116 q 2019 1409 2019 1394 m 2806 2 l 2509 0 l 1817 0 q 1682 3 1731 0 l 1682 40 l 2169 675 q 1685 686 1777 680 l 1723 979 q 1998 983 1831 983 q 2431 980 2165 983 q 2830 977 2696 977 q 2640 668 2799 919 q 2380 285 2480 418 l 2586 285 l 2747 289 q 2851 288 2820 289 q 2832 151 2851 267 q 2806 2 2813 35 m 648 722 l 625 244 q 876 275 804 246 q 1010 487 1010 327 q 943 673 1010 619 q 795 727 875 727 q 648 722 743 727 m 104 -15 q 143 365 117 65 q 181 956 170 664 q 873 991 603 991 q 1369 834 1208 991 q 1484 531 1484 722 q 1320 121 1484 244 q 993 11 1208 37 q 391 -15 779 -15 l 104 -15 z "},"ǅ":{"ha":2551,"x_min":104,"x_max":2484,"o":"m 1803 1133 l 1805 1142 q 1883 1199 1805 1158 q 1976 1240 1961 1240 q 1985 1224 1977 1240 l 2068 1052 q 2212 1238 2209 1234 l 2212 1240 q 2241 1231 2225 1240 q 2311 1192 2256 1221 q 2365 1150 2365 1163 l 2365 1141 q 2316 1082 2365 1137 q 2108 842 2267 1027 q 2102 840 2105 840 l 1991 840 q 1896 979 1990 840 q 1803 1133 1803 1118 m 2247 253 l 2460 258 l 2465 254 l 2373 0 l 1786 0 q 1679 3 1749 3 l 1962 506 l 1656 498 q 1710 626 1673 545 q 1755 728 1746 707 l 2484 718 l 2484 712 q 2247 253 2414 573 m 648 722 l 625 244 q 876 275 804 246 q 1010 487 1010 327 q 943 673 1010 619 q 795 727 875 727 q 648 722 743 727 m 104 -15 q 143 365 117 65 q 181 956 170 664 q 873 991 603 991 q 1369 834 1208 991 q 1484 531 1484 722 q 1320 121 1484 244 q 993 11 1208 37 q 391 -15 779 -15 l 104 -15 z "},"ǆ":{"ha":2265,"x_min":81,"x_max":2199,"o":"m 1518 1133 l 1520 1142 q 1597 1199 1520 1158 q 1690 1240 1675 1240 q 1699 1224 1691 1240 l 1782 1052 q 1926 1238 1923 1234 l 1926 1240 q 1955 1231 1940 1240 q 2025 1192 1971 1221 q 2080 1150 2080 1163 l 2080 1141 q 2031 1082 2080 1137 q 1822 842 1982 1027 q 1816 840 1820 840 l 1706 840 q 1611 979 1704 840 q 1518 1133 1518 1118 m 1962 253 l 2174 258 l 2180 254 l 2087 0 l 1500 0 q 1394 3 1463 3 l 1676 506 l 1371 498 q 1424 626 1388 545 q 1470 728 1461 707 l 2199 718 l 2199 712 q 1962 253 2129 573 m 823 639 q 836 966 827 823 q 1009 974 857 967 q 1186 980 1162 980 l 1188 980 l 1188 26 q 1149 17 1181 22 l 1072 4 q 1000 -10 1027 -3 q 911 149 924 124 q 665 -12 814 20 q 499 -25 601 -25 q 297 19 397 -25 q 139 144 197 62 q 81 315 81 225 q 281 659 81 551 q 556 726 406 726 q 701 702 630 726 q 823 639 772 677 m 640 172 q 678 172 640 172 q 761 224 716 172 q 806 344 806 275 q 763 462 806 413 q 642 511 720 511 q 553 486 591 511 q 481 341 481 437 q 522 222 481 273 q 640 172 564 172 z "},"Ǉ":{"ha":2237,"x_min":114,"x_max":2133,"o":"m 1589 467 l 1589 977 q 1863 981 1687 981 q 2133 985 2040 981 l 2130 579 q 2058 204 2118 339 q 1979 81 2025 132 q 1515 -87 1849 -60 q 1378 160 1456 3 q 1539 252 1490 179 q 1589 467 1589 326 m 1240 -4 l 286 -4 q 114 0 173 -4 l 117 165 l 122 387 q 134 649 123 406 q 150 973 144 893 q 404 985 252 985 q 654 983 555 985 l 639 644 q 622 244 637 577 l 1145 256 q 1273 249 1223 256 q 1262 136 1273 205 l 1240 -4 z "},"ǈ":{"ha":2050,"x_min":114,"x_max":2009,"o":"m 1270 -298 l 1294 -81 q 1378 -83 1345 -83 q 1498 -45 1451 -83 q 1552 125 1546 -7 q 1571 678 1565 366 q 1877 696 1806 696 q 1967 694 1948 696 l 1948 70 q 1822 -220 1937 -137 q 1494 -304 1706 -304 q 1270 -298 1371 -304 m 2009 956 q 1975 875 2009 909 q 1784 812 1911 812 q 1611 845 1657 812 q 1565 960 1565 878 q 1621 1048 1565 1007 q 1813 1089 1677 1089 q 2009 956 2009 1089 m 1240 -4 l 286 -4 q 114 0 173 -4 l 117 165 l 122 387 q 134 649 123 406 q 150 973 144 893 q 404 985 252 985 q 654 983 555 985 l 639 644 q 622 244 637 577 l 1145 256 q 1273 249 1223 256 q 1262 136 1273 205 l 1240 -4 z "},"ǉ":{"ha":1342,"x_min":99,"x_max":1301,"o":"m 562 -298 l 586 -81 q 670 -83 637 -83 q 790 -45 743 -83 q 844 125 838 -7 q 863 678 857 366 q 1169 696 1098 696 q 1259 694 1240 696 l 1240 70 q 1114 -220 1229 -137 q 786 -304 998 -304 q 562 -298 663 -304 m 1301 956 q 1267 875 1301 909 q 1076 812 1203 812 q 903 845 949 812 q 857 960 857 878 q 913 1048 857 1007 q 1105 1089 969 1089 q 1301 956 1301 1089 m 132 975 l 533 994 q 511 445 522 768 q 495 -1 500 121 l 99 -12 l 119 629 q 132 975 132 937 z "},"Ǌ":{"ha":2530,"x_min":101,"x_max":2426,"o":"m 1882 467 l 1882 977 q 2156 981 1980 981 q 2426 985 2333 981 l 2423 579 q 2351 204 2411 339 q 2272 81 2318 132 q 1808 -87 2142 -60 q 1671 160 1749 3 q 1832 252 1783 179 q 1882 467 1882 326 m 127 970 l 730 983 q 863 834 737 975 q 1099 569 989 693 l 1099 867 q 1103 977 1100 944 l 1507 981 l 1508 650 q 1506 309 1508 527 l 1503 155 l 1505 42 q 1406 30 1491 39 q 1039 -31 1320 21 l 534 422 q 524 16 524 52 l 524 8 q 337 1 490 7 q 101 -6 184 -6 q 104 116 104 43 q 116 405 104 189 q 127 730 127 621 l 127 970 z "},"ǋ":{"ha":2343,"x_min":101,"x_max":2302,"o":"m 1563 -298 l 1587 -81 q 1671 -83 1638 -83 q 1791 -45 1744 -83 q 1845 125 1839 -7 q 1864 678 1858 366 q 2170 696 2099 696 q 2260 694 2241 696 l 2241 70 q 2115 -220 2230 -137 q 1787 -304 1999 -304 q 1563 -298 1664 -304 m 2302 956 q 2268 875 2302 909 q 2077 812 2204 812 q 1904 845 1950 812 q 1858 960 1858 878 q 1914 1048 1858 1007 q 2106 1089 1970 1089 q 2302 956 2302 1089 m 127 970 l 730 983 q 863 834 737 975 q 1099 569 989 693 l 1099 867 q 1103 977 1100 944 l 1507 981 l 1508 650 q 1506 309 1508 527 l 1503 155 l 1505 42 q 1406 30 1491 39 q 1039 -31 1320 21 l 534 422 q 524 16 524 52 l 524 8 q 337 1 490 7 q 101 -6 184 -6 q 104 116 104 43 q 116 405 104 189 q 127 730 127 621 l 127 970 z "},"ǌ":{"ha":2043,"x_min":89,"x_max":2001,"o":"m 1263 -298 l 1286 -81 q 1371 -83 1338 -83 q 1491 -45 1443 -83 q 1545 125 1538 -7 q 1563 678 1557 366 q 1869 696 1799 696 q 1960 694 1940 696 l 1940 70 q 1814 -220 1929 -137 q 1487 -304 1699 -304 q 1263 -298 1364 -304 m 2001 956 q 1967 875 2001 909 q 1777 812 1904 812 q 1604 845 1650 812 q 1557 960 1557 878 q 1613 1048 1557 1007 q 1806 1089 1670 1089 q 2001 956 2001 1089 m 775 434 q 685 481 736 481 q 518 368 553 481 q 497 205 497 299 l 494 0 l 89 -7 q 108 650 90 65 l 335 698 l 408 558 q 574 686 467 646 q 802 726 681 726 q 1076 660 966 726 q 1225 366 1225 570 q 1221 221 1225 339 q 1213 -2 1216 102 l 809 -5 l 813 318 q 775 434 813 388 z "},"Ǳ":{"ha":2918,"x_min":104,"x_max":2851,"o":"m 2806 2 l 2509 0 l 1817 0 q 1682 3 1731 0 l 1682 40 l 2169 675 q 1685 686 1777 680 l 1723 979 q 1998 983 1831 983 q 2431 980 2165 983 q 2830 977 2696 977 q 2640 668 2799 919 q 2380 285 2480 418 l 2586 285 l 2747 289 q 2851 288 2820 289 q 2832 151 2851 267 q 2806 2 2813 35 m 648 722 l 625 244 q 876 275 804 246 q 1010 487 1010 327 q 943 673 1010 619 q 795 727 875 727 q 648 722 743 727 m 104 -15 q 143 365 117 65 q 181 956 170 664 q 873 991 603 991 q 1369 834 1208 991 q 1484 531 1484 722 q 1320 121 1484 244 q 993 11 1208 37 q 391 -15 779 -15 l 104 -15 z "},"ǲ":{"ha":2551,"x_min":104,"x_max":2484,"o":"m 2247 253 l 2460 258 l 2465 254 l 2373 0 l 1786 0 q 1679 3 1749 3 l 1962 506 l 1656 498 q 1710 626 1673 545 q 1755 728 1746 707 l 2484 718 l 2484 712 q 2247 253 2414 573 m 648 722 l 625 244 q 876 275 804 246 q 1010 487 1010 327 q 943 673 1010 619 q 795 727 875 727 q 648 722 743 727 m 104 -15 q 143 365 117 65 q 181 956 170 664 q 873 991 603 991 q 1369 834 1208 991 q 1484 531 1484 722 q 1320 121 1484 244 q 993 11 1208 37 q 391 -15 779 -15 l 104 -15 z "},"ǳ":{"ha":2265,"x_min":81,"x_max":2199,"o":"m 1962 253 l 2174 258 l 2180 254 l 2087 0 l 1500 0 q 1394 3 1463 3 l 1676 506 l 1371 498 q 1424 626 1388 545 q 1470 728 1461 707 l 2199 718 l 2199 712 q 1962 253 2129 573 m 823 639 q 836 966 827 823 q 1009 974 857 967 q 1186 980 1162 980 l 1188 980 l 1188 26 q 1149 17 1181 22 l 1072 4 q 1000 -10 1027 -3 q 911 149 924 124 q 665 -12 814 20 q 499 -25 601 -25 q 297 19 397 -25 q 139 144 197 62 q 81 315 81 225 q 281 659 81 551 q 556 726 406 726 q 701 702 630 726 q 823 639 772 677 m 640 172 q 678 172 640 172 q 761 224 716 172 q 806 344 806 275 q 763 462 806 413 q 642 511 720 511 q 553 486 591 511 q 481 341 481 437 q 522 222 481 273 q 640 172 564 172 z "},"Ǵ":{"ha":1491,"x_min":85,"x_max":1370,"o":"m 1044 1350 q 751 1116 753 1116 q 633 1143 742 1116 q 730 1296 668 1202 q 811 1417 791 1390 q 1044 1350 893 1395 m 1278 663 q 953 705 1107 705 q 637 571 704 705 q 616 478 616 530 q 677 304 616 364 q 841 245 737 245 q 953 272 908 245 q 1019 340 998 299 l 858 340 l 867 536 q 1113 533 872 535 q 1370 527 1354 530 l 1370 0 l 1242 -7 l 1222 132 q 1025 14 1163 59 q 768 -31 886 -31 q 550 -12 649 -31 q 366 46 451 6 q 218 143 280 85 q 121 283 156 200 q 85 476 85 367 q 130 678 85 585 q 251 831 175 771 q 899 1004 467 1004 q 1091 992 971 1004 q 1278 962 1211 979 l 1278 663 z "},"ǵ":{"ha":1289,"x_min":81,"x_max":1196,"o":"m 941 1072 q 648 838 650 838 q 530 865 639 838 q 627 1017 565 924 q 708 1138 688 1111 q 941 1072 790 1116 m 220 -323 l 256 -114 l 288 -114 q 474 -148 395 -148 q 600 -138 554 -148 q 774 50 764 -101 q 529 -7 670 -7 q 270 50 387 -7 q 106 210 153 106 q 81 333 80 267 q 141 530 81 439 q 308 673 202 621 q 538 726 413 726 q 827 640 701 726 l 833 710 l 1196 682 l 1158 13 q 1116 -122 1155 -59 q 877 -307 1045 -239 q 528 -376 709 -376 q 220 -323 347 -376 m 640 515 q 601 515 640 515 q 519 462 563 515 q 475 339 475 408 q 513 223 475 271 q 608 176 551 176 q 752 227 711 176 q 794 348 794 279 q 755 466 794 416 q 640 515 716 515 z "},"Ȁ":{"ha":1544,"x_min":48,"x_max":1495,"o":"m 942 1119 l 753 1383 l 932 1499 l 1040 1178 l 942 1119 m 656 1115 l 403 1378 l 582 1510 l 739 1186 l 656 1115 m 831 366 q 734 692 758 604 q 659 477 696 573 q 616 366 622 380 l 831 366 m 515 117 l 464 -10 q 395 -15 429 -15 q 48 0 361 -15 q 482 970 126 163 q 673 978 525 971 q 931 984 821 984 q 1082 970 1041 984 q 1438 139 1086 957 l 1495 6 q 1056 -20 1064 -20 q 968 -16 1047 -20 q 916 112 937 39 q 515 117 872 117 z "},"ȁ":{"ha":1226,"x_min":81,"x_max":1133,"o":"m 766 848 l 577 1112 l 755 1227 l 864 907 l 766 848 m 480 844 l 227 1107 l 406 1239 l 562 915 l 480 844 m 835 131 q 710 18 792 62 q 529 -25 628 -25 q 356 -4 430 -25 q 219 57 282 16 q 119 167 157 98 q 81 328 81 236 q 115 497 81 420 q 208 624 149 575 q 498 726 327 726 q 692 696 617 726 q 825 589 768 666 l 827 733 l 1133 707 l 1131 16 l 876 -3 l 835 131 m 517 447 q 498 424 517 447 q 478 337 478 401 q 517 228 478 274 q 627 181 555 181 q 739 222 699 181 q 779 335 779 263 q 739 450 779 407 q 628 492 699 492 q 517 447 557 492 z "},"Ȃ":{"ha":1544,"x_min":48,"x_max":1495,"o":"m 896 1117 q 813 1190 896 1190 q 746 1162 767 1190 q 724 1102 724 1135 l 610 1116 q 673 1257 610 1204 q 830 1309 736 1309 q 1006 1180 967 1309 q 1017 1106 1017 1145 l 895 1099 q 896 1117 896 1109 m 831 366 q 734 692 758 604 q 659 477 696 573 q 616 366 622 380 l 831 366 m 515 117 l 464 -10 q 395 -15 429 -15 q 48 0 361 -15 q 482 970 126 163 q 673 978 525 971 q 931 984 821 984 q 1082 970 1041 984 q 1438 139 1086 957 l 1495 6 q 1056 -20 1064 -20 q 968 -16 1047 -20 q 916 112 937 39 q 515 117 872 117 z "},"ȃ":{"ha":1226,"x_min":81,"x_max":1133,"o":"m 719 846 q 636 918 719 918 q 569 891 590 918 q 547 831 547 863 l 433 844 q 496 985 433 933 q 653 1038 559 1038 q 829 909 790 1038 q 840 835 840 873 l 718 828 q 719 846 719 838 m 835 131 q 710 18 792 62 q 529 -25 628 -25 q 356 -4 430 -25 q 219 57 282 16 q 119 167 157 98 q 81 328 81 236 q 115 497 81 420 q 208 624 149 575 q 498 726 327 726 q 692 696 617 726 q 825 589 768 666 l 827 733 l 1133 707 l 1131 16 l 876 -3 l 835 131 m 517 447 q 498 424 517 447 q 478 337 478 401 q 517 228 478 274 q 627 181 555 181 q 739 222 699 181 q 779 335 779 263 q 739 450 779 407 q 628 492 699 492 q 517 447 557 492 z "},"Ȅ":{"ha":1389,"x_min":119,"x_max":1333,"o":"m 893 1119 l 705 1383 l 883 1499 l 991 1178 l 893 1119 m 608 1115 l 354 1378 l 533 1510 l 690 1186 l 608 1115 m 1326 -6 l 894 -6 l 119 -1 l 130 238 q 165 975 165 956 q 271 978 246 978 l 958 978 q 1327 981 1186 978 l 1299 725 q 646 710 1135 710 q 641 655 644 694 q 637 597 639 616 q 910 600 833 600 l 1059 596 q 1050 493 1059 566 q 1030 380 1041 420 q 861 377 1019 377 l 629 377 l 621 245 l 1333 237 q 1330 54 1333 109 q 1326 -6 1326 -1 z "},"ȅ":{"ha":1109,"x_min":77,"x_max":1010,"o":"m 699 840 l 510 1105 l 688 1220 l 797 899 l 699 840 m 413 836 l 159 1099 l 338 1232 l 495 907 l 413 836 m 711 425 q 681 515 710 488 q 597 541 652 541 q 508 508 542 541 q 466 426 474 475 l 711 425 m 977 56 q 827 0 935 24 q 617 -24 719 -24 q 446 -15 516 -24 q 306 19 375 -5 q 188 82 237 44 q 108 182 138 121 q 77 329 77 243 q 109 487 77 415 q 189 603 140 559 q 588 726 327 726 q 824 678 712 726 q 983 532 936 629 q 1010 410 1010 477 l 1002 298 l 452 301 q 531 204 469 239 q 703 169 594 169 q 953 228 811 169 l 989 228 l 977 56 z "},"Ȇ":{"ha":1389,"x_min":119,"x_max":1333,"o":"m 847 1117 q 764 1190 847 1190 q 697 1162 718 1190 q 675 1102 675 1135 l 562 1116 q 624 1257 562 1204 q 781 1309 687 1309 q 958 1180 918 1309 q 968 1106 968 1145 l 846 1099 q 847 1117 847 1109 m 1326 -6 l 894 -6 l 119 -1 l 130 238 q 165 975 165 956 q 271 978 246 978 l 958 978 q 1327 981 1186 978 l 1299 725 q 646 710 1135 710 q 641 655 644 694 q 637 597 639 616 q 910 600 833 600 l 1059 596 q 1050 493 1059 566 q 1030 380 1041 420 q 861 377 1019 377 l 629 377 l 621 245 l 1333 237 q 1330 54 1333 109 q 1326 -6 1326 -1 z "},"ȇ":{"ha":1109,"x_min":77,"x_max":1010,"o":"m 652 838 q 569 911 652 911 q 502 883 523 911 q 480 823 480 856 l 366 837 q 429 978 366 926 q 586 1030 492 1030 q 762 901 723 1030 q 773 827 773 866 l 650 821 q 652 838 652 830 m 711 425 q 681 515 710 488 q 597 541 652 541 q 508 508 542 541 q 466 426 474 475 l 711 425 m 977 56 q 827 0 935 24 q 617 -24 719 -24 q 446 -15 516 -24 q 306 19 375 -5 q 188 82 237 44 q 108 182 138 121 q 77 329 77 243 q 109 487 77 415 q 189 603 140 559 q 588 726 327 726 q 824 678 712 726 q 983 532 936 629 q 1010 410 1010 477 l 1002 298 l 452 301 q 531 204 469 239 q 703 169 594 169 q 953 228 811 169 l 989 228 l 977 56 z "},"Ȉ":{"ha":802,"x_min":40,"x_max":677,"o":"m 579 1119 l 391 1383 l 569 1499 l 677 1178 l 579 1119 m 294 1115 l 40 1378 l 219 1510 l 376 1186 l 294 1115 m 553 981 l 671 983 q 674 947 674 966 l 671 856 l 652 7 l 523 3 q 168 0 523 3 q 166 50 166 20 q 189 972 166 50 q 553 981 339 981 z "},"ȉ":{"ha":640,"x_min":-67,"x_max":570,"o":"m 472 840 l 283 1105 l 462 1220 l 570 899 l 472 840 m 186 836 l -67 1099 l 112 1232 l 269 907 l 186 836 m 139 692 q 347 699 250 699 q 528 694 444 699 l 500 1 q 374 -1 462 -1 q 106 3 286 -1 q 111 116 106 18 q 123 406 115 214 q 139 692 130 598 z "},"Ȋ":{"ha":802,"x_min":166,"x_max":674,"o":"m 533 1117 q 450 1190 533 1190 q 383 1162 404 1190 q 361 1102 361 1135 l 248 1116 q 310 1257 248 1204 q 467 1309 373 1309 q 644 1180 604 1309 q 654 1106 654 1145 l 532 1099 q 533 1117 533 1109 m 553 981 l 671 983 q 674 947 674 966 l 671 856 l 652 7 l 523 3 q 168 0 523 3 q 166 50 166 20 q 189 972 166 50 q 553 981 339 981 z "},"ȋ":{"ha":640,"x_min":106,"x_max":547,"o":"m 426 838 q 343 911 426 911 q 276 883 297 911 q 254 823 254 856 l 140 837 q 203 978 140 926 q 360 1030 266 1030 q 536 901 497 1030 q 547 827 547 866 l 425 821 q 426 838 426 830 m 139 692 q 347 699 250 699 q 528 694 444 699 l 500 1 q 374 -1 462 -1 q 106 3 286 -1 q 111 116 106 18 q 123 406 115 214 q 139 692 130 598 z "},"Ȍ":{"ha":1740,"x_min":85,"x_max":1654,"o":"m 1028 1119 l 840 1383 l 1018 1499 l 1126 1178 l 1028 1119 m 743 1115 l 489 1378 l 668 1510 l 825 1186 l 743 1115 m 870 245 q 1053 309 989 245 q 1116 500 1116 374 q 1052 675 1116 627 q 874 723 987 723 q 695 660 761 723 q 629 478 629 597 q 870 245 629 245 m 85 467 q 295 865 85 726 q 877 1004 505 1004 q 1451 876 1249 1004 q 1654 511 1654 747 q 1439 112 1654 255 q 852 -31 1224 -31 q 282 102 479 -31 q 85 467 85 235 z "},"ȍ":{"ha":1221,"x_min":77,"x_max":1144,"o":"m 766 840 l 577 1105 l 755 1220 l 864 899 l 766 840 m 480 836 l 227 1099 l 406 1232 l 562 907 l 480 836 m 613 160 q 735 214 694 160 q 777 348 777 267 q 733 476 777 429 q 610 524 688 524 q 493 469 532 524 q 453 339 453 414 q 613 160 453 160 m 77 334 q 648 726 77 726 q 1001 629 861 726 q 1106 513 1069 583 q 1144 366 1144 444 q 1007 68 1144 161 q 602 -25 869 -25 q 77 334 77 -25 z "},"Ȏ":{"ha":1740,"x_min":85,"x_max":1654,"o":"m 982 1117 q 899 1190 982 1190 q 832 1162 853 1190 q 810 1102 810 1135 l 696 1116 q 759 1257 696 1204 q 916 1309 822 1309 q 1093 1180 1053 1309 q 1103 1106 1103 1145 l 981 1099 q 982 1117 982 1109 m 870 245 q 1053 309 989 245 q 1116 500 1116 374 q 1052 675 1116 627 q 874 723 987 723 q 695 660 761 723 q 629 478 629 597 q 870 245 629 245 m 85 467 q 295 865 85 726 q 877 1004 505 1004 q 1451 876 1249 1004 q 1654 511 1654 747 q 1439 112 1654 255 q 852 -31 1224 -31 q 282 102 479 -31 q 85 467 85 235 z "},"ȏ":{"ha":1221,"x_min":77,"x_max":1144,"o":"m 720 838 q 637 911 720 911 q 569 883 591 911 q 548 823 548 856 l 434 837 q 497 978 434 926 q 654 1030 559 1030 q 830 901 791 1030 q 841 827 841 866 l 718 821 q 720 838 720 830 m 613 160 q 735 214 694 160 q 777 348 777 267 q 733 476 777 429 q 610 524 688 524 q 493 469 532 524 q 453 339 453 414 q 613 160 453 160 m 77 334 q 648 726 77 726 q 1001 629 861 726 q 1106 513 1069 583 q 1144 366 1144 444 q 1007 68 1144 161 q 602 -25 869 -25 q 77 334 77 -25 z "},"Ȑ":{"ha":1626,"x_min":175,"x_max":1554,"o":"m 1035 1119 l 846 1383 l 1025 1499 l 1133 1178 l 1035 1119 m 749 1115 l 496 1378 l 675 1510 l 831 1186 l 749 1115 m 1002 647 q 838 726 1002 726 q 682 722 785 726 l 670 530 q 761 539 699 534 q 876 552 824 545 q 965 582 928 560 q 1002 647 1002 603 m 1025 -58 q 925 142 1000 -12 q 826 355 851 295 l 660 343 l 646 6 q 642 0 646 1 q 334 -7 435 -3 l 175 -12 q 189 438 175 87 l 193 550 l 213 973 q 221 974 214 972 q 643 990 338 990 q 1027 989 948 990 q 1183 974 1106 986 q 1484 714 1484 926 q 1412 527 1484 595 q 1242 427 1339 459 q 1408 209 1285 377 q 1554 13 1531 41 l 1025 -58 z "},"ȑ":{"ha":857,"x_min":82,"x_max":834,"o":"m 621 840 l 433 1105 l 611 1220 l 720 899 l 621 840 m 336 836 l 82 1099 l 261 1232 l 418 907 l 336 836 m 169 -6 l 102 -7 q 98 38 98 24 q 123 650 98 38 l 311 690 l 389 554 q 648 720 518 720 q 759 699 701 720 q 834 652 816 677 l 763 456 q 616 487 688 487 q 498 446 544 487 q 492 442 495 444 l 491 440 l 463 8 l 169 -6 z "},"Ȓ":{"ha":1626,"x_min":175,"x_max":1554,"o":"m 989 1117 q 906 1190 989 1190 q 839 1162 860 1190 q 817 1102 817 1135 l 703 1116 q 766 1257 703 1204 q 923 1309 829 1309 q 1099 1180 1060 1309 q 1110 1106 1110 1145 l 987 1099 q 989 1117 989 1109 m 1002 647 q 838 726 1002 726 q 682 722 785 726 l 670 530 q 761 539 699 534 q 876 552 824 545 q 965 582 928 560 q 1002 647 1002 603 m 1025 -58 q 925 142 1000 -12 q 826 355 851 295 l 660 343 l 646 6 q 642 0 646 1 q 334 -7 435 -3 l 175 -12 q 189 438 175 87 l 193 550 l 213 973 q 221 974 214 972 q 643 990 338 990 q 1027 989 948 990 q 1183 974 1106 986 q 1484 714 1484 926 q 1412 527 1484 595 q 1242 427 1339 459 q 1408 209 1285 377 q 1554 13 1531 41 l 1025 -58 z "},"ȓ":{"ha":857,"x_min":98,"x_max":834,"o":"m 574 838 q 492 911 574 911 q 424 883 446 911 q 403 823 403 856 l 289 837 q 352 978 289 926 q 509 1030 414 1030 q 685 901 646 1030 q 696 827 696 866 l 573 821 q 574 838 574 830 m 169 -6 l 102 -7 q 98 38 98 24 q 123 650 98 38 l 311 690 l 389 554 q 648 720 518 720 q 759 699 701 720 q 834 652 816 677 l 763 456 q 616 487 688 487 q 498 446 544 487 q 492 442 495 444 l 491 440 l 463 8 l 169 -6 z "},"Ȕ":{"ha":1651,"x_min":97,"x_max":1571,"o":"m 987 1119 l 798 1383 l 977 1499 l 1085 1178 l 987 1119 m 701 1115 l 448 1378 l 627 1510 l 783 1186 l 701 1115 m 808 -31 q 415 7 555 -31 q 97 401 97 91 l 101 667 q 105 829 103 728 q 115 973 108 929 l 443 975 l 652 979 q 651 924 651 960 q 650 871 651 888 l 629 414 q 681 288 629 332 q 823 243 734 243 q 968 305 912 243 q 1028 481 1024 368 l 1046 966 q 1571 976 1223 971 q 1558 625 1571 847 q 1537 370 1546 403 q 1373 120 1493 209 q 1106 0 1252 31 q 808 -31 960 -31 z "},"ȕ":{"ha":1301,"x_min":80,"x_max":1201,"o":"m 792 840 l 604 1105 l 782 1220 l 890 899 l 792 840 m 507 836 l 253 1099 l 432 1232 l 589 907 l 507 836 m 488 344 q 634 166 488 166 q 753 218 713 165 q 792 296 783 258 q 814 574 814 391 l 814 683 q 1200 692 899 686 q 1201 637 1201 656 l 1167 20 l 954 -12 q 888 129 909 78 q 719 14 821 53 q 506 -25 617 -25 q 145 96 262 -24 q 80 276 80 163 q 87 516 80 389 q 96 674 95 643 q 222 680 119 676 q 372 686 326 683 l 505 694 q 488 344 488 381 z "},"Ȗ":{"ha":1651,"x_min":97,"x_max":1571,"o":"m 940 1117 q 857 1190 940 1190 q 790 1162 811 1190 q 768 1102 768 1135 l 654 1116 q 717 1257 654 1204 q 874 1309 780 1309 q 1050 1180 1011 1309 q 1061 1106 1061 1145 l 939 1099 q 940 1117 940 1109 m 808 -31 q 415 7 555 -31 q 97 401 97 91 l 101 667 q 105 829 103 728 q 115 973 108 929 l 443 975 l 652 979 q 651 924 651 960 q 650 871 651 888 l 629 414 q 681 288 629 332 q 823 243 734 243 q 968 305 912 243 q 1028 481 1024 368 l 1046 966 q 1571 976 1223 971 q 1558 625 1571 847 q 1537 370 1546 403 q 1373 120 1493 209 q 1106 0 1252 31 q 808 -31 960 -31 z "},"ȗ":{"ha":1301,"x_min":80,"x_max":1201,"o":"m 746 838 q 663 911 746 911 q 596 883 617 911 q 574 823 574 856 l 460 837 q 523 978 460 926 q 680 1030 586 1030 q 857 901 817 1030 q 867 827 867 866 l 745 821 q 746 838 746 830 m 488 344 q 634 166 488 166 q 753 218 713 165 q 792 296 783 258 q 814 574 814 391 l 814 683 q 1200 692 899 686 q 1201 637 1201 656 l 1167 20 l 954 -12 q 888 129 909 78 q 719 14 821 53 q 506 -25 617 -25 q 145 96 262 -24 q 80 276 80 163 q 87 516 80 389 q 96 674 95 643 q 222 680 119 676 q 372 686 326 683 l 505 694 q 488 344 488 381 z "},"Ș":{"ha":1463,"x_min":111,"x_max":1369,"o":"m 1100 15 q 1057 3 1100 15 q 914 -20 1014 -9 q 685 -31 814 -31 q 401 -7 555 -31 q 112 61 248 16 q 178 315 115 73 q 183 320 178 320 q 370 275 305 290 q 740 237 543 237 q 848 275 848 237 q 837 299 848 292 q 799 310 826 306 q 711 323 772 314 q 619 338 651 332 q 530 353 587 343 q 442 372 472 363 q 365 393 412 380 q 292 420 317 406 q 232 452 266 433 q 180 493 198 471 q 144 542 161 515 q 111 663 111 591 q 283 927 111 850 q 795 1004 456 1004 q 1080 975 935 1004 q 1293 913 1225 946 q 1226 681 1255 769 q 993 725 1145 703 q 722 747 840 747 q 604 709 604 747 q 634 677 604 688 q 778 648 664 667 q 932 623 892 629 q 1308 475 1225 572 q 1369 319 1369 402 q 1336 176 1369 235 q 1245 79 1303 117 q 1100 15 1187 40 z "},"ș":{"ha":1061,"x_min":85,"x_max":981,"o":"m 130 227 q 481 182 344 182 q 619 202 619 182 q 589 233 619 223 q 423 266 559 243 q 231 311 287 289 q 85 478 85 366 q 160 631 85 576 q 581 726 290 726 q 924 683 755 726 l 892 493 q 735 516 846 505 q 539 528 624 528 q 455 505 455 528 q 472 484 455 490 q 589 465 490 477 q 730 443 688 452 q 946 333 891 410 q 981 226 981 284 q 969 134 981 168 q 834 15 941 56 q 507 -25 726 -25 q 269 -10 393 -25 q 85 39 146 5 l 130 227 z "},"Ț":{"ha":1337,"x_min":67,"x_max":1303,"o":"m 877 3 q 413 -10 877 3 l 427 454 q 437 713 433 622 l 67 713 q 77 834 68 741 q 94 975 86 927 q 967 983 722 983 q 1303 981 1213 983 q 1255 713 1282 800 l 901 713 l 897 566 q 876 38 876 73 q 877 3 876 3 z "},"ț":{"ha":1041,"x_min":60,"x_max":964,"o":"m 947 30 q 784 -10 882 4 q 602 -24 687 -24 q 441 -5 517 -24 q 202 284 202 56 q 202 292 202 288 l 202 300 q 206 409 204 319 q 210 507 208 498 l 140 507 q 60 513 81 507 l 102 668 l 226 668 q 240 829 235 739 q 248 941 245 918 q 644 964 498 964 q 652 964 648 964 q 653 943 653 954 l 640 666 l 904 666 q 964 658 936 666 l 928 513 q 854 507 907 507 l 627 507 l 621 309 q 653 218 621 244 q 747 193 685 193 q 923 225 809 193 q 949 233 945 232 q 951 139 951 213 q 947 30 951 65 z "},"ȷ":{"ha":737,"x_min":-43,"x_max":654,"o":"m -43 -297 q -19 -81 -43 -297 q 65 -83 33 -83 q 127 -76 98 -83 q 182 -48 156 -69 q 239 125 233 -7 q 258 678 252 366 q 405 685 260 678 q 610 696 549 691 l 612 696 q 654 694 635 696 l 635 70 q 506 -222 624 -137 q 181 -304 393 -304 q -43 -298 58 -304 l -43 -297 z "},"ˆ":{"ha":749,"x_min":112,"x_max":643,"o":"m 112 928 l 112 937 q 155 988 112 941 q 355 1219 198 1036 q 361 1223 359 1223 q 365 1221 363 1223 l 465 1221 q 555 1087 467 1221 q 643 947 643 954 q 641 937 643 940 l 641 936 q 604 903 641 926 q 527 861 566 880 q 479 842 487 842 l 393 1021 q 258 845 260 849 l 258 843 q 230 852 245 843 q 163 888 215 861 q 112 928 112 915 z "},"ˇ":{"ha":742,"x_min":89,"x_max":651,"o":"m 89 1137 l 91 1147 q 169 1204 91 1162 q 261 1245 246 1245 q 271 1229 262 1245 l 353 1057 q 497 1243 494 1239 l 497 1245 q 526 1236 511 1245 q 596 1197 542 1226 q 651 1155 651 1168 l 651 1145 q 602 1087 651 1141 q 393 847 553 1032 q 387 844 391 844 l 277 844 q 182 984 275 845 q 89 1137 89 1122 z "},"˘":{"ha":566,"x_min":50,"x_max":500,"o":"m 193 994 l 191 972 q 210 928 191 947 q 273 908 229 908 q 337 928 316 908 q 359 992 359 948 l 500 994 q 434 835 500 889 q 270 781 367 781 q 111 827 172 781 q 50 945 50 873 q 57 994 50 969 l 193 994 z "},"˙":{"ha":393,"x_min":50,"x_max":341,"o":"m 50 947 l 50 949 q 64 1203 60 1193 q 79 1213 68 1213 q 327 1214 174 1213 q 341 1198 342 1214 l 322 985 q 314 949 319 953 q 302 944 309 945 q 57 942 231 942 q 50 947 50 942 z "},"˚":{"ha":481,"x_min":50,"x_max":431,"o":"m 310 998 q 247 1081 311 1081 q 189 1053 212 1081 q 166 990 166 1025 q 227 907 166 907 q 288 936 267 907 q 310 998 310 964 m 431 1006 q 431 967 431 1006 q 378 868 431 928 q 240 808 324 808 q 103 857 157 808 q 50 986 50 905 q 108 1122 50 1066 q 248 1178 167 1178 q 380 1131 328 1178 q 431 1006 431 1083 z "},"˛":{"ha":369,"x_min":34,"x_max":336,"o":"m 34 -262 q 87 -123 39 -186 q 206 -12 135 -60 l 328 -12 q 271 -93 302 -38 q 240 -193 240 -147 q 336 -279 240 -266 l 322 -383 q 205 -399 271 -399 q 86 -365 139 -399 q 34 -262 34 -330 z "},"˜":{"ha":760,"x_min":43,"x_max":719,"o":"m 252 951 q 199 877 199 951 l 43 871 q 110 1076 43 996 q 275 1156 177 1156 q 378 1141 339 1156 q 448 1082 416 1126 q 500 1038 479 1038 q 534 1047 522 1038 q 551 1083 546 1056 q 563 1111 556 1111 l 719 1104 q 653 915 719 1002 q 577 849 623 874 q 480 823 531 823 q 389 845 430 823 q 307 926 347 867 q 252 951 290 951 z "},"˝":{"ha":741,"x_min":60,"x_max":663,"o":"m 153 786 l 60 842 l 163 1146 l 331 1036 l 153 786 m 423 782 l 347 850 q 494 1156 347 850 l 663 1031 l 423 782 z "},"̏":{"ha":781,"x_min":81,"x_max":719,"o":"m 621 785 l 432 1049 l 610 1164 l 719 844 l 621 785 m 335 781 l 81 1044 l 260 1176 l 417 852 l 335 781 z "},"̑":{"ha":462,"x_min":39,"x_max":446,"o":"m 324 817 q 241 890 324 890 q 174 862 195 890 q 153 802 153 835 l 39 816 q 101 957 39 905 q 258 1009 164 1009 q 435 880 395 1009 q 446 806 446 845 l 323 800 q 324 817 324 809 z "},"̦":{"ha":379,"x_min":58,"x_max":374,"o":"m 102 -602 q 58 -597 75 -602 l 69 -493 q 169 -386 151 -482 l 75 -386 l 97 -142 l 374 -142 l 360 -365 q 229 -568 351 -503 q 102 -602 165 -602 z "},"μ":{"ha":866,"x_min":80,"x_max":1200,"o":"m 460 -285 l 80 -316 q 80 324 80 -316 q 88 525 81 415 q 96 669 95 635 q 406 699 273 699 q 505 694 446 699 q 488 344 488 381 q 522 215 488 264 q 625 166 556 166 q 755 235 718 166 q 788 311 776 273 q 814 676 814 390 q 1200 699 899 682 q 1200 623 1200 673 l 1167 20 q 954 -12 1093 7 l 888 129 q 719 13 821 52 q 506 -26 617 -26 q 471 -25 482 -26 l 460 -285 z "},"Ѐ":{"ha":1389,"x_min":119,"x_max":1333,"o":"m 458 1362 q 694 1437 693 1437 l 696 1437 l 845 1153 l 741 1116 l 458 1362 z "},"Ё":{"ha":1389,"x_min":119,"x_max":1333,"o":"m 1094 1116 l 836 1116 l 842 1358 l 1094 1358 l 1094 1116 m 410 1115 q 408 1120 408 1115 l 416 1358 l 669 1359 l 666 1116 l 410 1115 z "},"Ђ":{"ha":1337,"x_min":67,"x_max":1587,"o":"m 877 7 q 660 1 852 5 q 416 -3 467 -3 l 414 -3 l 427 454 q 437 713 433 622 l 67 713 q 77 834 68 741 q 94 973 86 926 q 943 979 684 979 q 1303 977 1201 979 q 1255 713 1282 800 l 901 713 l 897 532 q 1137 555 1020 555 q 1472 494 1358 555 q 1587 286 1587 432 l 1586 115 q 1487 -216 1577 -122 q 1340 -298 1426 -279 q 1173 -318 1253 -318 q 992 -312 1093 -318 l 1001 -111 q 1074 -104 1045 -111 q 1128 -76 1103 -97 q 1186 97 1179 -35 l 1190 234 q 1023 357 1190 357 q 890 342 964 357 q 877 7 876 10 z "},"Ѓ":{"ha":1642,"x_min":154,"x_max":1069,"o":"m 922 1350 q 629 1116 631 1116 q 510 1143 619 1116 q 607 1296 545 1202 q 688 1417 669 1390 q 922 1350 770 1395 m 1069 984 l 1027 639 l 665 639 l 628 1 l 241 -12 l 154 -12 l 174 655 l 184 979 l 657 985 l 1069 984 z "},"Є":{"ha":1153,"x_min":90,"x_max":1042,"o":"m 174 207 q 155 233 174 207 q 113 329 135 259 q 90 488 90 399 q 123 658 90 578 q 214 794 155 738 q 520 957 336 910 q 911 1004 705 1004 q 1042 998 981 1004 l 1042 702 q 886 707 955 707 q 737 681 818 707 q 626 575 656 655 l 929 578 l 934 393 l 629 394 q 729 283 659 311 q 890 256 800 256 q 1042 264 905 256 l 1042 -20 q 853 -31 950 -31 q 682 -23 757 -31 q 531 2 606 -16 q 391 46 455 20 q 270 114 326 73 q 174 207 214 155 z "},"Ѕ":{"ha":1463,"x_min":111,"x_max":1369,"o":"m 1100 15 q 1057 3 1100 15 q 914 -20 1014 -9 q 685 -31 814 -31 q 401 -7 555 -31 q 112 61 248 16 q 178 315 115 73 q 183 320 178 320 q 370 275 305 290 q 740 237 543 237 q 848 275 848 237 q 837 299 848 292 q 799 310 826 306 q 711 323 772 314 q 619 338 651 332 q 530 353 587 343 q 442 372 472 363 q 365 393 412 380 q 292 420 317 406 q 232 452 266 433 q 180 493 198 471 q 144 542 161 515 q 111 663 111 591 q 283 927 111 850 q 795 1004 456 1004 q 1080 975 935 1004 q 1293 913 1225 946 q 1226 681 1255 769 q 993 725 1145 703 q 722 747 840 747 q 604 709 604 747 q 634 677 604 688 q 778 648 664 667 q 932 623 892 629 q 1308 475 1225 572 q 1369 319 1369 402 q 1336 176 1369 235 q 1245 79 1303 117 q 1100 15 1187 40 z "},"І":{"ha":802,"x_min":166,"x_max":674,"o":"m 553 981 l 671 983 q 674 947 674 966 l 671 856 l 652 7 l 523 3 q 168 0 523 3 q 166 50 166 20 q 189 972 166 50 q 553 981 339 981 z "},"Ї":{"ha":802,"x_min":133,"x_max":819,"o":"m 819 1116 l 562 1116 l 567 1358 l 819 1358 l 819 1116 m 136 1115 q 133 1120 133 1115 l 142 1358 l 395 1359 l 391 1116 l 136 1115 m 553 981 l 671 983 q 674 947 674 966 l 671 856 l 652 7 l 523 3 q 168 0 523 3 q 166 50 166 20 q 189 972 166 50 q 553 981 339 981 z "},"Ј":{"ha":924,"x_min":65,"x_max":820,"o":"m 276 467 l 276 977 q 550 981 374 981 q 820 985 727 981 l 817 579 q 745 204 805 339 q 666 81 712 132 q 202 -87 536 -60 q 65 160 143 3 q 227 252 177 179 q 276 467 276 326 z "},"Љ":{"ha":2150,"x_min":-12,"x_max":2066,"o":"m 595 180 q 406 -20 526 48 q 99 -104 285 -87 q 52 0 91 -90 q -12 147 14 90 q 126 232 82 165 q 178 429 170 298 l 194 655 l 208 977 l 1368 983 l 1353 676 l 1651 684 q 1984 568 1868 684 q 2066 358 2066 487 q 1935 101 2066 196 q 1529 3 1805 5 l 842 -5 l 842 68 q 851 386 842 131 q 863 696 859 640 l 650 696 q 632 345 641 408 q 616 244 623 281 q 595 180 609 207 m 1402 229 l 1446 229 q 1554 267 1512 229 q 1596 365 1596 304 q 1564 460 1596 425 q 1472 495 1531 495 l 1347 495 l 1335 232 q 1402 229 1362 229 z "},"Њ":{"ha":2248,"x_min":153,"x_max":2215,"o":"m 991 -5 l 991 68 q 1001 293 991 172 l 639 293 l 621 1 l 153 -11 q 174 655 153 93 l 184 979 l 670 985 l 644 640 l 1009 640 l 1023 969 q 1124 976 1063 975 q 1320 979 1185 977 q 1517 983 1454 982 l 1502 676 l 1801 684 q 2085 608 1968 684 q 2180 504 2144 568 q 2215 359 2215 440 q 2085 101 2215 196 q 1678 3 1954 5 l 991 -5 m 1496 495 l 1485 232 q 1588 229 1514 229 q 1704 267 1662 229 q 1746 365 1746 304 q 1713 460 1746 425 q 1621 495 1680 495 l 1496 495 z "},"Ћ":{"ha":1681,"x_min":67,"x_max":1605,"o":"m 877 7 q 660 1 852 5 q 416 -3 467 -3 l 414 -3 q 427 454 414 -3 q 437 713 433 622 l 67 713 q 77 834 68 741 q 94 975 86 928 q 940 983 683 983 q 1303 981 1196 983 q 1255 713 1282 800 l 901 713 l 898 545 q 1157 570 1021 570 q 1552 427 1439 570 q 1605 271 1604 361 l 1596 3 q 1192 -1 1586 1 l 1197 208 q 1030 330 1197 330 q 890 315 970 330 l 877 7 z "},"Ќ":{"ha":1581,"x_min":122,"x_max":1555,"o":"m 1158 1357 q 865 1123 867 1123 q 747 1150 856 1123 q 844 1303 782 1209 q 925 1423 905 1396 q 1158 1357 1007 1402 z "},"Ѝ":{"ha":1606,"x_min":91,"x_max":1516,"o":"m 527 1362 q 762 1437 762 1437 l 764 1437 l 913 1153 l 810 1116 l 527 1362 m 1516 943 q 1507 633 1516 931 q 1494 93 1498 336 l 1489 -12 q 1070 0 1253 -12 l 1070 3 q 1071 10 1071 5 q 1072 49 1071 15 q 1076 188 1073 83 q 1082 422 1078 294 l 593 -10 l 91 1 l 98 155 l 124 981 q 240 980 184 981 l 548 972 l 541 867 l 525 569 q 759 808 602 653 q 923 970 916 962 l 1516 943 z "},"Ў":{"ha":1348,"x_min":25,"x_max":1354,"o":"m 616 1328 l 614 1307 q 633 1262 614 1282 q 695 1242 652 1242 q 760 1262 739 1242 q 781 1326 781 1282 l 923 1328 q 856 1169 923 1223 q 692 1115 789 1115 q 534 1161 595 1115 q 473 1280 473 1208 q 479 1328 473 1303 l 616 1328 m 225 0 l 459 368 l 25 960 l 28 979 l 393 981 l 515 984 l 711 696 l 881 980 l 1347 982 l 1354 968 q 739 4 919 290 l 629 2 l 225 0 z "},"Џ":{"ha":1642,"x_min":154,"x_max":1518,"o":"m 513 975 l 680 972 l 675 883 q 644 313 655 457 l 1006 313 l 1050 970 l 1430 967 l 1518 963 l 1506 642 l 1474 -5 l 1466 -14 q 1256 -27 1431 -20 q 1014 -34 1081 -34 l 1000 -272 q 843 -277 968 -274 q 671 -281 718 -279 q 602 -278 625 -282 l 619 -34 q 170 -35 465 -35 l 154 -35 q 154 0 154 -32 q 169 414 154 32 q 193 970 184 796 l 513 975 z "},"А":{"ha":1544,"x_min":48,"x_max":1495,"o":"m 831 366 q 734 692 758 604 q 659 477 696 573 q 616 366 622 380 l 831 366 m 515 117 l 464 -10 q 395 -15 429 -15 q 48 0 361 -15 q 482 970 126 163 q 673 978 525 971 q 931 984 821 984 q 1082 970 1041 984 q 1438 139 1086 957 l 1495 6 q 1056 -20 1064 -20 q 968 -16 1047 -20 q 916 112 937 39 q 515 117 872 117 z "},"Б":{"ha":1604,"x_min":116,"x_max":1417,"o":"m 116 -34 l 125 75 q 208 963 140 275 q 1026 982 818 982 q 1303 981 1235 982 q 1255 713 1282 800 l 686 713 l 677 614 q 831 617 754 617 q 1340 518 1209 617 q 1417 366 1417 460 q 1374 163 1417 233 q 1263 56 1332 94 q 719 -35 1093 -35 l 116 -34 m 631 175 q 941 244 869 175 q 967 305 967 270 q 947 362 967 342 q 777 400 911 400 q 654 396 728 400 q 641 268 649 340 q 631 175 633 195 z "},"В":{"ha":1604,"x_min":121,"x_max":1501,"o":"m 654 416 l 631 202 q 888 214 827 202 q 983 236 949 225 q 1052 304 1053 258 q 960 394 1052 371 q 654 416 868 416 m 755 573 q 1023 683 1023 573 q 750 779 1023 779 l 696 779 l 670 573 l 755 573 m 720 -3 l 121 1 q 207 993 195 860 l 859 996 q 1399 883 1252 996 q 1474 741 1474 825 q 1411 625 1474 683 q 1263 547 1348 568 q 1435 483 1369 530 q 1501 364 1501 435 q 1480 239 1501 294 q 1253 58 1432 119 q 720 -3 1075 -3 z "},"Г":{"ha":1642,"x_min":154,"x_max":1069,"o":"m 1069 984 l 1027 639 l 665 639 l 628 1 l 241 -12 l 154 -12 l 174 655 l 184 979 l 657 985 l 1069 984 z "},"Д":{"ha":1588,"x_min":-43,"x_max":1517,"o":"m 685 281 q 983 281 685 281 q 1013 720 1001 572 l 766 720 l 685 281 m 1425 486 l 1418 281 l 1517 281 l 1499 -281 l 1019 -277 l 1027 -5 l 468 -5 l 425 -281 l -43 -283 l 1 252 l 8 261 q 250 275 40 267 l 377 916 l 385 972 l 393 981 l 820 986 l 1449 986 l 1425 486 z "},"Е":{"ha":1389,"x_min":119,"x_max":1333,"o":"m 1326 -6 l 894 -6 l 119 -1 l 130 238 q 165 975 165 956 q 271 978 246 978 l 958 978 q 1327 981 1186 978 l 1299 725 q 646 710 1135 710 q 641 655 644 694 q 637 597 639 616 q 910 600 833 600 l 1059 596 q 1050 493 1059 566 q 1030 380 1041 420 q 861 377 1019 377 l 629 377 l 621 245 l 1333 237 q 1330 54 1333 109 q 1326 -6 1326 -1 z "},"Ж":{"ha":1533,"x_min":18,"x_max":1665,"o":"m 18 903 q 42 912 20 904 q 442 1012 209 974 l 692 746 q 695 945 695 826 q 1038 986 963 977 l 1034 890 l 1029 727 l 1276 999 l 1665 914 q 1382 618 1459 699 q 1269 503 1305 537 q 1653 132 1369 413 l 1426 1 l 1314 -41 l 1010 274 l 1006 153 l 1007 -3 l 667 -13 l 673 284 l 381 -41 l 43 102 l 140 210 q 416 502 296 376 l 18 903 z "},"З":{"ha":1110,"x_min":163,"x_max":1053,"o":"m 1053 303 q 898 37 1053 122 q 536 -31 776 -31 q 170 5 296 -31 l 172 261 q 349 252 282 252 q 500 332 500 252 q 478 392 500 368 q 407 416 456 416 l 258 416 l 265 612 l 375 612 q 489 702 489 612 q 441 769 489 753 q 347 786 394 786 q 163 781 299 786 l 163 984 q 487 1004 347 1004 q 895 944 757 1004 q 1034 742 1034 884 q 923 549 1034 600 q 857 530 892 534 q 999 459 945 517 q 1053 303 1053 401 z "},"И":{"ha":1606,"x_min":91,"x_max":1516,"o":"m 1516 943 q 1507 633 1516 931 q 1494 93 1498 336 l 1489 -12 q 1070 0 1253 -12 l 1070 3 q 1071 10 1071 5 q 1072 49 1071 15 q 1076 188 1073 83 q 1082 422 1078 294 l 593 -10 l 91 1 l 98 155 l 124 981 q 240 980 184 981 l 548 972 l 541 867 l 525 569 q 759 808 602 653 q 923 970 916 962 l 1516 943 z "},"Й":{"ha":1606,"x_min":91,"x_max":1516,"o":"m 742 1328 l 740 1307 q 759 1262 740 1282 q 821 1242 778 1242 q 886 1262 865 1242 q 907 1326 907 1282 l 1049 1328 q 982 1169 1049 1223 q 818 1115 916 1115 q 660 1161 721 1115 q 599 1280 599 1208 q 606 1328 599 1303 l 742 1328 m 1516 943 q 1507 633 1516 931 q 1494 93 1498 336 l 1489 -12 q 1070 0 1253 -12 l 1070 3 q 1071 10 1071 5 q 1072 49 1071 15 q 1076 188 1073 83 q 1082 422 1078 294 l 593 -10 l 91 1 l 98 155 l 124 981 q 240 980 184 981 l 548 972 l 541 867 l 525 569 q 759 808 602 653 q 923 970 916 962 l 1516 943 z "},"К":{"ha":1581,"x_min":122,"x_max":1555,"o":"m 1461 846 l 1461 848 q 1463 846 1461 848 l 1461 846 m 582 983 l 648 983 q 656 867 656 932 q 650 715 656 802 q 644 604 645 627 l 926 960 l 970 1011 q 1461 847 1206 926 l 1461 842 q 1263 640 1379 755 q 1110 486 1147 524 l 1555 137 l 1179 -18 l 1107 -55 l 989 41 q 789 217 901 115 q 637 361 677 319 l 626 52 l 626 4 q 126 -7 273 -7 q 122 86 122 52 q 136 535 122 86 q 150 888 150 840 q 154 968 150 937 q 342 978 184 972 q 582 983 499 983 z "},"Л":{"ha":1642,"x_min":-26,"x_max":1514,"o":"m 1514 981 l 1488 382 q 1486 300 1487 347 q 1483 175 1485 253 q 1478 1 1480 97 l 1179 0 q 987 -12 1038 -12 l 991 68 q 1027 639 1010 428 l 635 639 q 609 271 623 336 q 582 180 595 206 q 392 -20 513 48 q 85 -104 271 -87 q 39 0 77 -90 q -26 147 0 90 q 115 233 70 165 q 165 429 160 300 l 174 655 q 194 916 181 790 l 197 956 l 205 966 q 415 975 240 970 q 657 981 591 981 l 1514 981 z "},"М":{"ha":1822,"x_min":91,"x_max":1737,"o":"m 1737 2 l 1315 -6 q 1284 351 1289 252 l 1278 458 l 997 14 q 798 16 823 14 q 597 431 663 284 l 547 -3 q 350 -5 479 -5 q 91 3 220 -5 l 100 117 q 149 975 111 229 l 153 975 q 660 981 452 975 l 684 929 l 903 528 l 1170 986 l 1667 987 q 1710 393 1672 916 l 1732 85 l 1737 2 z "},"Н":{"ha":1642,"x_min":153,"x_max":1517,"o":"m 1030 977 l 1106 975 l 1517 986 l 1493 486 l 1478 1 l 991 -7 q 1001 293 991 111 l 639 293 l 621 1 l 153 -12 q 159 273 153 105 l 174 655 q 182 815 174 676 q 191 979 191 954 q 657 985 297 985 l 670 985 l 644 640 l 1009 640 l 1030 977 z "},"О":{"ha":1740,"x_min":85,"x_max":1654,"o":"m 870 245 q 1053 309 989 245 q 1116 500 1116 374 q 1052 675 1116 627 q 874 723 987 723 q 695 660 761 723 q 629 478 629 597 q 870 245 629 245 m 85 467 q 295 865 85 726 q 877 1004 505 1004 q 1451 876 1249 1004 q 1654 511 1654 747 q 1439 112 1654 255 q 852 -31 1224 -31 q 282 102 479 -31 q 85 467 85 235 z "},"П":{"ha":1642,"x_min":153,"x_max":1517,"o":"m 657 980 l 1517 980 l 1490 433 q 1489 382 1489 417 q 1487 300 1488 347 q 1483 175 1485 253 q 1478 1 1480 97 l 1238 -5 q 985 -14 1038 -14 l 991 68 q 1009 354 994 107 q 1027 639 1023 600 l 665 639 l 621 1 l 153 -12 q 159 273 153 105 l 174 655 q 194 916 181 790 l 197 956 l 205 966 q 414 975 239 970 q 657 980 589 980 z "},"Р":{"ha":1533,"x_min":155,"x_max":1476,"o":"m 886 299 l 637 303 l 623 6 q 243 -6 321 -6 q 155 -3 165 -6 q 159 69 157 21 l 161 183 q 180 975 164 278 q 903 996 533 996 q 1298 924 1160 996 q 1476 637 1477 830 q 886 299 1476 299 m 992 642 q 948 718 992 705 q 828 730 905 730 q 655 720 752 730 q 646 535 646 614 q 788 531 656 531 q 992 642 992 531 z "},"С":{"ha":1181,"x_min":90,"x_max":1042,"o":"m 90 477 q 279 847 90 716 q 911 1004 505 1004 q 1042 998 981 1004 l 1042 676 q 849 688 953 688 q 679 639 746 688 q 612 481 612 589 q 856 254 612 254 q 1042 277 918 254 l 1042 -20 q 853 -31 949 -31 q 172 208 355 -31 q 90 477 90 314 z "},"Т":{"ha":1337,"x_min":67,"x_max":1303,"o":"m 877 3 q 413 -10 877 3 l 427 454 q 437 713 433 622 l 67 713 q 77 834 68 741 q 94 975 86 927 q 967 983 722 983 q 1303 981 1213 983 q 1255 713 1282 800 l 901 713 l 897 566 q 876 38 876 73 q 877 3 876 3 z "},"У":{"ha":1348,"x_min":25,"x_max":1354,"o":"m 225 0 l 459 368 l 25 960 l 28 979 l 393 981 l 515 984 l 711 696 l 881 980 l 1347 982 l 1354 968 q 739 4 919 290 l 629 2 l 225 0 z "},"Ф":{"ha":1740,"x_min":85,"x_max":1654,"o":"m 787 711 q 670 631 711 690 q 629 478 629 572 q 782 254 629 291 l 787 711 m 970 261 q 1116 503 1116 309 q 977 711 1116 674 l 970 261 m 777 -143 l 779 -28 q 258 121 444 -15 q 85 472 85 246 q 285 836 85 697 q 791 1001 484 975 l 791 1100 l 982 1101 l 980 1001 q 1615 696 1485 971 q 1654 522 1655 613 q 1487 146 1655 282 q 966 -26 1303 -1 l 966 -144 l 777 -143 z "},"Х":{"ha":1533,"x_min":84,"x_max":1503,"o":"m 1503 916 q 1082 496 1101 514 q 1490 117 1209 383 l 1209 -16 l 1090 -60 l 788 203 l 526 -62 l 111 83 l 214 199 q 492 492 317 317 l 84 901 q 123 914 88 902 q 536 1012 317 979 l 786 766 l 1010 1002 l 1503 916 z "},"Ц":{"ha":1642,"x_min":195,"x_max":1620,"o":"m 1596 -257 l 1265 -273 q 1198 -268 1220 -273 q 1211 5 1198 -214 q 1014 -1 1077 -1 l 195 -1 l 221 551 l 234 978 q 726 981 436 981 l 720 916 q 702 625 716 873 q 685 346 688 376 l 1006 346 l 1050 983 l 1522 976 q 1511 616 1522 832 l 1497 328 q 1620 326 1577 328 l 1594 -222 q 1596 -257 1594 -241 z "},"Ч":{"ha":1533,"x_min":155,"x_max":1442,"o":"m 960 283 l 590 279 q 224 382 313 278 q 155 623 155 464 l 155 979 l 636 979 l 640 682 q 642 640 640 654 q 658 612 645 625 q 732 599 671 599 l 952 603 l 945 977 l 1418 972 q 1437 183 1436 213 l 1439 66 q 1442 -1 1440 22 q 1371 -4 1432 -4 q 975 -1 1310 -4 l 960 283 z "},"Ш":{"ha":2287,"x_min":238,"x_max":2165,"o":"m 2165 983 q 2165 872 2165 922 l 2144 330 q 2124 69 2137 195 l 2121 28 l 2113 19 q 1915 6 2078 14 q 1688 -1 1753 -1 l 238 -1 l 268 603 q 269 685 269 638 q 272 810 270 732 q 277 983 275 888 q 749 986 479 986 l 743 916 q 725 627 740 874 q 708 346 711 380 l 986 346 l 1029 983 l 1450 983 l 1410 346 l 1681 346 l 1724 983 l 2165 983 z "},"Щ":{"ha":2394,"x_min":238,"x_max":2328,"o":"m 2304 -257 l 1973 -273 q 1906 -268 1928 -273 q 1919 7 1906 -225 q 1688 -1 1749 -1 l 238 -1 l 268 603 q 269 685 269 638 q 272 810 270 732 q 277 983 275 888 q 749 986 479 986 l 743 916 q 725 627 740 874 q 708 346 711 380 l 986 346 l 1029 983 l 1450 996 l 1410 346 l 1681 346 l 1724 983 l 2165 996 q 2161 785 2165 907 l 2144 319 q 2260 328 2223 324 l 2263 328 q 2328 326 2296 328 l 2302 -222 q 2304 -257 2302 -241 z "},"Ъ":{"ha":2248,"x_min":766,"x_max":2215,"o":"m 991 -5 l 991 68 q 996 186 991 111 q 1001 293 1000 260 l 1009 640 l 1013 721 l 766 721 q 776 837 767 748 q 792 971 785 926 l 1517 986 l 1502 676 l 1801 684 q 2085 608 1968 684 q 2180 504 2144 568 q 2215 359 2215 440 q 2085 101 2215 196 q 1678 3 1954 5 l 991 -5 m 1485 232 q 1588 229 1514 229 q 1704 267 1662 229 q 1746 365 1746 304 q 1713 460 1746 425 q 1621 495 1680 495 l 1496 495 l 1485 232 z "},"Ы":{"ha":2167,"x_min":170,"x_max":2044,"o":"m 170 0 l 170 73 q 174 191 170 116 q 179 298 178 265 l 187 644 l 201 981 l 600 987 q 695 991 641 987 l 680 681 l 978 688 q 1307 576 1190 689 q 1393 363 1393 494 q 1263 106 1393 201 q 856 7 1133 10 l 170 0 m 674 500 l 663 237 q 754 234 692 234 q 850 250 817 234 q 924 375 924 286 q 890 465 924 430 q 799 500 857 500 l 674 500 m 2044 938 l 2041 856 l 2022 7 l 1893 3 l 1538 0 q 1536 50 1536 20 l 1559 972 q 1923 981 1691 981 l 2041 983 q 2044 938 2044 962 z "},"Ь":{"ha":2248,"x_min":991,"x_max":2215,"o":"m 991 -5 l 991 68 q 996 186 991 111 q 1001 293 1000 260 l 1009 640 l 1023 976 l 1421 983 q 1517 986 1463 983 l 1502 676 l 1801 684 q 2085 608 1968 684 q 2180 504 2144 568 q 2215 359 2215 440 q 2085 101 2215 196 q 1678 3 1954 5 l 991 -5 m 1496 495 l 1485 232 q 1588 229 1514 229 q 1704 267 1662 229 q 1746 365 1746 304 q 1713 460 1746 425 q 1621 495 1680 495 l 1496 495 z "},"Э":{"ha":1126,"x_min":90,"x_max":1041,"o":"m 478 -9 q 247 -31 344 -31 q 90 -24 150 -31 l 90 286 q 271 273 178 273 q 506 399 462 273 l 177 401 l 182 582 l 501 585 q 275 708 452 708 q 90 684 214 708 l 90 982 q 278 992 182 992 q 960 753 777 992 q 1041 486 1041 648 q 478 -9 1041 82 z "},"Ю":{"ha":2324,"x_min":153,"x_max":2239,"o":"m 1793 1 q 1755 -8 1793 1 q 1643 -23 1716 -16 q 1486 -31 1570 -31 q 1324 -21 1402 -31 q 1166 11 1245 -12 q 1023 70 1086 34 q 910 163 960 106 q 833 293 859 220 l 625 293 l 608 1 l 241 -16 l 153 -12 q 159 273 153 105 l 174 655 q 194 916 181 790 l 197 956 l 205 966 q 409 978 240 971 q 644 985 578 985 l 656 985 l 631 640 l 836 640 q 1096 907 900 809 q 1519 1004 1292 1004 q 2218 663 2112 1004 q 2239 507 2239 594 q 2216 344 2239 420 q 2153 214 2193 269 q 2055 116 2112 159 q 1933 45 1998 73 q 1793 1 1869 18 m 1308 478 q 1359 299 1308 353 q 1525 245 1411 245 q 1690 308 1638 245 q 1742 498 1742 370 q 1691 674 1742 625 q 1529 723 1640 723 q 1308 478 1308 723 z "},"Я":{"ha":1626,"x_min":191,"x_max":1561,"o":"m 910 726 q 741 640 741 726 q 757 594 741 608 q 785 574 773 581 q 927 544 824 553 q 1064 530 1031 534 l 1073 722 q 910 726 966 726 m 1523 -7 l 1055 1 q 1051 22 1051 1 l 1061 343 l 896 355 q 790 170 867 300 q 682 -9 713 41 l 191 6 q 485 427 235 63 q 328 522 394 458 q 261 680 261 585 q 351 883 260 815 q 475 944 412 929 q 669 977 581 970 q 880 983 757 983 q 1121 982 1004 983 q 1314 979 1238 981 q 1447 976 1390 977 q 1532 973 1503 974 q 1561 972 1560 972 l 1523 -7 z "},"а":{"ha":1226,"x_min":81,"x_max":1133,"o":"m 835 131 q 710 18 792 62 q 529 -25 628 -25 q 356 -4 430 -25 q 219 57 282 16 q 119 167 157 98 q 81 328 81 236 q 115 497 81 420 q 208 624 149 575 q 498 726 327 726 q 692 696 617 726 q 825 589 768 666 l 827 733 l 1133 707 l 1131 16 l 876 -3 l 835 131 m 517 447 q 498 424 517 447 q 478 337 478 401 q 517 228 478 274 q 627 181 555 181 q 739 222 699 181 q 779 335 779 263 q 739 450 779 407 q 628 492 699 492 q 517 447 557 492 z "},"б":{"ha":1154,"x_min":77,"x_max":1079,"o":"m 781 899 l 850 651 q 712 613 798 644 q 578 541 627 583 q 697 547 629 547 q 833 532 766 547 q 1017 439 955 505 q 1079 294 1079 373 q 945 59 1079 143 q 550 -25 810 -25 q 201 71 328 -24 q 107 180 136 119 q 77 292 77 242 q 118 484 77 393 q 386 761 192 648 q 781 899 560 863 m 484 264 q 585 141 484 141 q 692 288 692 141 q 668 384 692 352 q 591 416 645 416 q 488 318 509 416 q 484 264 483 293 z "},"в":{"ha":1192,"x_min":88,"x_max":1123,"o":"m 709 696 q 1108 516 1108 696 q 1068 419 1108 456 q 962 369 1029 382 q 1078 315 1033 357 q 1123 209 1123 273 q 1066 95 1123 145 q 690 -3 956 -3 l 130 -3 q 88 7 104 -3 l 106 334 l 104 334 l 127 684 l 709 696 m 617 416 q 726 435 699 416 q 753 492 753 454 q 725 543 753 529 q 638 557 696 557 l 497 557 l 488 416 l 617 416 m 606 142 q 732 176 711 142 q 742 222 742 191 q 626 284 742 283 l 484 284 l 479 142 l 606 142 z "},"г":{"ha":934,"x_min":89,"x_max":858,"o":"m 94 189 l 95 214 q 124 673 102 380 l 131 680 q 300 689 159 684 q 496 694 441 694 l 858 694 q 845 448 848 477 l 503 448 l 467 -3 l 161 -7 l 89 -4 q 94 189 89 75 z "},"д":{"ha":1261,"x_min":-16,"x_max":1232,"o":"m 1232 209 q 1218 -185 1224 -53 l 1004 -182 l 840 -184 l 851 0 l 494 0 l 494 -2 l 385 -3 l 366 -178 l -16 -182 l 17 195 l 24 201 l 173 201 q 200 407 180 256 q 234 683 220 557 l 241 690 l 779 694 l 1151 698 l 1141 339 l 1137 209 l 1232 209 m 525 204 l 779 204 l 790 469 l 562 469 l 525 204 z "},"е":{"ha":1109,"x_min":77,"x_max":1010,"o":"m 711 425 q 681 515 710 488 q 597 541 652 541 q 508 508 542 541 q 466 426 474 475 l 711 425 m 977 56 q 827 0 935 24 q 617 -24 719 -24 q 446 -15 516 -24 q 306 19 375 -5 q 188 82 237 44 q 108 182 138 121 q 77 329 77 243 q 109 487 77 415 q 189 603 140 559 q 588 726 327 726 q 824 678 712 726 q 983 532 936 629 q 1010 410 1010 477 l 1002 298 l 452 301 q 531 204 469 239 q 703 169 594 169 q 953 228 811 169 l 989 228 l 977 56 z "},"ж":{"ha":1348,"x_min":18,"x_max":1327,"o":"m 555 -14 l 558 184 l 373 -6 q 330 -7 348 -7 l 18 -1 l 90 71 l 361 332 l 75 690 l 420 683 l 562 492 l 565 684 l 781 686 l 776 487 l 932 690 q 989 690 955 690 l 1301 684 l 979 367 l 1327 13 l 939 -7 l 769 181 l 765 -16 l 555 -14 z "},"з":{"ha":945,"x_min":115,"x_max":849,"o":"m 400 726 q 833 545 833 726 q 687 382 833 451 q 849 208 849 330 q 741 40 849 106 q 436 -25 633 -25 q 261 -11 348 -25 q 120 25 174 4 l 121 195 q 312 170 229 170 q 371 190 350 170 q 393 236 393 210 q 372 281 393 262 q 315 299 352 299 l 193 299 l 210 442 l 290 442 q 359 461 336 442 q 383 508 383 481 q 361 556 383 536 q 304 576 340 576 q 115 551 222 576 l 115 701 q 400 726 282 726 z "},"и":{"ha":1233,"x_min":89,"x_max":1144,"o":"m 436 279 q 782 690 492 354 l 1144 694 l 1118 56 q 1120 3 1118 17 l 749 3 q 759 270 749 64 l 524 6 q 360 3 453 3 q 144 7 267 3 l 89 9 l 89 79 l 113 697 q 301 701 214 701 q 456 696 389 701 l 453 635 q 436 279 439 338 z "},"й":{"ha":1233,"x_min":89,"x_max":1144,"o":"m 550 1049 l 548 1028 q 567 983 548 1003 q 629 964 586 964 q 694 984 673 964 q 715 1048 715 1004 l 857 1049 q 790 890 857 945 q 626 836 724 836 q 468 883 529 836 q 407 1001 407 929 q 414 1049 407 1025 l 550 1049 m 436 279 q 782 690 492 354 l 1144 694 l 1118 56 q 1120 3 1118 17 l 749 3 q 759 270 749 64 l 524 6 q 360 3 453 3 q 144 7 267 3 l 89 9 l 89 79 l 113 697 q 301 701 214 701 q 456 696 389 701 l 453 635 q 436 279 439 338 z "},"к":{"ha":1199,"x_min":88,"x_max":1195,"o":"m 777 -12 l 565 224 l 487 163 l 484 -1 l 88 -7 l 112 675 l 228 675 l 511 671 l 500 433 l 710 663 l 1084 671 q 1166 669 1114 671 l 939 427 l 857 345 q 1195 5 983 211 l 777 -12 z "},"л":{"ha":1284,"x_min":43,"x_max":1195,"o":"m 199 -25 q 43 -19 144 -25 l 52 181 q 125 188 96 181 q 180 217 154 195 q 244 389 232 259 l 271 686 l 279 692 l 837 694 l 1195 698 l 1185 339 l 1173 -9 l 966 -6 l 787 -7 l 803 443 l 611 443 l 600 336 q 487 49 574 123 q 199 -25 399 -25 z "},"м":{"ha":1530,"x_min":87,"x_max":1442,"o":"m 87 -4 l 136 692 q 585 692 136 692 l 778 353 l 998 698 l 1395 689 l 1442 1 q 1097 -6 1330 -6 l 1078 237 l 1069 326 l 835 5 l 792 2 l 670 2 q 491 307 545 202 l 464 -3 q 343 -6 414 -6 l 87 -4 z "},"н":{"ha":1361,"x_min":89,"x_max":1272,"o":"m 94 199 l 106 464 l 125 699 l 528 693 l 517 453 l 834 453 l 846 686 l 943 686 l 1272 694 l 1236 -3 l 818 -8 l 821 213 l 511 213 l 496 0 l 89 1 q 94 199 89 66 z "},"о":{"ha":1221,"x_min":77,"x_max":1144,"o":"m 613 160 q 735 214 694 160 q 777 348 777 267 q 733 476 777 429 q 610 524 688 524 q 493 469 532 524 q 453 339 453 414 q 613 160 453 160 m 77 334 q 648 726 77 726 q 1001 629 861 726 q 1106 513 1069 583 q 1144 366 1144 444 q 1007 68 1144 161 q 602 -25 869 -25 q 77 334 77 -25 z "},"п":{"ha":1257,"x_min":89,"x_max":1168,"o":"m 471 -2 l 89 -5 l 113 654 l 116 683 l 123 690 l 783 694 l 1168 698 l 1159 339 l 1146 -9 l 932 -6 l 754 -7 l 774 441 l 498 441 l 471 -2 z "},"р":{"ha":1301,"x_min":90,"x_max":1225,"o":"m 651 172 q 690 172 651 172 q 772 224 728 172 q 817 344 817 275 q 774 462 817 413 q 654 511 731 511 q 564 486 602 511 q 492 341 492 437 q 534 222 492 273 q 651 172 575 172 m 471 -211 q 99 -239 188 -239 l 92 -239 q 90 -157 90 -160 l 124 674 q 179 690 138 684 l 336 714 l 410 579 q 811 726 530 726 q 1022 681 927 726 q 1171 557 1117 636 q 1225 384 1225 477 q 1187 214 1225 291 q 1085 86 1149 138 q 936 4 1021 34 q 766 -25 852 -25 q 481 49 597 -25 l 481 44 q 476 -52 481 43 q 471 -211 471 -146 z "},"с":{"ha":1111,"x_min":81,"x_max":1009,"o":"m 807 487 q 503 353 503 487 q 564 242 503 281 q 742 203 625 203 q 972 222 860 203 l 977 9 q 696 -25 848 -25 q 441 -2 544 -25 q 279 50 338 22 q 176 117 221 79 q 81 334 80 198 q 114 486 81 418 q 327 668 175 610 q 662 726 479 726 q 1009 685 845 726 l 992 467 q 807 487 888 487 z "},"т":{"ha":1011,"x_min":48,"x_max":962,"o":"m 663 -2 l 281 -5 l 298 445 l 48 445 l 62 665 l 62 683 l 70 690 l 946 694 l 962 687 l 945 441 l 690 441 l 663 -2 z "},"у":{"ha":1158,"x_min":48,"x_max":1135,"o":"m 451 -98 l 394 5 q 201 379 337 107 q 48 678 64 651 l 444 695 l 635 254 q 706 469 648 288 q 783 694 765 649 q 829 696 808 696 q 1135 685 829 696 q 932 213 1063 514 q 780 -127 800 -90 q 663 -297 729 -227 q 267 -450 519 -450 l 150 -260 q 271 -229 191 -260 q 451 -98 425 -168 z "},"ф":{"ha":1438,"x_min":77,"x_max":1362,"o":"m 821 -278 l 579 -275 l 588 -25 q 287 29 388 -9 q 131 136 185 67 q 77 318 77 205 q 296 658 77 564 q 617 725 419 710 l 625 886 l 867 889 l 860 722 q 1337 488 1249 689 q 1362 375 1362 432 q 1348 262 1362 317 q 1065 9 1297 71 q 827 -24 970 -16 l 821 -278 m 842 161 q 994 359 994 166 q 856 525 994 525 q 854 525 854 525 l 842 161 m 593 159 l 601 523 q 511 494 548 523 q 444 342 444 439 q 478 202 444 245 q 591 159 512 159 q 593 159 591 159 z "},"х":{"ha":1267,"x_min":66,"x_max":1210,"o":"m 1210 -1 l 810 -9 q 726 -13 775 -9 q 677 39 712 -3 q 610 125 642 80 q 519 25 593 106 l 496 1 q 443 -1 466 -1 q 79 12 443 -1 q 102 37 82 16 q 136 71 122 58 l 420 324 q 66 663 184 564 l 568 708 l 590 675 q 671 561 655 585 l 756 655 l 783 690 q 872 690 812 690 l 1184 684 q 983 508 1091 615 q 848 374 876 400 l 1210 -1 z "},"ц":{"ha":1332,"x_min":89,"x_max":1338,"o":"m 1234 339 l 1223 53 l 1295 53 l 1338 51 l 1338 -208 l 1335 -260 l 1067 -260 q 1065 -166 1065 -235 l 1065 -7 l 802 -7 l 184 -11 l 89 -8 l 113 654 l 116 683 l 123 690 q 517 698 186 698 l 530 698 l 509 241 l 808 241 l 831 690 l 1243 698 l 1234 339 z "},"ч":{"ha":1305,"x_min":113,"x_max":1216,"o":"m 783 180 q 604 178 698 178 q 412 191 510 178 q 205 271 274 208 q 113 598 113 355 q 113 654 113 635 l 116 691 l 123 698 l 530 690 q 528 623 528 661 q 558 488 528 536 q 692 439 588 439 q 791 441 783 439 l 804 691 l 1216 691 l 1206 339 l 1194 -9 l 953 -6 l 774 -7 l 783 180 z "},"ш":{"ha":1936,"x_min":89,"x_max":1847,"o":"m 1838 339 l 1825 -9 l 1611 -6 l 856 -11 l 89 -8 l 113 654 l 116 687 l 123 694 l 503 695 l 482 241 l 770 241 l 785 694 l 1021 694 l 1175 698 l 1166 339 l 1161 241 l 1440 241 l 1462 690 l 1847 698 l 1838 339 z "},"щ":{"ha":1936,"x_min":89,"x_max":1940,"o":"m 1940 55 l 1940 -143 l 1937 -195 l 1668 -195 q 1667 -101 1667 -170 l 1667 -7 l 856 -11 l 89 -8 l 113 654 l 116 687 l 123 694 l 503 695 l 482 241 l 770 241 l 785 694 l 1021 694 l 1175 698 l 1166 339 l 1161 241 l 1440 241 l 1462 690 l 1847 698 l 1838 339 l 1828 57 l 1897 57 l 1940 55 z "}}}
